SplineFontDB: 3.0
FontName: MedievalSharp-BookOblique
FullName: Medieval Sharp Book Oblique
FamilyName: Medieval Sharp
Weight: Book
Copyright: Copyright (c) 2020-2024 by Wojciech Kalinowski "wmk69" with Reserved Font Name "MedievalSharp-BookOblique".\nThis Font Software is licensed under the SIL Open Font License, Version 1.1.
Version: 3.1.0; 2021-05-14
ItalicAngle: -12
UnderlinePosition: -80
UnderlineWidth: 180
Ascent: 1638
Descent: 410
InvalidEm: 0
LayerCount: 2
Layer: 0 1 "Warstwa t+AUIA-a" 1
Layer: 1 1 "Plan pierwszy" 0
XUID: [1021 783 23647091 8578152]
StyleMap: 0x0001
FSType: 0
OS2Version: 3
OS2_WeightWidthSlopeOnly: 0
OS2_UseTypoMetrics: 1
CreationTime: 1260698820
ModificationTime: 1621004063
PfmFamily: 17
TTFWeight: 400
TTFWidth: 5
LineGap: 200
VLineGap: 0
Panose: 2 14 5 2 5 2 3 1 2 4
OS2TypoAscent: 2020
OS2TypoAOffset: 0
OS2TypoDescent: -450
OS2TypoDOffset: 0
OS2TypoLinegap: 200
OS2WinAscent: 2020
OS2WinAOffset: 0
OS2WinDescent: 450
OS2WinDOffset: 0
HheadAscent: 2020
HheadAOffset: 0
HheadDescent: -450
HheadDOffset: 0
OS2SubXSize: 1434
OS2SubYSize: 1331
OS2SubXOff: 0
OS2SubYOff: 287
OS2SupXSize: 1434
OS2SupYSize: 1331
OS2SupXOff: 0
OS2SupYOff: 977
OS2StrikeYSize: 102
OS2StrikeYPos: 512
OS2CapHeight: 1510
OS2XHeight: 1130
OS2Vendor: '    '
OS2CodePages: 20000093.00000000
OS2UnicodeRanges: 8000002f.4000204b.00000000.00000000
Lookup: 258 0 0 "'kern' Horizontal Kerning lookup 0" { "'kern' Horizontal Kerning lookup 0-1 subtable" [307,0,4] } ['kern' ('DFLT' <'dflt' > 'latn' <'dflt' > ) ]
MarkAttachClasses: 1
DEI: 91125
KernClass2: 67 56 "'kern' Horizontal Kerning lookup 0-1 subtable"
 84 A Agrave Aacute Acircumflex Atilde Adieresis Aring Amacron Abreve Aogonek Aringacute
 17 B uni1E02 uni1E9E
 47 C Ccedilla Cacute Ccircumflex Cdotaccent Ccaron
 19 D Eth Dcaron Dcroat
 92 E AE Egrave Eacute Ecircumflex Edieresis Emacron Ebreve Edotaccent Eogonek Ecaron OE AEacute
 9 F uni1E1E
 44 G Gcircumflex Gbreve Gdotaccent Gcommaaccent

StartChar: .notdef
Encoding: 65536 -1 0
Width: 994
Flags: W
HStem: 0 68<274 748> 1442 68<567 1041>
VStem: 150 694<0 694> 471 694<816 1510>
DStem2: 150 0 259.546 0 0.207912 0.978148<92.2951 1497.19> 733.546 0 844 0 0.207912 0.978148<69.5192 1474.41>
LayerCount: 2
Fore
SplineSet
150 0 m 1,0,-1
 471 1510 l 1,1,-1
 1165 1510 l 1,2,-1
 844 0 l 1,3,-1
 150 0 l 1,0,-1
274 68 m 1,4,-1
 748 68 l 1,5,-1
 1041 1442 l 1,6,-1
 567 1442 l 1,7,-1
 274 68 l 1,4,-1
EndSplineSet
Validated: 1
EndChar

StartChar: exclam
Encoding: 33 33 4
Width: 612
GlyphClass: 2
Flags: W
HStem: 0 21G<284 332> 1490 20G<677.5 762>
VStem: 206 264<74.0195 225.125>
LayerCount: 2
Fore
SplineSet
753 1510 m 1,0,-1
 762 1504 l 1,1,2
 656 1217 656 1217 570 918 c 0,3,4
 488 633 488 633 436 387 c 1,5,6
 387 375 387 375 341 340 c 1,7,-1
 332 346 l 1,8,9
 393 632 393 632 430 915 c 0,10,11
 469 1205 469 1205 471 1418 c 1,12,13
 602 1431 602 1431 753 1510 c 1,0,-1
309 0 m 1,14,-1
 303 0 l 1,15,16
 265 17 265 17 238 44 c 0,17,18
 206 78 206 78 206 121 c 0,19,20
 206 134 206 134 209 149 c 0,21,22
 221 205 221 205 275 247 c 0,23,24
 316 281 316 281 366 297 c 1,25,-1
 372 297 l 1,26,27
 416 281 416 281 443 247 c 0,28,29
 470 215 470 215 470 176 c 0,30,31
 470 163 470 163 467 149 c 0,32,33
 454 90 454 90 392 44 c 0,34,35
 355 17 355 17 309 0 c 1,14,-1
EndSplineSet
Validated: 1
EndChar

StartChar: quotedbl
Encoding: 34 34 5
Width: 530
GlyphClass: 2
Flags: W
HStem: 1108 442
VStem: 391 154<1280.39 1522.5> 633 154<1280.39 1522.5>
LayerCount: 2
Fore
SplineSet
777 1550 m 1,0,-1
 786 1544 l 1,1,2
 787 1530 787 1530 787 1515 c 0,3,4
 787 1443 787 1443 770 1365 c 0,5,6
 749 1264 749 1264 670 1166 c 1,7,8
 611 1151 611 1151 540 1108 c 1,9,-1
 531 1114 l 1,10,11
 605 1210 605 1210 625 1304 c 0,12,13
 633 1340 633 1340 633 1372 c 0,14,15
 633 1432 633 1432 606 1478 c 1,16,17
 683 1502 683 1502 777 1550 c 1,0,-1
535 1550 m 1,18,-1
 544 1544 l 1,19,20
 545 1530 545 1530 545 1515 c 0,21,22
 545 1443 545 1443 528 1365 c 0,23,24
 507 1264 507 1264 428 1166 c 1,25,26
 369 1151 369 1151 298 1108 c 1,27,-1
 289 1114 l 1,28,29
 363 1210 363 1210 383 1304 c 0,30,31
 391 1340 391 1340 391 1372 c 0,32,33
 391 1432 391 1432 364 1478 c 1,34,35
 441 1502 441 1502 535 1550 c 1,18,-1
EndSplineSet
Validated: 1
EndChar

StartChar: numbersign
Encoding: 35 35 6
Width: 1390
GlyphClass: 2
Flags: W
HStem: 481 173<329.356 601.055 1026.01 1302.06> 529 77<711 915> 789 173<394.84 671.023 1095.98 1367.56> 837 77<782 985>
VStem: 493 185<227.085 304.622> 710 186<1138.06 1215.7> 801 185<227.085 303.998> 1018 186<1137.04 1215.7>
DStem2: 538.944 176 616.944 176 0.207912 0.978148<459.31 667.226>
LayerCount: 2
Fore
SplineSet
1018 1206 m 1,0,1
 1097 1220 1097 1220 1195 1266 c 1,2,-1
 1204 1260 l 1,3,4
 1137 1076 1137 1076 1091 922 c 1,5,6
 1250 934 1250 934 1438 962 c 1,7,-1
 1442 952 l 1,8,9
 1375 862 1375 862 1348 789 c 1,10,11
 1204 817 1204 817 1066 829 c 1,12,13
 1052 774 1052 774 1041 722 c 0,14,15
 1030 668 1030 668 1021 614 c 1,16,17
 1181 625 1181 625 1373 654 c 1,18,-1
 1377 644 l 1,19,20
 1310 554 1310 554 1282 481 c 1,21,22
 1141 508 1141 508 1007 520 c 1,23,24
 990 382 990 382 986 236 c 1,25,26
 909 224 909 224 809 176 c 1,27,-1
 801 182 l 1,28,29
 870 368 870 368 915 526 c 1,30,31
 861 529 861 529 806 529 c 0,32,33
 755 529 755 529 700 527 c 1,34,35
 682 386 682 386 678 236 c 1,36,37
 601 224 601 224 501 176 c 1,38,-1
 493 182 l 1,39,40
 560 365 560 365 606 521 c 1,41,42
 448 509 448 509 258 481 c 1,43,-1
 254 491 l 1,44,45
 319 579 319 579 349 654 c 1,46,47
 493 626 493 626 631 614 c 1,48,49
 645 670 645 670 655 722 c 0,50,51
 666 775 666 775 676 829 c 1,52,53
 517 818 517 818 324 789 c 1,54,-1
 320 799 l 1,55,56
 385 887 385 887 414 962 c 1,57,58
 555 935 555 935 690 923 c 1,59,60
 707 1060 707 1060 710 1206 c 1,61,62
 789 1220 789 1220 887 1266 c 1,63,-1
 896 1260 l 1,64,65
 827 1073 827 1073 782 917 c 1,66,67
 836 914 836 914 889 914 c 0,68,69
 941 914 941 914 997 916 c 1,70,71
 1014 1056 1014 1056 1018 1206 c 1,0,1
985 834 m 1,72,73
 928 837 928 837 872 837 c 0,74,75
 818 837 818 837 759 834 c 1,76,77
 745 776 745 776 733 722 c 0,78,79
 721 666 721 666 711 609 c 1,80,81
 767 606 767 606 824 606 c 0,82,83
 878 606 878 606 937 609 c 1,84,85
 952 668 952 668 963 722 c 0,86,87
 975 778 975 778 985 834 c 1,72,73
EndSplineSet
Validated: 1
EndChar

StartChar: percent
Encoding: 37 37 7
Width: 1547
GlyphClass: 2
Flags: W
HStem: 0 21G<440.5 496 1062.5 1165.5> 1490 20G<697 811 1413 1468.5>
VStem: 394 94<1109.95 1274.96> 887 94<262.952 427.964 1081.89 1251.08> 1381 93<234.887 404.077>
LayerCount: 2
Fore
SplineSet
1115 0 m 1,0,-1
 1105 0 l 1,1,2
 1020 38 1020 38 961 99 c 0,3,4
 887 175 887 175 887 272 c 0,5,6
 887 301 887 301 894 332 c 0,7,8
 920 456 920 456 1040 551 c 0,9,10
 1134 626 1134 626 1246 663 c 1,11,-1
 1256 663 l 1,12,13
 1352 626 1352 626 1414 551 c 0,14,15
 1474 479 1474 479 1474 391 c 0,16,17
 1474 362 1474 362 1468 332 c 0,18,19
 1440 200 1440 200 1301 99 c 0,20,21
 1216 38 1216 38 1115 0 c 1,0,-1
1297 122 m 1,22,23
 1358 174 1358 174 1378 269 c 0,24,25
 1381 284 1381 284 1381 298 c 0,26,27
 1381 390 1381 390 1256 473 c 8,28,29
 1184 521 1184 521 1065 543 c 1,30,31
 1004 491 1004 491 984 396 c 0,32,33
 981 381 981 381 981 367 c 0,34,35
 981 275 981 275 1107 192 c 8,36,37
 1179 144 1179 144 1297 122 c 1,22,23
763 1510 m 1,38,39
 859 1473 859 1473 921 1398 c 0,40,41
 981 1326 981 1326 981 1238 c 0,42,43
 981 1209 981 1209 975 1179 c 0,44,45
 947 1047 947 1047 808 946 c 0,46,47
 723 885 723 885 622 847 c 1,48,-1
 612 847 l 1,49,50
 527 885 527 885 468 946 c 0,51,52
 394 1022 394 1022 394 1119 c 0,53,54
 394 1148 394 1148 401 1179 c 0,55,56
 427 1303 427 1303 547 1398 c 0,57,58
 641 1473 641 1473 753 1510 c 1,59,-1
 763 1510 l 1,38,39
572 1390 m 1,60,61
 511 1338 511 1338 491 1243 c 0,62,63
 488 1228 488 1228 488 1214 c 0,64,65
 488 1122 488 1122 614 1039 c 8,66,67
 686 991 686 991 804 969 c 1,68,69
 865 1021 865 1021 885 1116 c 0,70,71
 888 1131 888 1131 888 1145 c 0,72,73
 888 1237 888 1237 763 1320 c 8,74,75
 690 1368 690 1368 572 1390 c 1,60,61
496 6 m 1,76,-1
 485 0 l 1,77,78
 396 58 396 58 312 82 c 1,79,80
 591 390 591 390 933 830 c 0,81,82
 1189 1160 1189 1160 1413 1504 c 1,83,-1
 1424 1510 l 1,84,85
 1513 1452 1513 1452 1597 1428 c 1,86,87
 1258 1063 1258 1063 1031 772 c 0,88,89
 687 331 687 331 496 6 c 1,76,-1
EndSplineSet
Validated: 1
EndChar

StartChar: ampersand
Encoding: 38 38 8
Width: 1318
VWidth: 0
GlyphClass: 2
Flags: W
HStem: 0 21G<483.5 685 967 1053> 1490 20G<835 972>
VStem: 223 175<332.406 613.875> 446 157<1020.3 1210.34> 1119 202<631.074 837.436>
LayerCount: 2
Fore
SplineSet
903 221 m 1,0,1
 789 562 789 562 621 825 c 1,2,3
 435 736 435 736 406 573 c 0,4,5
 398 529 398 529 398 491 c 0,6,7
 398 386 398 386 454 315 c 0,8,9
 578 162 578 162 822 124 c 1,10,11
 869 170 869 170 903 221 c 1,0,1
587 0 m 1,12,13
 380 84 380 84 277 253 c 0,14,15
 223 342 223 342 223 439 c 0,16,17
 223 467 223 467 227 495 c 0,18,19
 269 755 269 755 601 837 c 1,20,-1
 578 850 l 2,21,22
 446 925 446 925 446 1051 c 0,23,24
 446 1073 446 1073 450 1096 c 0,25,26
 474 1238 474 1238 602 1337 c 0,27,28
 762 1461 762 1461 908 1510 c 1,29,-1
 918 1510 l 1,30,31
 1026 1471 1026 1471 1116 1381 c 0,32,33
 1178 1319 1178 1319 1189 1247 c 1,34,-1
 1184 1235 l 1,35,36
 1078 1219 1078 1219 1000 1172 c 1,37,38
 985 1233 985 1233 925 1281 c 0,39,40
 819 1365 819 1365 700 1387 c 1,41,42
 634 1312 634 1312 609 1196 c 0,43,44
 603 1167 603 1167 603 1140 c 0,45,46
 603 1046 603 1046 680 987 c 0,47,48
 727 951 727 951 801 925 c 1,49,50
 891 605 891 605 1023 358 c 1,51,52
 1085 461 1085 461 1109 573 c 0,53,54
 1119 622 1119 622 1119 669 c 0,55,56
 1119 758 1119 758 1082 840 c 1,57,58
 1180 859 1180 859 1312 927 c 1,59,-1
 1321 921 l 1,60,61
 1321 917 1321 917 1321 913 c 0,62,63
 1321 814 1321 814 1298 707 c 0,64,65
 1250 482 1250 482 1062 305 c 1,66,67
 1141 192 1141 192 1238 92 c 1,68,69
 1130 79 1130 79 976 0 c 1,70,-1
 967 6 l 1,71,72
 947 107 947 107 918 170 c 1,73,74
 773 61 773 61 597 0 c 1,75,-1
 587 0 l 1,12,13
EndSplineSet
Validated: 1
EndChar

StartChar: quotesingle
Encoding: 39 39 9
Width: 288
GlyphClass: 2
Flags: W
HStem: 1108 442
VStem: 391 154<1280.39 1522.5>
LayerCount: 2
Fore
SplineSet
535 1550 m 1,0,-1
 544 1544 l 1,1,2
 545 1530 545 1530 545 1515 c 0,3,4
 545 1443 545 1443 528 1365 c 0,5,6
 507 1264 507 1264 428 1166 c 1,7,8
 369 1151 369 1151 298 1108 c 1,9,-1
 289 1114 l 1,10,11
 363 1210 363 1210 383 1304 c 0,12,13
 391 1340 391 1340 391 1372 c 0,14,15
 391 1432 391 1432 364 1478 c 1,16,17
 441 1502 441 1502 535 1550 c 1,0,-1
EndSplineSet
Validated: 1
EndChar

StartChar: parenleft
Encoding: 40 40 10
Width: 866
GlyphClass: 2
Flags: W
VStem: 268 169<240.169 749.273>
LayerCount: 2
Fore
SplineSet
1232 1771 m 1,0,-1
 1230 1761 l 1,1,2
 874 1559 874 1559 680 1253 c 0,3,4
 521 1002 521 1002 460 713 c 0,5,6
 437 606 437 606 437 505 c 0,7,8
 437 354 437 354 489 219 c 0,9,10
 573 0 573 0 790 -162 c 1,11,-1
 580 -273 l 1,12,13
 405 -107 405 -107 324 111 c 0,14,15
 268 259 268 259 268 431 c 0,16,17
 268 554 268 554 297 690 c 0,18,19
 365 1010 365 1010 570 1281 c 0,20,21
 838 1635 838 1635 1232 1771 c 1,0,-1
EndSplineSet
Validated: 1
EndChar

StartChar: parenright
Encoding: 41 41 11
Width: 866
GlyphClass: 2
Flags: W
VStem: 748 169<748.472 1257.91>
LayerCount: 2
Fore
SplineSet
604 1771 m 1,0,1
 779 1605 779 1605 861 1387 c 0,2,3
 917 1239 917 1239 917 1067 c 0,4,5
 917 944 917 944 888 808 c 0,6,7
 819 485 819 485 614 217 c 0,8,9
 346 -137 346 -137 -48 -273 c 1,10,-1
 -46 -263 l 1,11,12
 310 -61 310 -61 504 245 c 0,13,14
 663 496 663 496 725 785 c 0,15,16
 748 894 748 894 748 994 c 0,17,18
 748 1145 748 1145 696 1279 c 0,19,20
 611 1499 611 1499 395 1660 c 1,21,-1
 604 1771 l 1,0,1
EndSplineSet
Validated: 1
EndChar

StartChar: asterisk
Encoding: 42 42 12
Width: 950
GlyphClass: 2
Flags: W
LayerCount: 2
Fore
SplineSet
885 1550 m 1,0,-1
 893 1546 l 1,1,2
 820 1378 820 1378 783 1242 c 1,3,4
 894 1309 894 1309 1002 1399 c 1,5,6
 1041 1341 1041 1341 1124 1287 c 1,7,-1
 1121 1278 l 1,8,9
 945 1226 945 1226 810 1164 c 1,10,11
 919 1102 919 1102 1072 1050 c 1,12,-1
 1071 1041 l 1,13,14
 966 987 966 987 902 929 c 1,15,16
 833 1018 833 1018 751 1084 c 1,17,18
 741 1008 741 1008 741 931 c 0,19,20
 741 890 741 890 744 847 c 1,21,22
 666 832 666 832 559 778 c 1,23,-1
 552 782 l 1,24,25
 625 950 625 950 661 1086 c 1,26,27
 550 1019 550 1019 442 929 c 1,28,29
 404 987 404 987 321 1041 c 1,30,-1
 323 1050 l 1,31,32
 499 1102 499 1102 633 1164 c 1,33,34
 524 1226 524 1226 372 1278 c 1,35,-1
 374 1287 l 1,36,37
 479 1341 479 1341 542 1399 c 1,38,39
 611 1310 611 1310 693 1244 c 1,40,41
 703 1323 703 1323 703 1405 c 0,42,43
 703 1443 703 1443 701 1481 c 1,44,45
 780 1496 780 1496 885 1550 c 1,0,-1
EndSplineSet
Validated: 1
EndChar

StartChar: plus
Encoding: 43 43 13
Width: 1266
GlyphClass: 2
Flags: W
HStem: 635 222<399.354 557.85 1025.15 1183.65> 692 109<460.016 726 857 1117.86>
LayerCount: 2
Fore
SplineSet
995 1229 m 9,0,-1
 1004 1223 l 1,1,2
 901 985 901 985 857 800 c 1,3,4
 1043 805 1043 805 1292 857 c 1,5,-1
 1296 847 l 1,6,7
 1203 729 1203 729 1164 635 c 1,8,9
 1000 683 1000 683 835 691 c 1,10,11
 815 569 815 569 815 444 c 0,12,13
 815 397 815 397 818 350 c 1,14,15
 720 331 720 331 588 263 c 1,16,-1
 579 269 l 1,17,18
 682 507 682 507 726 692 c 1,19,20
 540 687 540 687 291 635 c 1,21,-1
 287 645 l 1,22,23
 380 763 380 763 419 857 c 1,24,25
 583 809 583 809 748 801 c 1,26,27
 768 923 768 923 768 1048 c 0,28,29
 768 1095 768 1095 765 1142 c 1,30,31
 863 1161 863 1161 995 1229 c 9,0,-1
EndSplineSet
Validated: 1
EndChar

StartChar: comma
Encoding: 44 44 14
Width: 367
GlyphClass: 2
Flags: W
HStem: -222 519
VStem: 79 266<38.0332 224.922>
LayerCount: 2
Fore
SplineSet
239 297 m 1,0,-1
 245 297 l 1,1,2
 289 281 289 281 316 247 c 0,3,4
 345 210 345 210 345 157 c 0,5,6
 345 132 345 132 339 104 c 0,7,8
 292 -116 292 -116 -7 -222 c 1,9,-1
 -4 -206 l 1,10,11
 154 -102 154 -102 176 0 c 1,12,13
 138 17 138 17 111 44 c 0,14,15
 79 78 79 78 79 121 c 0,16,17
 79 134 79 134 82 149 c 0,18,19
 94 205 94 205 148 247 c 0,20,21
 193 282 193 282 239 297 c 1,0,-1
EndSplineSet
Validated: 1
EndChar

StartChar: hyphen
Encoding: 45 45 15
Width: 1266
GlyphClass: 2
Flags: W
HStem: 635 222<399.354 555.286 1027.71 1183.65> 693 106<471.71 1111.29>
LayerCount: 2
Fore
SplineSet
419 857 m 1,0,1
 617 799 617 799 816.5 799 c 128,-1,2
 1016 799 1016 799 1292 857 c 1,3,-1
 1296 847 l 1,4,5
 1203 729 1203 729 1164 635 c 1,6,7
 966 693 966 693 766.5 693 c 128,-1,8
 567 693 567 693 291 635 c 1,9,-1
 287 645 l 1,10,11
 380 763 380 763 419 857 c 1,0,1
EndSplineSet
Validated: 1
EndChar

StartChar: period
Encoding: 46 46 16
Width: 358
GlyphClass: 2
Flags: W
HStem: 0 297
VStem: 79 264<74.0195 225.125>
LayerCount: 2
Fore
SplineSet
182 0 m 1,0,-1
 176 0 l 1,1,2
 138 17 138 17 111 44 c 0,3,4
 79 78 79 78 79 121 c 0,5,6
 79 134 79 134 82 149 c 0,7,8
 94 205 94 205 148 247 c 0,9,10
 189 281 189 281 239 297 c 1,11,-1
 245 297 l 1,12,13
 289 281 289 281 316 247 c 0,14,15
 343 215 343 215 343 176 c 0,16,17
 343 163 343 163 340 149 c 0,18,19
 327 90 327 90 265 44 c 0,20,21
 228 17 228 17 182 0 c 1,0,-1
EndSplineSet
Validated: 1
EndChar

StartChar: slash
Encoding: 47 47 17
Width: 1076
GlyphClass: 2
Flags: W
LayerCount: 2
Fore
SplineSet
179 -144 m 1,0,-1
 168 -150 l 1,1,2
 79 -92 79 -92 -4 -68 c 1,3,4
 366 369 366 369 695 835 c 0,5,6
 1019 1293 1019 1293 1218 1654 c 1,7,-1
 1229 1660 l 1,8,9
 1318 1602 1318 1602 1401 1578 c 1,10,11
 1090 1195 1090 1195 793 777 c 0,12,13
 445 288 445 288 179 -144 c 1,0,-1
EndSplineSet
Validated: 1
EndChar

StartChar: zero
Encoding: 48 48 18
Width: 1354
VWidth: 0
GlyphClass: 2
Flags: W
HStem: 0 21G<567 807.5> 1490 20G<869.5 1107>
VStem: 260 185<466.301 840.573> 1230 185<669.712 1043.7>
LayerCount: 2
Fore
SplineSet
942 145 m 1,0,1
 1151 399 1151 399 1215 699 c 0,2,3
 1230 769 1230 769 1230 835 c 0,4,5
 1230 1026 1230 1026 1102 1174 c 0,6,7
 971 1326 971 1326 733 1365 c 1,8,9
 524 1111 524 1111 460 811 c 0,10,11
 445 741 445 741 445 675 c 0,12,13
 445 484 445 484 573 336 c 8,14,15
 704 184 704 184 942 145 c 1,0,1
672 0 m 1,16,17
 462 90 462 90 353 260 c 0,18,19
 260 404 260 404 260 583 c 0,20,21
 260 663 260 663 279 750 c 0,22,23
 337 1021 337 1021 575 1257 c 0,24,25
 746 1427 746 1427 993 1510 c 1,26,-1
 1003 1510 l 1,27,28
 1211 1422 1211 1422 1322 1250 c 0,29,30
 1415 1106 1415 1106 1415 927 c 0,31,32
 1415 847 1415 847 1396 760 c 0,33,34
 1339 491 1339 491 1100 253 c 0,35,36
 933 86 933 86 682 0 c 1,37,-1
 672 0 l 1,16,17
EndSplineSet
Validated: 1
EndChar

StartChar: one
Encoding: 49 49 19
Width: 773
GlyphClass: 2
Flags: W
HStem: 0 21G<327 409> 1490 20G<808.5 893>
VStem: 225 668
LayerCount: 2
Fore
SplineSet
336 0 m 1,0,-1
 327 6 l 1,1,2
 452 387 452 387 525 730 c 0,3,4
 581 995 581 995 618 1269 c 1,5,6
 466 1137 466 1137 367 946 c 1,7,8
 322 994 322 994 225 1013 c 1,9,10
 227 1023 l 1,11,12
 476 1192 476 1192 630 1418 c 1,13,14
 733 1432 733 1432 884 1510 c 1,15,-1
 893 1504 l 1,16,17
 771 1142 771 1142 694 782 c 0,18,19
 620 433 620 433 590 92 c 1,20,21
 482 76 482 76 336 0 c 1,0,-1
EndSplineSet
Validated: 1
EndChar

StartChar: four
Encoding: 52 52 20
Width: 1140
GlyphClass: 2
Flags: W
HStem: 0 21G<694 776> 377 70<296.96 795.896> 1490 20G<1173.5 1260>
DStem2: 800 354 1260 1504 0.262708 0.964875<111.065 611.636>
LayerCount: 2
Fore
SplineSet
703 0 m 1,0,-1
 694 6 l 1,1,2
 767 217 767 217 800 354 c 1,3,4
 669 377 669 377 495 377 c 0,5,6
 311 377 311 377 118 331 c 1,7,-1
 111 338 l 1,8,9
 111 390 111 390 103 439 c 1,10,11
 575 871 575 871 997 1418 c 1,12,13
 1096 1430 1096 1430 1251 1510 c 1,14,-1
 1260 1504 l 1,15,16
 1134 1125 1134 1125 1061 782 c 0,17,18
 988 438 988 438 957 92 c 1,19,20
 849 77 849 77 703 0 c 1,0,-1
834 480 m 1,21,22
 917 872 917 872 982 1251 c 1,23,24
 577 862 577 862 292 471 c 1,25,26
 423 447 423 447 567 447 c 0,27,28
 701 447 701 447 834 480 c 1,21,22
EndSplineSet
Validated: 1
EndChar

StartChar: six
Encoding: 54 54 21
Width: 1288
VWidth: 0
GlyphClass: 2
Flags: W
HStem: 0 21G<568 797.5> 779 183<864.303 988.763> 1490 20G<869.5 1107>
VStem: 260 185<466.301 840.288> 1116 182<459.57 671.945>
LayerCount: 2
Fore
SplineSet
682 0 m 1,0,-1
 672 0 l 1,1,2
 464 88 464 88 353 260 c 0,3,4
 260 404 260 404 260 583 c 0,5,6
 260 663 260 663 279 750 c 0,7,8
 336 1019 336 1019 575 1257 c 0,9,10
 746 1427 746 1427 993 1510 c 1,11,-1
 1003 1510 l 1,12,13
 1211 1422 1211 1422 1323 1249 c 1,14,-1
 1317 1238 l 1,15,16
 1189 1226 1189 1226 1102 1174 c 1,17,18
 971 1326 971 1326 733 1365 c 1,19,20
 524 1111 524 1111 460 811 c 0,21,22
 445 741 445 741 445 675 c 0,23,24
 445 484 445 484 573 336 c 0,25,26
 704 184 704 184 942 145 c 1,27,28
 1069 284 1069 284 1109 474 c 0,29,30
 1116 508 1116 508 1116 539 c 0,31,32
 1116 633 1116 633 1049 697 c 0,33,34
 978 765 978 765 779 779 c 1,35,-1
 775 789 l 1,36,37
 836 866 836 866 890 962 c 1,38,39
 1086 960 1086 960 1206 856 c 0,40,41
 1298 777 1298 777 1298 649 c 0,42,43
 1298 611 1298 611 1290 568 c 0,44,45
 1257 399 1257 399 1100 253 c 0,46,47
 913 78 913 78 682 0 c 1,0,-1
EndSplineSet
Validated: 1
EndChar

StartChar: seven
Encoding: 55 55 22
Width: 988
GlyphClass: 2
Flags: W
HStem: 0 21G<165 251.5> 1383 71<517 960.993> 1490 20G<412.5 517 1155 1288>
LayerCount: 2
Fore
SplineSet
174 0 m 1,0,-1
 165 6 l 1,1,2
 716 814 716 814 964 1365 c 1,3,4
 868 1383 868 1383 744 1383 c 0,5,6
 536 1383 536 1383 293 1258 c 1,7,-1
 290 1268 l 1,8,9
 392 1394 392 1394 433 1510 c 1,10,11
 601 1454 601 1454 769 1454 c 0,12,13
 1031 1454 1031 1454 1279 1510 c 1,14,-1
 1288 1504 l 1,15,16
 830 860 830 860 469 95 c 1,17,18
 329 80 329 80 174 0 c 1,0,-1
EndSplineSet
Validated: 1
EndChar

StartChar: eight
Encoding: 56 56 23
Width: 1144
VWidth: 0
GlyphClass: 2
Flags: W
HStem: 0 21G<460 702.5> 1490 20G<807 950.5>
VStem: 200 176<332.516 600.756> 428 157<1047.95 1213.7> 977 183<411.26 628.847> 1005 166<1074.13 1264.22>
DStem2: 695 996 567 856 0.867883 -0.496768<-139.915 -15.1222 -14.6075 210.2 212.222 436.669>
LayerCount: 2
Fore
SplineSet
567 0 m 1,0,1
 353 87 353 87 257 253 c 0,2,3
 200 352 200 352 200 442 c 0,4,5
 200 469 200 469 205 496 c 0,6,7
 255 737 255 737 590 843 c 1,8,-1
 567 856 l 2,9,10
 428 934 428 934 428 1064 c 0,11,12
 428 1080 428 1080 430 1096 c 0,13,14
 448 1226 448 1226 582 1337 c 0,15,16
 726 1456 726 1456 888 1510 c 1,17,-1
 898 1510 l 1,18,19
 1003 1472 1003 1472 1096 1381 c 0,20,21
 1171 1307 1171 1307 1171 1218 c 0,22,23
 1171 1195 1171 1195 1166 1170 c 0,24,25
 1142 1053 1142 1053 1021 970 c 0,26,27
 945 918 945 918 880 892 c 1,28,-1
 967 843 l 2,29,30
 1160 734 1160 734 1160 575 c 0,31,32
 1160 545 1160 545 1153 514 c 0,33,34
 1125 383 1125 383 995 253 c 0,35,36
 828 87 828 87 577 0 c 1,37,-1
 567 0 l 1,0,1
865 900 m 1,38,39
 978 987 978 987 1000 1094 c 0,40,41
 1005 1120 1005 1120 1005 1144 c 0,42,43
 1005 1234 1005 1234 929 1296 c 0,44,45
 823 1380 823 1380 704 1402 c 1,46,47
 609 1296 609 1296 589 1196 c 0,48,49
 585 1176 585 1176 585 1157 c 0,50,51
 585 1058 585 1058 695 996 c 2,52,-1
 865 900 l 1,38,39
610 831 m 1,53,54
 418 723 418 723 386 573 c 0,55,56
 376 526 376 526 376 484 c 0,57,58
 376 383 376 383 434 315 c 0,59,60
 565 161 565 161 802 124 c 1,61,62
 911 240 911 240 960 391 c 0,63,64
 977 443 977 443 977 501 c 0,65,66
 977 621 977 621 864 686 c 2,67,-1
 610 831 l 1,53,54
EndSplineSet
Validated: 1
EndChar

StartChar: nine
Encoding: 57 57 24
Width: 1288
VWidth: 0
GlyphClass: 2
Flags: W
HStem: 0 21G<502 739.5> 548 183<620.237 744.697> 1490 20G<811.5 1041>
VStem: 311 182<838.055 1050.43> 1164 185<669.712 1043.7>
LayerCount: 2
Fore
SplineSet
616 0 m 1,0,-1
 606 0 l 1,1,2
 398 88 398 88 285 261 c 1,3,-1
 292 272 l 1,4,5
 420 284 420 284 507 336 c 1,6,7
 638 184 638 184 876 145 c 1,8,9
 1085 399 1085 399 1149 699 c 0,10,11
 1164 769 1164 769 1164 835 c 0,12,13
 1164 1026 1164 1026 1036 1174 c 0,14,15
 905 1326 905 1326 667 1365 c 1,16,17
 540 1226 540 1226 500 1036 c 0,18,19
 493 1002 493 1002 493 971 c 0,20,21
 493 877 493 877 560 813 c 0,22,23
 631 745 631 745 830 731 c 1,24,-1
 834 721 l 1,25,26
 773 644 773 644 719 548 c 1,27,28
 523 550 523 550 403 654 c 0,29,30
 311 733 311 733 311 861 c 0,31,32
 311 899 311 899 319 942 c 0,33,34
 352 1111 352 1111 509 1257 c 0,35,36
 696 1432 696 1432 927 1510 c 1,37,-1
 937 1510 l 1,38,39
 1145 1422 1145 1422 1256 1250 c 0,40,41
 1349 1106 1349 1106 1349 927 c 0,42,43
 1349 847 1349 847 1330 760 c 0,44,45
 1273 491 1273 491 1034 253 c 0,46,47
 863 83 863 83 616 0 c 1,0,-1
EndSplineSet
Validated: 1
EndChar

StartChar: colon
Encoding: 58 58 25
Width: 358
GlyphClass: 2
Flags: W
HStem: 0 21G<157 205>
VStem: 79 264<74.0195 225.125> 208 264<681.02 832.125>
LayerCount: 2
Fore
SplineSet
374 904 m 1,0,1
 418 888 418 888 445 854 c 0,2,3
 472 822 472 822 472 783 c 0,4,5
 472 770 472 770 469 756 c 0,6,7
 456 697 456 697 394 651 c 0,8,9
 356 624 356 624 311 607 c 1,10,-1
 305 607 l 1,11,12
 267 624 267 624 240 651 c 0,13,14
 208 685 208 685 208 728 c 0,15,16
 208 741 208 741 211 756 c 0,17,18
 223 812 223 812 277 854 c 0,19,20
 318 888 318 888 368 904 c 1,21,-1
 374 904 l 1,0,1
182 0 m 1,22,-1
 176 0 l 1,23,24
 138 17 138 17 111 44 c 0,25,26
 79 78 79 78 79 121 c 0,27,28
 79 134 79 134 82 149 c 0,29,30
 94 205 94 205 148 247 c 0,31,32
 189 281 189 281 239 297 c 1,33,-1
 245 297 l 1,34,35
 289 281 289 281 316 247 c 0,36,37
 343 215 343 215 343 176 c 0,38,39
 343 163 343 163 340 149 c 0,40,41
 327 90 327 90 265 44 c 0,42,43
 228 17 228 17 182 0 c 1,22,-1
EndSplineSet
Validated: 1
EndChar

StartChar: semicolon
Encoding: 59 59 26
Width: 367
GlyphClass: 2
Flags: W
VStem: 79 266<38.0332 224.922> 208 264<680.16 831>
LayerCount: 2
Fore
SplineSet
239 297 m 1,0,-1
 245 297 l 1,1,2
 289 281 289 281 316 247 c 0,3,4
 345 210 345 210 345 157 c 0,5,6
 345 132 345 132 339 104 c 0,7,8
 292 -116 292 -116 -7 -222 c 1,9,-1
 -4 -206 l 1,10,11
 154 -102 154 -102 176 0 c 1,12,13
 138 17 138 17 111 44 c 0,14,15
 79 78 79 78 79 121 c 0,16,17
 79 134 79 134 82 149 c 0,18,19
 94 205 94 205 148 247 c 0,20,21
 193 282 193 282 239 297 c 1,0,-1
374 904 m 1,22,23
 418 888 418 888 445 854 c 0,24,25
 472 822 472 822 472 783 c 0,26,27
 472 770 472 770 469 756 c 0,28,29
 456 695 456 695 394 651 c 0,30,31
 356 624 356 624 311 607 c 1,32,-1
 305 607 l 1,33,34
 267 624 267 624 240 651 c 0,35,36
 208 685 208 685 208 728 c 0,37,38
 208 741 208 741 211 756 c 0,39,40
 222 809 222 809 277 854 c 0,41,42
 318 888 318 888 368 904 c 1,43,-1
 374 904 l 1,22,23
EndSplineSet
Validated: 1
EndChar

StartChar: less
Encoding: 60 60 27
Width: 1316
GlyphClass: 2
Flags: W
LayerCount: 2
Fore
SplineSet
1377 1254 m 1,0,-1
 1380 1244 l 1,1,2
 1320 1169 1320 1169 1275 1088 c 1,3,4
 864 961 864 961 493 764 c 1,5,6
 747 531 747 531 1208 444 c 1,7,-1
 1211 434 l 1,8,9
 1103 307 1103 307 1079 237 c 1,10,11
 748 518 748 518 291 635 c 1,12,-1
 287 645 l 1,13,14
 380 763 380 763 419 857 c 1,15,16
 883 981 883 981 1377 1254 c 1,0,-1
EndSplineSet
Validated: 1
EndChar

StartChar: equal
Encoding: 61 61 28
Width: 1266
GlyphClass: 2
Flags: W
HStem: 460 222<362.354 518.286 990.714 1146.65> 518 106<434.71 1074.29> 810 222<436.354 592.286 1064.71 1220.65> 868 106<508.71 1148.29>
LayerCount: 2
Fore
SplineSet
254 460 m 1,0,-1
 250 470 l 1,1,2
 343 588 343 588 382 682 c 1,3,4
 580 624 580 624 779.5 624 c 128,-1,5
 979 624 979 624 1255 682 c 1,6,-1
 1259 672 l 1,7,8
 1166 554 1166 554 1127 460 c 1,9,10
 929 518 929 518 729.5 518 c 128,-1,11
 530 518 530 518 254 460 c 1,0,-1
328 810 m 1,12,-1
 324 820 l 1,13,14
 417 938 417 938 456 1032 c 1,15,16
 654 974 654 974 853.5 974 c 128,-1,17
 1053 974 1053 974 1329 1032 c 1,18,-1
 1333 1022 l 1,19,20
 1240 904 1240 904 1201 810 c 1,21,22
 1003 868 1003 868 803.5 868 c 128,-1,23
 604 868 604 868 328 810 c 1,12,-1
EndSplineSet
Validated: 1
EndChar

StartChar: greater
Encoding: 62 62 29
Width: 1316
GlyphClass: 2
Flags: W
LayerCount: 2
Fore
SplineSet
554 1254 m 1,0,1
 885 973 885 973 1342 856 c 1,2,-1
 1346 846 l 1,3,4
 1253 728 1253 728 1214 634 c 1,5,6
 750 510 750 510 256 237 c 1,7,-1
 253 247 l 1,8,9
 313 322 313 322 358 403 c 1,10,11
 769 530 769 530 1140 727 c 1,12,13
 886 960 886 960 425 1047 c 1,14,-1
 422 1057 l 1,15,16
 530 1184 530 1184 554 1254 c 1,0,1
EndSplineSet
Validated: 1
EndChar

StartChar: question
Encoding: 63 63 30
Width: 1229
GlyphClass: 2
Flags: W
HStem: 0 21G<529 577> 1490 20G<790.5 1036.5>
VStem: 367 170<957.107 1148.4> 451 264<74.0195 225.125> 574 85<378.035 502.123> 1108 198<932.656 1165.75>
LayerCount: 2
Fore
SplineSet
554 0 m 1,0,-1
 548 0 l 1,1,2
 510 17 510 17 483 44 c 0,3,4
 451 78 451 78 451 121 c 0,5,6
 451 134 451 134 454 149 c 0,7,8
 466 205 466 205 520 247 c 0,9,10
 561 281 561 281 611 297 c 1,11,-1
 617 297 l 1,12,13
 661 281 661 281 688 247 c 0,14,15
 715 215 715 215 715 176 c 0,16,17
 715 163 715 163 712 149 c 0,18,19
 699 90 699 90 637 44 c 0,20,21
 600 17 600 17 554 0 c 1,0,-1
906 1510 m 1,22,-1
 916 1510 l 1,23,24
 1157 1423 1157 1423 1263 1257 c 0,25,26
 1306 1189 1306 1189 1306 1105 c 0,27,28
 1306 1068 1306 1068 1298 1028 c 0,29,30
 1261 853 1261 853 1035 717 c 2,31,-1
 796 572 l 2,32,33
 672 497 672 497 660 445 c 0,34,35
 659 440 659 440 659 434 c 0,36,37
 659 418 659 418 668 403 c 1,38,39
 632 390 632 390 593 362 c 1,40,-1
 583 366 l 1,41,42
 574 387 574 387 574 410 c 0,43,44
 574 422 574 422 576 434 c 0,45,46
 593 515 593 515 712 610 c 2,47,-1
 960 810 l 2,48,49
 1084 910 1084 910 1104 1004 c 0,50,51
 1108 1025 1108 1025 1108 1045 c 0,52,53
 1108 1116 1108 1116 1053 1180 c 0,54,55
 940 1310 940 1310 670 1365 c 1,56,57
 568 1266 568 1266 542 1141 c 0,58,59
 537 1120 537 1120 537 1101 c 0,60,61
 537 1011 537 1011 639 974 c 1,62,63
 542 957 542 957 395 883 c 1,64,-1
 386 889 l 1,65,66
 367 934 367 934 367 986 c 0,67,68
 367 1018 367 1018 374 1052 c 0,69,70
 398 1165 398 1165 505 1263 c 0,71,72
 675 1415 675 1415 906 1510 c 1,22,-1
EndSplineSet
Validated: 1
EndChar

StartChar: at
Encoding: 64 64 31
Width: 1259
GlyphClass: 2
Flags: W
HStem: -380 21G<486 668.5> 0 167<673.23 758.58> 662 10<841.781 858> 1110 20G<827 1010.5>
VStem: 180 153<84.6162 465.628> 461 146<234.061 465.306> 1074 153<435.183 853.728>
LayerCount: 2
Fore
SplineSet
912 0 m 1,0,-1
 903 6 l 1,1,2
 941 105 941 105 972 200 c 1,3,4
 835 62 835 62 656 0 c 1,5,-1
 646 0 l 1,6,7
 547 68 547 68 492 165 c 0,8,9
 461 219 461 219 461 287 c 0,10,11
 461 323 461 323 470 364 c 0,12,13
 500 505 500 505 606 588 c 0,14,15
 713 672 713 672 860 672 c 1,16,-1
 858 662 l 1,17,18
 655 615 655 615 615 427 c 0,19,20
 607 392 607 392 607 361 c 0,21,22
 607 311 607 311 627 272 c 0,23,24
 680 167 680 167 796 167 c 0,25,26
 881 167 881 167 987 251 c 1,27,28
 1027 384 1027 384 1055 511 c 0,29,30
 1074 600 1074 600 1074 672 c 0,31,32
 1074 800 1074 800 1015 875 c 0,33,34
 917 1001 917 1001 702 1001 c 1,35,36
 421 776 421 776 348 431 c 0,37,38
 333 362 333 362 333 296 c 0,39,40
 333 98 333 98 470 -61 c 0,41,42
 615 -228 615 -228 842 -267 c 1,43,44
 736 -334 736 -334 601 -380 c 1,45,-1
 591 -380 l 1,46,47
 381 -290 381 -290 272 -120 c 0,48,49
 180 24 180 24 180 202 c 0,50,51
 180 283 180 283 199 372 c 0,52,53
 267 690 267 690 494 877 c 0,54,55
 712 1055 712 1055 942 1130 c 1,56,57
 1079 1080 1079 1080 1161 971 c 0,58,59
 1227 883 1227 883 1227 740 c 0,60,61
 1227 661 1227 661 1207 565 c 0,62,63
 1155 319 1155 319 1147 87 c 1,64,65
 1045 69 1045 69 912 0 c 1,0,-1
EndSplineSet
Validated: 1
EndChar

StartChar: A
Encoding: 65 65 32
Width: 1285
GlyphClass: 2
Flags: W
HStem: 0 21G<6 68.5 1044 1130> 499 73<469.218 1012.53> 1490 20G<1000.5 1086>
LayerCount: 2
Fore
SplineSet
15 0 m 1,0,-1
 6 6 l 1,1,2
 488 691 488 691 815 1418 c 1,3,4
 924 1431 924 1431 1077 1510 c 1,5,-1
 1086 1504 l 1,6,7
 1128 735 1128 735 1300 92 c 1,8,9
 1207 79 1207 79 1053 0 c 1,10,-1
 1044 6 l 1,11,12
 1044 247 1044 247 1027 487 c 1,13,14
 881 499 881 499 714 499 c 0,15,16
 566 499 566 499 410 478 c 1,17,18
 312 281 312 281 228 83 c 1,19,20
 122 57 122 57 15 0 c 1,0,-1
880 1301 m 1,21,22
 648 936 648 936 465 587 c 1,23,24
 600 572 600 572 733 572 c 0,25,26
 874 572 874 572 1017 585 c 1,27,28
 980 960 980 960 880 1301 c 1,21,22
EndSplineSet
Validated: 1
EndChar

StartChar: C
Encoding: 67 67 33
Width: 1217
VWidth: 0
GlyphClass: 2
Flags: W
HStem: 0 213<672 794.383> 1490 20G<869.5 1107>
VStem: 260 185<466.301 840.573>
LayerCount: 2
Fore
SplineSet
672 0 m 1,0,1
 462 90 462 90 353 260 c 0,2,3
 260 404 260 404 260 583 c 0,4,5
 260 663 260 663 279 750 c 0,6,7
 337 1021 337 1021 575 1257 c 0,8,9
 746 1427 746 1427 993 1510 c 1,10,-1
 1003 1510 l 1,11,12
 1211 1422 1211 1422 1323 1249 c 1,13,-1
 1317 1238 l 1,14,15
 1189 1226 1189 1226 1102 1174 c 1,16,17
 971 1326 971 1326 733 1365 c 1,18,19
 524 1111 524 1111 460 811 c 0,20,21
 445 741 445 741 445 675 c 0,22,23
 445 484 445 484 573 336 c 0,24,25
 682 213 682 213 850 213 c 128,-1,26
 1018 213 1018 213 1185 361 c 1,27,-1
 1192 355 l 1,28,29
 992 104 992 104 682 0 c 1,30,-1
 672 0 l 1,0,1
EndSplineSet
Validated: 1
EndChar

StartChar: E
Encoding: 69 69 34
Width: 1099
GlyphClass: 2
Flags: W
HStem: 0 21G<181 298.5 875.5 976> 45 71<458.906 843.75> 700 73<554 811.075> 1490 20G<669 803.5 1212.5 1300>
LayerCount: 2
Fore
SplineSet
190 0 m 1,0,-1
 181 6 l 1,1,2
 301 364 301 364 379 730 c 0,3,4
 450 1064 450 1064 484 1418 c 1,5,6
 592 1431 592 1431 746 1510 c 1,7,8
 861 1443 861 1443 999 1443 c 0,9,10
 1129 1443 1129 1443 1296 1510 c 1,11,-1
 1300 1500 l 1,12,13
 1195 1368 1195 1368 1156 1258 c 1,14,15
 1013 1267 1013 1267 911 1321 c 0,16,17
 810 1373 810 1373 746 1478 c 1,18,19
 631 1133 631 1133 554 773 c 1,20,21
 784 773 784 773 1059 898 c 1,22,-1
 1063 888 l 1,23,24
 958 756 958 756 919 646 c 1,25,26
 733 700 733 700 540 700 c 1,27,28
 480 401 480 401 455 135 c 1,29,30
 535 116 535 116 628 116 c 0,31,32
 825 116 825 116 1097 252 c 1,33,-1
 1100 242 l 1,34,35
 995 110 995 110 957 0 c 1,36,37
 794 45 794 45 618 45 c 0,38,39
 407 45 407 45 190 0 c 1,0,-1
EndSplineSet
Validated: 1
EndChar

StartChar: G
Encoding: 71 71 35
Width: 1366
VWidth: 0
GlyphClass: 2
Flags: W
HStem: 0 213<672 794.482> 1490 20G<869.5 1107>
VStem: 260 185<466.301 840.715> 1122 110<314.609 502.158>
LayerCount: 2
Fore
SplineSet
682 0 m 1,0,1
 672 0 l 1,2,3
 462 90 462 90 353 260 c 0,4,5
 260 404 260 404 260 583 c 0,6,7
 260 663 260 663 279 750 c 0,8,9
 339 1022 339 1022 575 1257 c 0,10,11
 746 1427 746 1427 993 1510 c 1,12,-1
 1003 1510 l 1,13,14
 1211 1422 1211 1422 1322 1250 c 1,15,-1
 1316 1239 l 1,16,17
 1188 1227 1188 1227 1101 1175 c 1,18,19
 971 1326 971 1326 733 1365 c 1,20,21
 524 1111 524 1111 460 811 c 0,22,23
 445 741 445 741 445 675 c 0,24,25
 445 484 445 484 573 336 c 0,26,27
 679 213 679 213 850 213 c 0,28,29
 959 213 959 213 1067 275 c 1,30,31
 1081 328 1081 328 1093 380 c 0,32,33
 1122 506 1122 506 1122 628 c 0,34,35
 1122 659 1122 659 1120 688 c 1,36,37
 1227 703 1227 703 1371 778 c 1,38,-1
 1380 772 l 1,39,40
 1299 618 1299 618 1264 450 c 0,41,42
 1232 296 1232 296 1232 168 c 0,43,44
 1232 129 1232 129 1235 90 c 1,45,46
 1128 75 1128 75 984 0 c 1,47,-1
 975 6 l 1,48,49
 1016 109 1016 109 1046 203 c 1,50,51
 889 69 889 69 682 0 c 1,0,1
EndSplineSet
Validated: 1
EndChar

StartChar: H
Encoding: 72 72 36
Width: 1374
GlyphClass: 2
Flags: W
HStem: 0 21G<181 264 940 1023.5> 721 73<567.409 1128.37> 1490 20G<669 755 1428 1514>
LayerCount: 2
Fore
SplineSet
190 0 m 1,0,-1
 181 6 l 1,1,2
 301 364 301 364 379 730 c 0,3,4
 450 1063 450 1063 484 1418 c 1,5,6
 592 1431 592 1431 746 1510 c 1,7,-1
 755 1504 l 1,8,9
 632 1131 632 1131 563 810 c 1,10,11
 704 794 704 794 856.5 794 c 128,-1,12
 1009 794 1009 794 1156 815 c 1,13,14
 1220 1114 1220 1114 1243 1418 c 1,15,16
 1351 1431 1351 1431 1505 1510 c 1,17,-1
 1514 1504 l 1,18,19
 1396 1154 1396 1154 1315 782 c 0,20,21
 1240 429 1240 429 1211 92 c 1,22,23
 1098 77 1098 77 949 0 c 1,24,-1
 940 6 l 1,25,26
 1059 357 1059 357 1133 704 c 1,27,28
 985 721 985 721 832.5 721 c 128,-1,29
 680 721 680 721 539 700 c 1,30,31
 474 396 474 396 452 92 c 1,32,33
 338 77 338 77 190 0 c 1,0,-1
EndSplineSet
Validated: 1
EndChar

StartChar: I
Encoding: 73 73 37
Width: 615
GlyphClass: 2
Flags: W
HStem: 0 21G<181 264> 1490 20G<669 755>
VStem: 181 574
LayerCount: 2
Fore
SplineSet
190 0 m 1,0,-1
 181 6 l 1,1,2
 301 364 301 364 379 730 c 0,3,4
 450 1063 450 1063 484 1418 c 1,5,6
 592 1431 592 1431 746 1510 c 1,7,-1
 755 1504 l 1,8,9
 637 1154 637 1154 556 782 c 0,10,11
 481 429 481 429 452 92 c 1,12,13
 338 77 338 77 190 0 c 1,0,-1
EndSplineSet
Validated: 1
EndChar

StartChar: L
Encoding: 76 76 38
Width: 1054
GlyphClass: 2
Flags: W
HStem: 0 21G<181 298.5 875.5 976> 45 71<458.906 843.75> 1490 20G<669 755>
LayerCount: 2
Fore
SplineSet
190 0 m 1,0,-1
 181 6 l 1,1,2
 301 364 301 364 379 730 c 0,3,4
 450 1064 450 1064 484 1418 c 1,5,6
 592 1431 592 1431 746 1510 c 1,7,-1
 755 1504 l 1,8,9
 634 1146 634 1146 556 782 c 0,10,11
 484 444 484 444 455 135 c 1,12,13
 535 116 535 116 628 116 c 0,14,15
 825 116 825 116 1097 252 c 1,16,-1
 1100 242 l 1,17,18
 995 110 995 110 957 0 c 1,19,20
 794 45 794 45 618 45 c 0,21,22
 407 45 407 45 190 0 c 1,0,-1
EndSplineSet
Validated: 1
EndChar

StartChar: N
Encoding: 78 78 39
Width: 1374
GlyphClass: 2
Flags: W
HStem: 0 21G<181 236 955 1035.5> 1490 20G<562 647 1461 1514>
DStem2: 1103 260 1514 1504 0.255474 0.966816<141.337 958.059>
LayerCount: 2
Fore
SplineSet
190 0 m 1,0,-1
 181 6 l 1,1,2
 291 333 291 333 367 682 c 0,3,4
 433 983 433 983 468 1277 c 1,5,6
 449 1334 449 1334 391 1418 c 1,7,8
 486 1432 486 1432 638 1510 c 1,9,-1
 647 1504 l 1,10,11
 822 751 822 751 1103 260 c 1,12,13
 1201 619 1201 619 1247 836 c 0,14,15
 1316 1162 1316 1162 1335 1438 c 1,16,17
 1417 1464 1417 1464 1505 1510 c 1,18,-1
 1514 1504 l 1,19,20
 1394 1153 1394 1153 1315 782 c 0,21,22
 1240 431 1240 431 1211 92 c 1,23,24
 1107 76 1107 76 964 0 c 1,25,-1
 955 6 l 1,26,27
 754 674 754 674 548 1091 c 1,28,29
 499 914 499 914 450 686 c 0,30,31
 382 368 382 368 357 71 c 1,32,33
 282 47 282 47 190 0 c 1,0,-1
EndSplineSet
Validated: 1
EndChar

StartChar: O
Encoding: 79 79 40
Width: 1354
VWidth: 0
GlyphClass: 2
Flags: W
HStem: 0 21G<567 807.5> 1490 20G<869.5 1107>
VStem: 260 185<466.301 840.573> 1230 185<669.712 1043.7>
LayerCount: 2
Fore
SplineSet
942 145 m 1,0,1
 1151 399 1151 399 1215 699 c 0,2,3
 1230 769 1230 769 1230 835 c 0,4,5
 1230 1026 1230 1026 1102 1174 c 0,6,7
 971 1326 971 1326 733 1365 c 1,8,9
 524 1111 524 1111 460 811 c 0,10,11
 445 741 445 741 445 675 c 0,12,13
 445 484 445 484 573 336 c 8,14,15
 704 184 704 184 942 145 c 1,0,1
672 0 m 1,16,17
 462 90 462 90 353 260 c 0,18,19
 260 404 260 404 260 583 c 0,20,21
 260 663 260 663 279 750 c 0,22,23
 337 1021 337 1021 575 1257 c 0,24,25
 746 1427 746 1427 993 1510 c 1,26,-1
 1003 1510 l 1,27,28
 1211 1422 1211 1422 1322 1250 c 0,29,30
 1415 1106 1415 1106 1415 927 c 0,31,32
 1415 847 1415 847 1396 760 c 0,33,34
 1339 491 1339 491 1100 253 c 0,35,36
 933 86 933 86 682 0 c 1,37,-1
 672 0 l 1,16,17
EndSplineSet
Validated: 1
EndChar

StartChar: T
Encoding: 84 84 41
Width: 1123
GlyphClass: 2
Flags: W
HStem: 0 21G<432 516.5> 1384 73<514.116 733 956.343 1121.76> 1490 20G<397.5 536.5 1292 1437>
LayerCount: 2
Fore
SplineSet
441 0 m 1,0,-1
 432 6 l 1,1,2
 552 364 552 364 630 730 c 0,3,4
 704 1077 704 1077 733 1384 c 1,5,6
 508 1374 508 1374 278 1258 c 1,7,-1
 275 1268 l 1,8,9
 377 1396 377 1396 418 1510 c 1,10,11
 655 1457 655 1457 888 1457 c 0,12,13
 1151 1457 1151 1457 1433 1510 c 1,14,-1
 1437 1500 l 1,15,16
 1332 1367 1332 1367 1293 1258 c 1,17,18
 1152 1364 1152 1364 965 1384 c 1,19,20
 872 1086 872 1086 807 782 c 0,21,22
 734 439 734 439 703 92 c 1,23,24
 592 77 592 77 441 0 c 1,0,-1
EndSplineSet
Validated: 1
EndChar

StartChar: V
Encoding: 86 86 42
Width: 1285
GlyphClass: 2
Flags: W
HStem: 0 21G<520 605.5> 1490 20G<475 562 1537.5 1600>
LayerCount: 2
Fore
SplineSet
529 0 m 1,0,-1
 520 6 l 1,1,2
 478 775 478 775 306 1418 c 1,3,4
 397 1431 397 1431 553 1510 c 1,5,-1
 562 1504 l 1,6,7
 562 810 562 810 726 210 c 1,8,9
 1121 824 1121 824 1378 1427 c 1,10,11
 1484 1453 1484 1453 1591 1510 c 1,12,-1
 1600 1504 l 1,13,14
 1118 819 1118 819 791 92 c 1,15,16
 682 79 682 79 529 0 c 1,0,-1
EndSplineSet
Validated: 1
EndChar

StartChar: W
Encoding: 87 87 43
Width: 1870
GlyphClass: 2
Flags: W
HStem: 0 21G<520 605.5 1105 1190.5> 1490 20G<476 562 1061 1147 1537.5 1600 2122.5 2185>
LayerCount: 2
Fore
SplineSet
529 0 m 1,0,-1
 520 6 l 1,1,2
 478 775 478 775 306 1418 c 1,3,4
 399 1431 399 1431 553 1510 c 1,5,-1
 562 1504 l 1,6,7
 562 803 562 803 722 207 c 1,8,9
 908 485 908 485 1056 755 c 1,10,11
 1007 1069 1007 1069 891 1418 c 1,12,13
 984 1431 984 1431 1138 1510 c 1,14,-1
 1147 1504 l 1,15,16
 1147 1173 1147 1173 1168 948 c 1,17,18
 1253 1117 1253 1117 1378 1427 c 1,19,20
 1484 1453 1484 1453 1591 1510 c 1,21,-1
 1600 1504 l 1,22,23
 1423 1259 1423 1259 1179 843 c 1,24,25
 1230 461 1230 461 1307 207 c 1,26,27
 1715 825 1715 825 1963 1427 c 1,28,29
 2069 1453 2069 1453 2176 1510 c 1,30,-1
 2185 1504 l 1,31,32
 1703 819 1703 819 1376 92 c 1,33,34
 1267 79 1267 79 1114 0 c 1,35,-1
 1105 6 l 1,36,37
 1104 388 1104 388 1068 667 c 1,38,39
 920 396 920 396 791 92 c 1,40,41
 682 79 682 79 529 0 c 1,0,-1
EndSplineSet
Validated: 1
EndChar

StartChar: bracketleft
Encoding: 91 91 44
Width: 834
GlyphClass: 2
Flags: W
HStem: -249 73<375.596 590.25>
LayerCount: 2
Fore
SplineSet
118 -290 m 1,0,-1
 110 -284 l 1,1,2
 278 309 278 309 379 788 c 0,3,4
 470 1216 470 1216 536 1713 c 1,5,6
 660 1727 660 1727 807 1802 c 1,7,8
 869 1750 869 1750 961 1750 c 0,9,10
 1057 1750 1057 1750 1161 1802 c 1,11,-1
 1165 1792 l 1,12,13
 1060 1660 1060 1660 1021 1550 c 1,14,15
 952 1565 952 1565 895 1624 c 0,16,17
 829 1691 829 1691 800 1782 c 1,18,19
 646 1265 646 1265 546 796 c 0,20,21
 433 259 433 259 375 -168 c 1,22,23
 394 -176 394 -176 421 -176 c 0,24,25
 585 -176 585 -176 770 -38 c 1,26,-1
 774 -48 l 1,27,28
 669 -180 669 -180 630 -290 c 1,29,30
 525 -249 525 -249 396 -249 c 0,31,32
 263 -249 263 -249 118 -290 c 1,0,-1
EndSplineSet
Validated: 1
EndChar

StartChar: backslash
Encoding: 92 92 45
Width: 1056
GlyphClass: 2
Flags: W
LayerCount: 2
Fore
SplineSet
835 -144 m 1,0,1
 753 288 753 288 613 777 c 0,2,3
 494 1194 494 1194 345 1578 c 1,4,5
 428 1593 428 1593 533 1660 c 1,6,-1
 542 1654 l 1,7,8
 586 1293 586 1293 715 835 c 0,9,10
 847 369 847 369 1032 -68 c 1,11,12
 957 -83 957 -83 844 -150 c 1,13,-1
 835 -144 l 1,0,1
EndSplineSet
Validated: 1
EndChar

StartChar: bracketright
Encoding: 93 93 46
Width: 834
GlyphClass: 2
Flags: W
HStem: 1688 73<565.5 779.405>
LayerCount: 2
Fore
SplineSet
-6 -290 m 1,0,-1
 -10 -280 l 1,1,2
 95 -148 95 -148 134 -38 c 1,3,4
 203 -53 203 -53 260 -112 c 0,5,6
 326 -179 326 -179 356 -270 c 1,7,8
 510 247 510 247 609 716 c 0,9,10
 722 1253 722 1253 780 1680 c 1,11,12
 761 1688 761 1688 735 1688 c 0,13,14
 571 1688 571 1688 385 1550 c 1,15,-1
 382 1560 l 1,16,17
 487 1692 487 1692 525 1802 c 1,18,19
 630 1761 630 1761 759 1761 c 0,20,21
 892 1761 892 1761 1037 1802 c 1,22,-1
 1046 1796 l 1,23,24
 878 1203 878 1203 776 724 c 0,25,26
 685 296 685 296 619 -201 c 1,27,28
 495 -215 495 -215 348 -290 c 1,29,30
 286 -238 286 -238 194 -238 c 0,31,32
 98 -238 98 -238 -6 -290 c 1,0,-1
EndSplineSet
Validated: 1
EndChar

StartChar: asciicircum
Encoding: 94 94 47
Width: 875
GlyphClass: 2
Flags: W
HStem: 955 595
LayerCount: 2
Fore
SplineSet
867 1550 m 1,0,-1
 876 1544 l 1,1,2
 883 1236 883 1236 1046 1042 c 1,3,4
 942 1024 942 1024 816 955 c 1,5,-1
 807 961 l 1,6,7
 791 1192 791 1192 692 1347 c 1,8,9
 539 1213 539 1213 434 1027 c 1,10,11
 347 999 347 999 263 955 c 1,12,-1
 254 961 l 1,13,14
 495 1201 495 1201 637 1463 c 1,15,16
 735 1482 735 1482 867 1550 c 1,0,-1
EndSplineSet
Validated: 1
EndChar

StartChar: underscore
Encoding: 95 95 48
Width: 1390
GlyphClass: 2
Flags: W
HStem: -410 173<140.356 497.25 755 1112.56> -362 77<221.656 1031.31>
LayerCount: 2
Fore
SplineSet
160 -237 m 1,0,1
 408 -285 408 -285 634 -285 c 0,2,3
 865 -285 865 -285 1184 -237 c 1,4,-1
 1187 -247 l 1,5,6
 1120 -337 1120 -337 1093 -410 c 1,7,8
 845 -362 845 -362 617 -362 c 128,-1,9
 389 -362 389 -362 69 -410 c 1,10,-1
 65 -400 l 1,11,12
 130 -312 130 -312 160 -237 c 1,0,1
EndSplineSet
Validated: 1
EndChar

StartChar: grave
Encoding: 96 96 49
Width: 433
GlyphClass: 2
Flags: W
HStem: 1180 350
VStem: 578 61<1192.96 1258.22>
LayerCount: 2
Fore
SplineSet
565 1530 m 1,0,1
 644 1429 644 1429 644 1284 c 0,2,3
 644 1246 644 1246 639 1205 c 1,4,5
 607 1195 607 1195 588 1180 c 1,6,-1
 578 1180 l 1,7,8
 528 1360 528 1360 354 1428 c 1,9,-1
 361 1438 l 1,10,11
 438 1452 438 1452 565 1530 c 1,0,1
EndSplineSet
Validated: 1
EndChar

StartChar: a
Encoding: 97 97 50
Width: 1109
GlyphClass: 2
Flags: W
HStem: 0 176<458.992 590.383> 935 9<462 466.692> 974 156<672.591 808.91>
VStem: 177 159<298.745 492.326> 923 154<434.683 854.389>
LayerCount: 2
Fore
SplineSet
762 0 m 1,0,-1
 753 6 l 1,1,2
 791 105 791 105 822 200 c 1,3,4
 681 70 681 70 484 0 c 1,5,-1
 474 0 l 1,6,7
 340 48 340 48 240 170 c 0,8,9
 177 246 177 246 177 334 c 0,10,11
 177 365 177 365 182 388 c 0,12,13
 207 511 207 511 300 584 c 0,14,15
 411 671 411 671 578 671 c 1,16,-1
 576 661 l 1,17,18
 371 593 371 593 341 468 c 0,19,20
 336 447 336 447 336 426 c 0,21,22
 336 351 336 351 396 278 c 0,23,24
 478 176 478 176 616 176 c 0,25,26
 731 176 731 176 837 251 c 1,27,28
 882 400 882 400 905 511 c 0,29,30
 923 597 923 597 923 669 c 0,31,32
 923 793 923 793 868 872 c 0,33,34
 797 974 797 974 659 974 c 0,35,36
 559 974 559 974 465 935 c 1,37,-1
 462 944 l 1,38,39
 612 1074 612 1074 782 1130 c 1,40,-1
 792 1130 l 1,41,42
 929 1080 929 1080 1011 971 c 0,43,44
 1077 883 1077 883 1077 740 c 0,45,46
 1077 661 1077 661 1057 565 c 0,47,48
 1005 319 1005 319 997 87 c 1,49,50
 895 69 895 69 762 0 c 1,0,-1
EndSplineSet
Validated: 1
EndChar

StartChar: b
Encoding: 98 98 51
Width: 1151
GlyphClass: 2
Flags: W
HStem: 0 21G<539 719.5> 1110 20G<786 922.5> 1490 20G<596.5 672>
VStem: 286 153<346.891 744.378> 1027 158<464.251 787.2>
LayerCount: 2
Fore
SplineSet
606 0 m 1,0,1
 472 48 472 48 372 170 c 0,2,3
 286 274 286 274 286 449 c 0,4,5
 286 541 286 541 310 652 c 0,6,7
 398 1066 398 1066 432 1423 c 1,8,9
 530 1442 530 1442 663 1510 c 1,10,-1
 672 1504 l 1,11,12
 554 1154 554 1154 457 705 c 0,13,14
 439 619 439 619 439 545 c 0,15,16
 439 372 439 372 539 267 c 0,17,18
 642 159 642 159 817 114 c 1,19,20
 968 287 968 287 1016 511 c 0,21,22
 1027 564 1027 564 1027 613 c 0,23,24
 1027 760 1027 760 923 863 c 0,25,26
 812 974 812 974 625 1021 c 1,27,28
 726 1088 726 1088 846 1130 c 1,29,-1
 856 1130 l 1,30,31
 989 1082 989 1082 1090 960 c 0,32,33
 1185 845 1185 845 1185 690 c 0,34,35
 1185 631 1185 631 1171 565 c 0,36,37
 1130 373 1130 373 976 222 c 0,38,39
 823 73 823 73 616 0 c 1,40,-1
 606 0 l 1,0,1
EndSplineSet
Validated: 1
EndChar

StartChar: c
Encoding: 99 99 52
Width: 993
VWidth: 0
GlyphClass: 2
Flags: W
HStem: 0 176<522.859 649.584> 1110 20G<669 851.5>
VStem: 206 159<347.031 660.552>
LayerCount: 2
Fore
SplineSet
535 0 m 1,0,1
 401 48 401 48 301 170 c 0,2,3
 206 285 206 285 206 440 c 0,4,5
 206 499 206 499 220 565 c 0,6,7
 260 754 260 754 415 908 c 0,8,9
 563 1056 563 1056 775 1130 c 1,10,-1
 785 1130 l 1,11,12
 918 1082 918 1082 1019 960 c 1,13,-1
 1014 948 l 1,14,15
 908 932 908 932 830 885 c 1,16,17
 732 976 732 976 574 1016 c 1,18,19
 423 843 423 843 376 619 c 0,20,21
 365 568 365 568 365 521 c 0,22,23
 365 391 365 391 448 289 c 0,24,25
 539 176 539 176 677 176 c 0,26,27
 831 176 831 176 969 310 c 1,28,-1
 977 303 l 1,29,30
 813 96 813 96 545 0 c 1,31,-1
 535 0 l 1,0,1
EndSplineSet
Validated: 1
EndChar

StartChar: d
Encoding: 100 100 53
Width: 1165
GlyphClass: 2
Flags: W
HStem: 0 176<523.797 652.285> 1110 20G<669 843.5> 1490 20G<1256.5 1335>
VStem: 206 159<346.097 661.744>
LayerCount: 2
Fore
SplineSet
953 525 m 0,0,1
 964 578 964 578 964 626 c 0,2,3
 964 776 964 776 860 891 c 0,4,5
 767 994 767 994 574 1016 c 1,6,7
 423 843 423 843 376 619 c 0,8,9
 365 568 365 568 365 521 c 0,10,11
 365 391 365 391 448 289 c 0,12,13
 541 176 541 176 677 176 c 0,14,15
 779 176 779 176 874 234 c 1,16,17
 921 374 921 374 953 525 c 0,0,1
535 0 m 1,18,19
 401 48 401 48 301 170 c 0,20,21
 206 285 206 285 206 440 c 0,22,23
 206 499 206 499 220 565 c 0,24,25
 260 754 260 754 415 908 c 0,26,27
 563 1056 563 1056 775 1130 c 1,28,-1
 785 1130 l 1,29,30
 902 1097 902 1097 970 1005 c 0,31,32
 1011 949 1011 949 1026 864 c 1,33,34
 1078 1141 1078 1141 1105 1423 c 1,35,36
 1187 1439 1187 1439 1326 1510 c 1,37,-1
 1335 1504 l 1,38,39
 1217 1154 1217 1154 1136 782 c 0,40,41
 1060 424 1060 424 1030 87 c 1,42,43
 948 71 948 71 810 0 c 1,44,-1
 801 6 l 1,45,46
 829 91 829 91 856 177 c 1,47,48
 724 64 724 64 545 0 c 1,49,-1
 535 0 l 1,18,19
EndSplineSet
Validated: 1
EndChar

StartChar: e
Encoding: 101 101 54
Width: 1019
VWidth: 0
GlyphClass: 2
Flags: W
HStem: 0 176<523.797 649.584> 1110 20G<669 855.5>
VStem: 206 159<347.031 660.552> 923 157<631.859 830.337>
LayerCount: 2
Fore
SplineSet
535 0 m 1,0,1
 401 48 401 48 301 170 c 0,2,3
 206 285 206 285 206 440 c 0,4,5
 206 499 206 499 220 565 c 0,6,7
 260 754 260 754 415 908 c 0,8,9
 563 1056 563 1056 775 1130 c 1,10,-1
 785 1130 l 1,11,12
 926 1072 926 1072 1019 960 c 0,13,14
 1080 886 1080 886 1080 789 c 0,15,16
 1080 766 1080 766 1077 742 c 0,17,18
 1061 631 1061 631 957 546 c 0,19,20
 851 459 851 459 682 459 c 1,21,-1
 684 469 l 1,22,23
 892 538 892 538 918 662 c 0,24,25
 923 685 923 685 923 706 c 0,26,27
 923 790 923 790 852 863 c 0,28,29
 749 970 749 970 574 1016 c 1,30,31
 423 843 423 843 376 619 c 0,32,33
 365 568 365 568 365 521 c 0,34,35
 365 391 365 391 448 289 c 0,36,37
 541 176 541 176 677 176 c 0,38,39
 831 176 831 176 969 310 c 1,40,-1
 977 303 l 1,41,42
 813 96 813 96 545 0 c 1,43,-1
 535 0 l 1,0,1
EndSplineSet
Validated: 1
EndChar

StartChar: g
Encoding: 103 103 55
Width: 1153
GlyphClass: 2
Flags: W
HStem: -380 21G<387.5 569.5> 0 21G<468.5 605> 1110 20G<671.5 852>
VStem: 206 158<342.588 664.107> 954 157<383.203 782.535>
LayerCount: 2
Fore
SplineSet
535 0 m 1,0,1
 402 48 402 48 301 170 c 0,2,3
 206 285 206 285 206 440 c 0,4,5
 206 499 206 499 220 565 c 0,6,7
 261 757 261 757 415 908 c 0,8,9
 568 1057 568 1057 775 1130 c 1,10,-1
 785 1130 l 1,11,12
 919 1082 919 1082 1019 960 c 0,13,14
 1111 848 1111 848 1111 684 c 0,15,16
 1111 614 1111 614 1094 535 c 0,17,18
 1049 325 1049 325 1041 87 c 1,19,20
 961 -35 961 -35 831 -152 c 0,21,22
 675 -291 675 -291 464 -380 c 1,23,-1
 454 -380 l 1,24,25
 321 -332 321 -332 220 -210 c 1,26,-1
 226 -198 l 1,27,28
 332 -182 332 -182 409 -135 c 1,29,30
 507 -226 507 -226 665 -266 c 1,31,32
 742 -162 742 -162 797 -35 c 0,33,34
 867 130 867 130 941 481 c 0,35,36
 954 543 954 543 954 600 c 0,37,38
 954 756 954 756 852 863 c 0,39,40
 749 971 749 971 574 1016 c 1,41,42
 423 843 423 843 376 619 c 0,43,44
 364 565 364 565 364 516 c 0,45,46
 364 369 364 369 468 267 c 0,47,48
 579 156 579 156 766 109 c 1,49,50
 665 42 665 42 545 0 c 1,51,-1
 535 0 l 1,0,1
EndSplineSet
Validated: 1
EndChar

StartChar: h
Encoding: 104 104 56
Width: 1170
GlyphClass: 2
Flags: W
HStem: 0 21G<151 226 814 889> 974 156<733.634 869.91> 1490 20G<619.5 695>
VStem: 984 154<435.081 854.389>
LayerCount: 2
Fore
SplineSet
160 0 m 1,0,-1
 151 6 l 1,1,2
 271 364 271 364 349 730 c 0,3,4
 420 1065 420 1065 455 1423 c 1,5,6
 553 1442 553 1442 686 1510 c 1,7,-1
 695 1504 l 1,8,9
 604 1236 604 1236 536 955 c 1,10,11
 681 1077 681 1077 843 1130 c 1,12,-1
 853 1130 l 1,13,14
 990 1080 990 1080 1072 971 c 0,15,16
 1138 883 1138 883 1138 740 c 0,17,18
 1138 661 1138 661 1118 565 c 0,19,20
 1066 319 1066 319 1058 87 c 1,21,22
 955 69 955 69 823 0 c 1,23,-1
 814 6 l 1,24,25
 914 269 914 269 966 511 c 0,26,27
 984 597 984 597 984 669 c 0,28,29
 984 793 984 793 929 872 c 0,30,31
 858 974 858 974 720 974 c 0,32,33
 608 974 608 974 529 928 c 1,34,35
 512 856 512 856 496 782 c 0,36,37
 420 424 420 424 390 87 c 1,38,39
 292 68 292 68 160 0 c 1,0,-1
EndSplineSet
Validated: 1
EndChar

StartChar: i
Encoding: 105 105 57
Width: 525
GlyphClass: 2
Flags: W
HStem: 0 21G<151 227> 1110 20G<538.5 614>
VStem: 417 264<1274.02 1425.12>
LayerCount: 2
Fore
SplineSet
577 1497 m 1,0,-1
 583 1497 l 1,1,2
 627 1481 627 1481 654 1447 c 0,3,4
 681 1415 681 1415 681 1376 c 0,5,6
 681 1363 681 1363 678 1349 c 0,7,8
 665 1290 665 1290 603 1244 c 0,9,10
 565 1217 565 1217 520 1200 c 1,11,-1
 514 1200 l 1,12,13
 476 1217 476 1217 449 1244 c 0,14,15
 417 1278 417 1278 417 1321 c 0,16,17
 417 1334 417 1334 420 1349 c 0,18,19
 432 1405 432 1405 486 1447 c 0,20,21
 527 1481 527 1481 577 1497 c 1,0,-1
160 0 m 1,22,-1
 151 6 l 1,23,24
 251 269 251 269 309 540 c 0,25,26
 365 803 365 803 375 1043 c 1,27,28
 472 1061 472 1061 605 1130 c 1,29,-1
 614 1124 l 1,30,31
 508 836 508 836 456 592 c 0,32,33
 398 319 398 319 390 87 c 1,34,35
 294 69 294 69 160 0 c 1,22,-1
EndSplineSet
Validated: 1
EndChar

StartChar: j
Encoding: 106 106 58
Width: 545
GlyphClass: 2
Flags: W
HStem: -380 21G<-49 35> 1110 20G<558.5 634>
VStem: 437 264<1273.16 1425.12>
LayerCount: 2
Fore
SplineSet
597 1497 m 1,0,-1
 603 1497 l 1,1,2
 645 1482 645 1482 674 1447 c 0,3,4
 701 1415 701 1415 701 1376 c 0,5,6
 701 1363 701 1363 698 1349 c 0,7,8
 685 1288 685 1288 623 1244 c 0,9,10
 585 1217 585 1217 540 1200 c 1,11,-1
 534 1200 l 1,12,13
 496 1217 496 1217 469 1244 c 0,14,15
 437 1278 437 1278 437 1321 c 0,16,17
 437 1334 437 1334 440 1349 c 0,18,19
 452 1405 452 1405 506 1447 c 0,20,21
 547 1481 547 1481 597 1497 c 1,0,-1
-42 -380 m 1,22,-1
 -49 -374 l 1,23,24
 116 -172 116 -172 203 78 c 0,25,26
 275 283 275 283 329 540 c 0,27,28
 385 803 385 803 395 1043 c 1,29,30
 492 1061 492 1061 625 1130 c 1,31,-1
 634 1124 l 1,32,33
 528 836 528 836 476 592 c 0,34,35
 418 319 418 319 410 87 c 1,36,37
 331 -36 331 -36 226 -152 c 0,38,39
 112 -276 112 -276 -42 -380 c 1,22,-1
EndSplineSet
Validated: 1
EndChar

StartChar: k
Encoding: 107 107 59
Width: 1052
GlyphClass: 2
Flags: W
HStem: 0 21G<151 226 831 911> 1110 20G<923.5 1076> 1490 20G<619.5 695>
DStem2: 349 730 496 782 0.182761 0.983157<-467.54 700.701>
LayerCount: 2
Fore
SplineSet
160 0 m 1,0,-1
 151 6 l 1,1,2
 271 364 271 364 349 730 c 0,3,4
 420 1065 420 1065 455 1423 c 1,5,6
 553 1442 553 1442 686 1510 c 1,7,-1
 695 1504 l 1,8,9
 577 1154 577 1154 496 782 c 0,10,11
 474 680 474 680 456 580 c 1,12,13
 781 809 781 809 1066 1130 c 1,14,-1
 1076 1129 l 1,15,16
 1122 1070 1122 1070 1175 1045 c 1,17,18
 932 889 932 889 759 732 c 1,19,20
 852 390 852 390 1060 87 c 1,21,22
 982 68 982 68 840 0 c 1,23,-1
 831 6 l 1,24,25
 769 383 769 383 617 610 c 1,26,27
 532 537 532 537 432 428 c 1,28,29
 405 255 405 255 390 87 c 1,30,31
 292 68 292 68 160 0 c 1,0,-1
EndSplineSet
Validated: 1
EndChar

StartChar: l
Encoding: 108 108 60
Width: 525
GlyphClass: 2
Flags: W
HStem: 0 21G<151 226> 1490 20G<619.5 695>
VStem: 151 544
LayerCount: 2
Fore
SplineSet
160 0 m 1,0,-1
 151 6 l 1,1,2
 271 364 271 364 349 730 c 0,3,4
 420 1065 420 1065 455 1423 c 1,5,6
 553 1442 553 1442 686 1510 c 1,7,-1
 695 1504 l 1,8,9
 577 1154 577 1154 496 782 c 0,10,11
 420 424 420 424 390 87 c 1,12,13
 292 68 292 68 160 0 c 1,0,-1
EndSplineSet
Validated: 1
EndChar

StartChar: m
Encoding: 109 109 61
Width: 1813
GlyphClass: 2
Flags: W
HStem: 0 21G<151 227 815 890 1457 1532> 974 156<734.109 869.91 1341.66 1512.91>
VStem: 984 154<436.252 854.317> 1627 154<435.081 854.389>
LayerCount: 2
Fore
SplineSet
160 0 m 1,0,-1
 151 6 l 1,1,2
 251 269 251 269 309 540 c 0,3,4
 365 803 365 803 375 1043 c 1,5,6
 472 1061 472 1061 605 1130 c 1,7,-1
 614 1124 l 1,8,9
 586 1049 586 1049 562 976 c 1,10,11
 695 1081 695 1081 843 1130 c 1,12,-1
 853 1130 l 1,13,14
 990 1080 990 1080 1072 971 c 0,15,16
 1084 955 1084 955 1093 938 c 1,17,18
 1269 1085 1269 1085 1486 1130 c 1,19,-1
 1496 1130 l 1,20,21
 1633 1080 1633 1080 1715 971 c 0,22,23
 1781 883 1781 883 1781 740 c 0,24,25
 1781 661 1781 661 1761 565 c 0,26,27
 1709 319 1709 319 1701 87 c 1,28,29
 1598 69 1598 69 1466 0 c 1,30,-1
 1457 6 l 1,31,32
 1557 269 1557 269 1609 511 c 0,33,34
 1627 597 1627 597 1627 669 c 0,35,36
 1627 793 1627 793 1572 872 c 0,37,38
 1501 974 1501 974 1362 974 c 0,39,40
 1234 974 1234 974 1106 913 c 1,41,42
 1138 840 1138 840 1138 740 c 0,43,44
 1138 661 1138 661 1118 565 c 0,45,46
 1067 325 1067 325 1059 87 c 1,47,48
 956 69 956 69 824 0 c 1,49,-1
 815 6 l 1,50,51
 914 269 914 269 966 511 c 0,52,53
 984 597 984 597 984 669 c 0,54,55
 984 793 984 793 929 872 c 0,56,57
 858 974 858 974 720 974 c 0,58,59
 622 974 622 974 550 939 c 1,60,61
 491 756 491 756 456 592 c 0,62,63
 398 319 398 319 390 87 c 1,64,65
 294 69 294 69 160 0 c 1,0,-1
EndSplineSet
Validated: 1
EndChar

StartChar: n
Encoding: 110 110 62
Width: 1171
GlyphClass: 2
Flags: W
HStem: 0 21G<151 227 815 890> 974 156<734.109 869.91>
VStem: 984 154<436.252 854.389>
LayerCount: 2
Fore
SplineSet
160 0 m 1,0,-1
 151 6 l 1,1,2
 251 269 251 269 309 540 c 0,3,4
 365 803 365 803 375 1043 c 1,5,6
 472 1061 472 1061 605 1130 c 1,7,-1
 614 1124 l 1,8,9
 586 1049 586 1049 562 976 c 1,10,11
 695 1081 695 1081 843 1130 c 1,12,-1
 853 1130 l 1,13,14
 990 1080 990 1080 1072 971 c 0,15,16
 1138 883 1138 883 1138 740 c 0,17,18
 1138 661 1138 661 1118 565 c 0,19,20
 1067 325 1067 325 1059 87 c 1,21,22
 956 69 956 69 824 0 c 1,23,-1
 815 6 l 1,24,25
 914 269 914 269 966 511 c 0,26,27
 984 597 984 597 984 669 c 0,28,29
 984 793 984 793 929 872 c 0,30,31
 858 974 858 974 720 974 c 0,32,33
 622 974 622 974 550 939 c 1,34,35
 491 756 491 756 456 592 c 0,36,37
 398 319 398 319 390 87 c 1,38,39
 294 69 294 69 160 0 c 1,0,-1
EndSplineSet
Validated: 1
EndChar

StartChar: o
Encoding: 111 111 63
Width: 1080
GlyphClass: 2
Flags: W
HStem: 0 21G<468 648.5> 1110 20G<671 851.5>
VStem: 206 159<346.042 661.744> 956 158<464.251 783.899>
LayerCount: 2
Fore
SplineSet
746 114 m 1,0,1
 897 287 897 287 945 511 c 0,2,3
 956 563 956 563 956 610 c 0,4,5
 956 756 956 756 852 863 c 0,6,7
 749 970 749 970 574 1016 c 1,8,9
 423 843 423 843 376 619 c 0,10,11
 365 567 365 567 365 519 c 0,12,13
 365 374 365 374 468 267 c 128,-1,14
 571 160 571 160 746 114 c 1,0,1
535 0 m 1,15,16
 401 48 401 48 301 170 c 0,17,18
 206 285 206 285 206 440 c 0,19,20
 206 499 206 499 220 565 c 0,21,22
 260 754 260 754 415 908 c 0,23,24
 567 1057 567 1057 775 1130 c 1,25,-1
 785 1130 l 1,26,27
 918 1082 918 1082 1019 960 c 0,28,29
 1114 845 1114 845 1114 690 c 0,30,31
 1114 631 1114 631 1100 565 c 0,32,33
 1059 373 1059 373 905 222 c 0,34,35
 752 73 752 73 545 0 c 1,36,-1
 535 0 l 1,15,16
EndSplineSet
Validated: 1
EndChar

StartChar: p
Encoding: 112 112 64
Width: 1165
GlyphClass: 2
Flags: W
HStem: -380 21G<71 148.5> 0 21G<561.5 736> 954 176<753.242 881.203>
VStem: 1041 158<468.256 782.392>
LayerCount: 2
Fore
SplineSet
453 605 m 0,0,1
 442 552 442 552 442 503 c 0,2,3
 442 353 442 353 545 239 c 0,4,5
 639 136 639 136 831 114 c 1,6,7
 982 287 982 287 1030 511 c 0,8,9
 1041 562 1041 562 1041 609 c 0,10,11
 1041 740 1041 740 957 841 c 0,12,13
 864 954 864 954 728 954 c 0,14,15
 626 954 626 954 531 896 c 1,16,17
 485 756 485 756 453 605 c 0,0,1
620 0 m 1,18,19
 503 33 503 33 436 125 c 0,20,21
 395 181 395 181 380 266 c 1,22,23
 328 -11 328 -11 300 -293 c 1,24,25
 218 -309 218 -309 79 -380 c 1,26,-1
 71 -374 l 1,27,28
 189 -24 189 -24 269 348 c 0,29,30
 345 706 345 706 375 1043 c 1,31,32
 457 1059 457 1059 595 1130 c 1,33,-1
 604 1124 l 1,34,35
 576 1039 576 1039 550 953 c 1,36,37
 682 1066 682 1066 860 1130 c 1,38,-1
 870 1130 l 1,39,40
 1004 1082 1004 1082 1104 960 c 0,41,42
 1199 845 1199 845 1199 690 c 0,43,44
 1199 631 1199 631 1185 565 c 0,45,46
 1145 376 1145 376 990 222 c 0,47,48
 842 74 842 74 630 0 c 1,49,-1
 620 0 l 1,18,19
EndSplineSet
Validated: 1
EndChar

StartChar: q
Encoding: 113 113 65
Width: 1151
GlyphClass: 2
Flags: W
HStem: -380 21G<720 794.5> 0 21G<468.5 605> 1110 20G<671.5 852>
VStem: 206 158<342.588 664.107> 952 153<379.257 782.658>
LayerCount: 2
Fore
SplineSet
535 0 m 1,0,1
 402 48 402 48 301 170 c 0,2,3
 206 285 206 285 206 440 c 0,4,5
 206 499 206 499 220 565 c 0,6,7
 261 757 261 757 415 908 c 0,8,9
 568 1057 568 1057 775 1130 c 1,10,-1
 785 1130 l 1,11,12
 919 1082 919 1082 1019 960 c 0,13,14
 1105 855 1105 855 1105 680 c 0,15,16
 1105 589 1105 589 1082 478 c 0,17,18
 994 64 994 64 959 -293 c 1,19,20
 861 -312 861 -312 728 -380 c 1,21,-1
 720 -374 l 1,22,23
 838 -24 838 -24 934 425 c 0,24,25
 952 511 952 511 952 585 c 0,26,27
 952 758 952 758 852 863 c 0,28,29
 749 971 749 971 574 1016 c 1,30,31
 423 843 423 843 376 619 c 0,32,33
 364 565 364 565 364 516 c 0,34,35
 364 369 364 369 468 267 c 0,36,37
 579 156 579 156 766 109 c 1,38,39
 665 42 665 42 545 0 c 1,40,-1
 535 0 l 1,0,1
EndSplineSet
Validated: 1
EndChar

StartChar: r
Encoding: 114 114 66
Width: 909
VWidth: 0
GlyphClass: 2
Flags: W
HStem: 0 21G<151 227> 974 156<734.109 870.547>
LayerCount: 2
Fore
SplineSet
160 0 m 1,0,-1
 151 6 l 1,1,2
 251 269 251 269 309 540 c 0,3,4
 365 803 365 803 375 1043 c 1,5,6
 472 1061 472 1061 605 1130 c 1,7,-1
 614 1124 l 1,8,9
 586 1049 586 1049 562 976 c 1,10,11
 695 1081 695 1081 843 1130 c 1,12,-1
 853 1130 l 1,13,14
 1017 1070 1017 1070 1097 932 c 1,15,-1
 1092 920 l 1,16,17
 998 906 998 906 932 869 c 1,18,19
 858 974 858 974 720 974 c 0,20,21
 622 974 622 974 550 939 c 1,22,23
 491 756 491 756 456 592 c 0,24,25
 398 319 398 319 390 87 c 1,26,27
 294 69 294 69 160 0 c 1,0,-1
EndSplineSet
Validated: 1
EndChar

StartChar: s
Encoding: 115 115 67
Width: 894
VWidth: 0
GlyphClass: 2
Flags: W
HStem: 0 21G<378 564> 1110 20G<627.5 772.5>
VStem: 313 121<781.557 913.205> 745 152<269.896 452.811>
DStem2: 567 722 460 590 0.892366 -0.451312<-162.478 294.592>
LayerCount: 2
Fore
SplineSet
445 0 m 1,0,1
 311 50 311 50 211 170 c 0,2,3
 162 228 162 228 142 291 c 1,4,-1
 147 303 l 1,5,6
 257 319 257 319 314 356 c 1,7,8
 340 306 340 306 378 267 c 0,9,10
 481 160 481 160 656 114 c 1,11,12
 721 203 721 203 739 290 c 0,13,14
 745 319 745 319 745 344 c 0,15,16
 745 446 745 446 634 502 c 2,17,-1
 460 590 l 2,18,19
 313 664 313 664 313 785 c 0,20,21
 313 804 313 804 317 823 c 0,22,23
 341 934 341 934 481 1031 c 0,24,25
 570 1092 570 1092 685 1130 c 1,26,-1
 695 1130 l 1,27,28
 850 1092 850 1092 942 930 c 1,29,-1
 936 918 l 1,30,31
 830 901 830 901 764 862 c 1,32,33
 698 991 698 991 515 1029 c 1,34,35
 447 968 447 968 436 898 c 0,36,37
 434 885 434 885 434 873 c 0,38,39
 434 789 434 789 567 722 c 2,40,-1
 726 642 l 2,41,42
 897 556 897 556 897 413 c 0,43,44
 897 397 897 397 895 380 c 0,45,46
 881 283 881 283 787 189 c 0,47,48
 673 77 673 77 455 0 c 1,49,-1
 445 0 l 1,0,1
EndSplineSet
Validated: 1
EndChar

StartChar: t
Encoding: 116 116 68
Width: 731
GlyphClass: 2
Flags: W
HStem: 0 21G<259 337> 984 146<287.65 507.716 674.253 892.35> 1490 20G<714.5 793>
LayerCount: 2
Fore
SplineSet
268 0 m 1,0,-1
 259 6 l 1,1,2
 379 364 379 364 457 730 c 0,3,4
 487 873 487 873 512 1019 c 1,5,6
 375 1013 375 1013 225 984 c 1,7,-1
 221 994 l 1,8,9
 279 1066 279 1066 315 1130 c 1,10,11
 416 1104 416 1104 523 1096 c 1,12,13
 547 1257 547 1257 563 1423 c 1,14,15
 645 1439 645 1439 784 1510 c 1,16,-1
 793 1504 l 1,17,18
 725 1303 725 1303 670 1095 c 1,19,20
 806 1101 806 1101 955 1130 c 1,21,-1
 959 1120 l 1,22,23
 901 1048 901 1048 865 984 c 1,24,25
 761 1011 761 1011 650 1019 c 1,26,27
 620 902 620 902 594 782 c 0,28,29
 518 424 518 424 488 87 c 1,30,31
 406 71 406 71 268 0 c 1,0,-1
EndSplineSet
Validated: 1
EndChar

StartChar: u
Encoding: 117 117 69
Width: 1171
GlyphClass: 2
Flags: W
HStem: 0 156<541.09 676.891> 1110 20G<521 596 1184.5 1260>
VStem: 273 155<274.216 693.748>
DStem2: 849 154 1260 1124 0.286947 0.957947<169.014 492.302>
LayerCount: 2
Fore
SplineSet
558 0 m 1,0,1
 421 50 421 50 339 159 c 0,2,3
 273 247 273 247 273 390 c 0,4,5
 273 469 273 469 293 565 c 0,6,7
 344 805 344 805 352 1043 c 1,8,9
 455 1061 455 1061 587 1130 c 1,10,-1
 596 1124 l 1,11,12
 497 861 497 861 446 619 c 0,13,14
 428 532 428 532 428 460 c 0,15,16
 428 336 428 336 482 258 c 0,17,18
 553 156 553 156 691 156 c 0,19,20
 789 156 789 156 862 191 c 1,21,22
 921 374 921 374 955 538 c 0,23,24
 1013 811 1013 811 1021 1043 c 1,25,26
 1118 1061 1118 1061 1251 1130 c 1,27,-1
 1260 1124 l 1,28,29
 1160 861 1160 861 1102 590 c 0,30,31
 1046 327 1046 327 1036 87 c 1,32,33
 939 69 939 69 806 0 c 1,34,-1
 797 6 l 1,35,36
 825 81 825 81 849 154 c 1,37,38
 716 49 716 49 568 0 c 1,39,-1
 558 0 l 1,0,1
EndSplineSet
Validated: 1
EndChar

StartChar: v
Encoding: 118 118 70
Width: 1027
GlyphClass: 2
Flags: W
HStem: 0 21G<404 479> 1110 20G<364.5 451 1210 1261>
LayerCount: 2
Fore
SplineSet
413 0 m 1,0,-1
 404 6 l 1,1,2
 386 590 386 590 227 1043 c 1,3,4
 287 1057 287 1057 442 1130 c 1,5,-1
 451 1124 l 1,6,7
 451 1104 451 1104 451 1083 c 0,8,9
 451 564 451 564 580 181 c 1,10,11
 881 609 881 609 1081 1058 c 1,12,13
 1168 1086 1168 1086 1252 1130 c 1,14,-1
 1261 1124 l 1,15,16
 878 584 878 584 643 87 c 1,17,18
 545 68 545 68 413 0 c 1,0,-1
EndSplineSet
Validated: 19457
EndChar

StartChar: w
Encoding: 119 119 71
Width: 1813
GlyphClass: 2
Flags: W
HStem: 0 156<540.09 711.343 1183.09 1318.89> 1110 20G<521 596 1163 1238 1826 1902>
VStem: 272 155<274.216 694.919> 915 155<272.993 693.748>
LayerCount: 2
Fore
SplineSet
1893 1130 m 1,0,-1
 1902 1124 l 1,1,2
 1802 861 1802 861 1744 590 c 0,3,4
 1688 327 1688 327 1678 87 c 1,5,6
 1581 69 1581 69 1448 0 c 1,7,-1
 1439 6 l 1,8,9
 1467 81 1467 81 1491 154 c 1,10,11
 1358 49 1358 49 1210 0 c 1,12,-1
 1200 0 l 1,13,14
 1063 50 1063 50 981 159 c 0,15,16
 969 175 969 175 960 192 c 1,17,18
 784 45 784 45 567 0 c 1,19,-1
 557 0 l 1,20,21
 420 50 420 50 338 159 c 0,22,23
 272 247 272 247 272 390 c 0,24,25
 272 469 272 469 292 565 c 0,26,27
 344 811 344 811 352 1043 c 1,28,29
 455 1061 455 1061 587 1130 c 1,30,-1
 596 1124 l 1,31,32
 496 861 496 861 445 619 c 0,33,34
 427 532 427 532 427 460 c 0,35,36
 427 336 427 336 481 258 c 0,37,38
 552 156 552 156 691 156 c 0,39,40
 819 156 819 156 947 217 c 1,41,42
 915 290 915 290 915 390 c 0,43,44
 915 469 915 469 935 565 c 0,45,46
 986 805 986 805 994 1043 c 1,47,48
 1097 1061 1097 1061 1229 1130 c 1,49,-1
 1238 1124 l 1,50,51
 1139 861 1139 861 1088 619 c 0,52,53
 1070 532 1070 532 1070 460 c 0,54,55
 1070 336 1070 336 1124 258 c 0,56,57
 1195 156 1195 156 1333 156 c 0,58,59
 1431 156 1431 156 1504 191 c 1,60,61
 1563 374 1563 374 1597 538 c 0,62,63
 1655 811 1655 811 1663 1043 c 1,64,65
 1759 1061 1759 1061 1893 1130 c 1,0,-1
EndSplineSet
Validated: 1
EndChar

StartChar: x
Encoding: 120 120 72
Width: 978
GlyphClass: 2
Flags: W
HStem: 0 21G<11 93 740 823> 1110 20G<401 484 1114 1197>
LayerCount: 2
Fore
SplineSet
20 0 m 1,0,-1
 11 6 l 1,1,2
 327 290 327 290 536 542 c 1,3,4
 427 790 427 790 239 1038 c 1,5,6
 327 1053 327 1053 475 1130 c 1,7,-1
 484 1124 l 1,8,9
 525 898 525 898 638 643 c 1,10,11
 813 839 813 839 934 1038 c 1,12,13
 1040 1053 1040 1053 1188 1130 c 1,14,-1
 1197 1124 l 1,15,16
 884 839 884 839 670 580 c 1,17,18
 794 303 794 303 987 91 c 1,19,20
 897 77 897 77 749 0 c 1,21,-1
 740 6 l 1,22,23
 675 251 675 251 567 474 c 1,24,25
 402 293 402 293 276 91 c 1,26,27
 166 77 166 77 20 0 c 1,0,-1
EndSplineSet
Validated: 19457
EndChar

StartChar: y
Encoding: 121 121 73
Width: 1170
GlyphClass: 2
Flags: W
HStem: -380 21G<716 790.5> 0 156<540.09 676.366> 1110 20G<521 596 1184 1259>
VStem: 272 155<274.216 694.919>
LayerCount: 2
Fore
SplineSet
557 0 m 1,0,1
 420 50 420 50 338 159 c 0,2,3
 272 247 272 247 272 390 c 0,4,5
 272 469 272 469 292 565 c 0,6,7
 344 811 344 811 352 1043 c 1,8,9
 455 1061 455 1061 587 1130 c 1,10,-1
 596 1124 l 1,11,12
 496 861 496 861 445 619 c 0,13,14
 427 532 427 532 427 460 c 0,15,16
 427 336 427 336 481 258 c 0,17,18
 552 156 552 156 690 156 c 0,19,20
 802 156 802 156 881 202 c 1,21,22
 898 274 898 274 914 348 c 0,23,24
 990 706 990 706 1020 1043 c 1,25,26
 1118 1062 1118 1062 1250 1130 c 1,27,-1
 1259 1124 l 1,28,29
 1139 766 1139 766 1061 400 c 0,30,31
 990 65 990 65 955 -293 c 1,32,33
 857 -312 857 -312 724 -380 c 1,34,-1
 716 -374 l 1,35,36
 807 -106 807 -106 874 175 c 1,37,38
 729 53 729 53 567 0 c 1,39,-1
 557 0 l 1,0,1
EndSplineSet
Validated: 1
EndChar

StartChar: z
Encoding: 122 122 74
Width: 969
GlyphClass: 2
Flags: W
HStem: 0 21G<52 164.5 761 866.5> 45 72<384.875 808.656> 1014 72<445.358 806.286> 1110 20G<390.5 494.5 1026 1136>
LayerCount: 2
Fore
SplineSet
56 0 m 1,0,-1
 52 10 l 1,1,2
 509 506 509 506 810 999 c 1,3,4
 738 1014 738 1014 628 1014 c 0,5,6
 479 1014 479 1014 299 918 c 1,7,-1
 295 928 l 1,8,9
 374 1036 374 1036 407 1130 c 1,10,11
 582 1086 582 1086 753 1086 c 0,12,13
 920 1086 920 1086 1132 1130 c 1,14,-1
 1136 1120 l 1,15,16
 697 643 697 643 381 139 c 1,17,18
 483 117 483 117 604 117 c 0,19,20
 781 117 781 117 958 212 c 1,21,-1
 962 202 l 1,22,23
 883 94 883 94 850 0 c 1,24,25
 672 45 672 45 496 45 c 0,26,27
 273 45 273 45 56 0 c 1,0,-1
EndSplineSet
Validated: 1
EndChar

StartChar: braceleft
Encoding: 123 123 75
Width: 997
GlyphClass: 2
Flags: W
HStem: 672 152<326.217 427>
VStem: 391 173<115.576 668.699> 1137 169<1654.1 1727.27>
LayerCount: 2
Fore
SplineSet
646 -345 m 1,0,1
 523 -217 523 -217 450 -13 c 0,2,3
 391 154 391 154 391 349 c 0,4,5
 391 502 391 502 427 672 c 1,6,7
 302 672 302 672 192 642 c 1,8,-1
 189 652 l 1,9,10
 288 774 288 774 324 854 c 1,11,12
 395 824 395 824 459 824 c 1,13,14
 524 1130 524 1130 651 1392 c 0,15,16
 836 1774 836 1774 1189 1927 c 1,17,18
 1243 1887 1243 1887 1274.5 1824 c 128,-1,19
 1306 1761 1306 1761 1306 1689 c 1,20,21
 1223 1631 1223 1631 1147 1515 c 1,22,-1
 1137 1515 l 1,23,24
 1137 1618 1137 1618 1112 1688 c 0,25,26
 1083 1764 1083 1764 1020 1796 c 1,27,28
 870 1648 870 1648 772 1399 c 0,29,30
 673 1143 673 1143 607 832 c 0,31,32
 564 628 564 628 564 451 c 0,33,34
 564 264 564 264 612 105 c 0,35,36
 668 -79 668 -79 800 -198 c 1,37,38
 822 -155 822 -155 834 -99 c 0,39,40
 837 -83 837 -83 837 -67 c 0,41,42
 837 -32 837 -32 820 0 c 1,43,-1
 827 6 l 1,44,45
 870 -51 870 -51 932 -69 c 1,46,47
 875 -167 875 -167 819 -223 c 0,48,49
 737 -303 737 -303 646 -345 c 1,0,1
EndSplineSet
Validated: 1
EndChar

StartChar: bar
Encoding: 124 124 76
Width: 620
GlyphClass: 2
Flags: W
VStem: 169 603
LayerCount: 2
Fore
SplineSet
763 1660 m 1,0,-1
 772 1654 l 1,1,2
 645 1265 645 1265 550 817 c 0,3,4
 456 377 456 377 407 -61 c 1,5,6
 307 -81 307 -81 178 -150 c 1,7,-1
 169 -144 l 1,8,9
 305 288 305 288 396 716.5 c 128,-1,10
 487 1145 487 1145 534 1571 c 1,11,12
 623 1588 623 1588 763 1660 c 1,0,-1
EndSplineSet
Validated: 1
EndChar

StartChar: braceright
Encoding: 125 125 77
Width: 997
GlyphClass: 2
Flags: W
HStem: 758 152<906 1007.78>
VStem: 27 169<-144.615 -72.0952> 769 173<913.301 1466.42>
LayerCount: 2
Fore
SplineSet
688 1927 m 1,0,1
 811 1799 811 1799 883 1595 c 0,2,3
 942 1428 942 1428 942 1233 c 0,4,5
 942 1080 942 1080 906 910 c 1,6,7
 1031 910 1031 910 1141 940 c 1,8,-1
 1145 930 l 1,9,10
 1046 808 1046 808 1010 728 c 1,11,12
 939 758 939 758 874 758 c 1,13,14
 809 452 809 452 682 190 c 0,15,16
 497 -192 497 -192 145 -345 c 1,17,18
 91 -305 91 -305 59 -242 c 128,-1,19
 27 -179 27 -179 27 -107 c 1,20,21
 110 -49 110 -49 186 67 c 1,22,-1
 196 67 l 1,23,24
 196 -37 196 -37 221 -106 c 0,25,26
 251 -183 251 -183 314 -214 c 1,27,28
 464 -66 464 -66 561 183 c 0,29,30
 660 439 660 439 726 750 c 0,31,32
 769 954 769 954 769 1131 c 0,33,34
 769 1318 769 1318 721 1477 c 0,35,36
 665 1661 665 1661 533 1780 c 1,37,38
 511 1737 511 1737 499 1681 c 0,39,40
 496 1665 496 1665 496 1649 c 0,41,42
 496 1614 496 1614 513 1582 c 1,43,-1
 506 1576 l 1,44,45
 463 1633 463 1633 401 1651 c 1,46,47
 458 1749 458 1749 515 1805 c 0,48,49
 597 1885 597 1885 688 1927 c 1,0,1
EndSplineSet
Validated: 1
EndChar

StartChar: asciitilde
Encoding: 126 126 78
Width: 1236
GlyphClass: 2
Flags: W
HStem: 529 173<838.534 1092.99> 692 173<439.141 693.466>
LayerCount: 2
Fore
SplineSet
577 865 m 0,0,1
 667 865 667 865 721 790 c 0,2,3
 785 702 785 702 912 702 c 0,4,5
 1083 702 1083 702 1262 856 c 1,6,-1
 1266 846 l 1,7,8
 1162 702 1162 702 1122 592 c 1,9,10
 1037 529 1037 529 955 529 c 0,11,12
 865 529 865 529 811 604 c 0,13,14
 747 692 747 692 620 692 c 0,15,16
 449 692 449 692 270 538 c 1,17,-1
 266 548 l 1,18,19
 370 692 370 692 410 802 c 1,20,21
 496 865 496 865 577 865 c 0,0,1
EndSplineSet
Validated: 1
EndChar

StartChar: exclamdown
Encoding: 161 161 80
Width: 612
GlyphClass: 2
Flags: W
HStem: -380 21G<91 174.5> 1110 20G<518 571>
VStem: 383 264<907.02 1058.12>
LayerCount: 2
Fore
SplineSet
543 1130 m 1,0,-1
 549 1130 l 1,1,2
 593 1114 593 1114 620 1080 c 0,3,4
 647 1048 647 1048 647 1009 c 0,5,6
 647 996 647 996 644 982 c 0,7,8
 631 923 631 923 569 877 c 0,9,10
 531 850 531 850 486 833 c 1,11,-1
 480 833 l 1,12,13
 442 850 442 850 415 877 c 0,14,15
 383 911 383 911 383 954 c 0,16,17
 383 967 383 967 386 982 c 0,18,19
 398 1038 398 1038 452 1080 c 0,20,21
 493 1114 493 1114 543 1130 c 1,0,-1
99 -380 m 1,22,-1
 91 -374 l 1,23,24
 197 -87 197 -87 282 212 c 0,25,26
 364 497 364 497 416 743 c 1,27,28
 465 755 465 755 511 790 c 1,29,-1
 521 784 l 1,30,31
 460 498 460 498 422 215 c 0,32,33
 383 -75 383 -75 381 -288 c 1,34,35
 250 -301 250 -301 99 -380 c 1,22,-1
EndSplineSet
Validated: 1
EndChar

StartChar: sterling
Encoding: 163 163 81
Width: 1169
GlyphClass: 2
Flags: W
HStem: 0 21G<201 318.5 904.5 996> 45 72<478.906 886.581> 695 72<573 887.997> 1490 20G<901 1105>
LayerCount: 2
Fore
SplineSet
210 0 m 1,0,-1
 201 6 l 1,1,2
 311 333 311 333 390 690 c 1,3,4
 321 681 321 681 246 658 c 1,5,-1
 242 668 l 1,6,7
 300 740 300 740 336 804 c 1,8,9
 373 786 373 786 409 778 c 1,10,11
 438 931 438 931 438 1024 c 1,12,13
 487 1131 487 1131 651 1288 c 0,14,15
 811 1441 811 1441 991 1510 c 1,16,-1
 1001 1510 l 1,17,18
 1209 1422 1209 1422 1321 1249 c 1,19,-1
 1315 1238 l 1,20,21
 1187 1226 1187 1226 1100 1174 c 1,22,23
 966 1329 966 1329 773 1368 c 1,24,25
 638 1054 638 1054 573 768 c 1,26,27
 612 767 612 767 631 767 c 0,28,29
 799 767 799 767 986 804 c 1,30,-1
 990 794 l 1,31,32
 932 722 932 722 896 658 c 1,33,34
 756 695 756 695 601 695 c 0,35,36
 588 695 588 695 559 694 c 1,37,38
 499 388 499 388 473 126 c 1,39,40
 535 117 535 117 648 117 c 0,41,42
 876 117 876 117 1117 252 c 1,43,-1
 1120 242 l 1,44,45
 1015 110 1015 110 977 0 c 1,46,47
 832 45 832 45 638 45 c 0,48,49
 427 45 427 45 210 0 c 1,0,-1
EndSplineSet
Validated: 1
EndChar

StartChar: currency
Encoding: 164 164 82
Width: 1261
GlyphClass: 2
Flags: W
VStem: 406 122<681 859.883> 1048 120<657.261 838.09>
LayerCount: 2
Fore
SplineSet
637 1032 m 1,0,1
 558 964 558 964 532 841 c 0,2,3
 528 820 528 820 528 800 c 0,4,5
 528 676 528 676 687 572 c 0,6,7
 796 501 796 501 938 485 c 1,8,9
 1018 554 1018 554 1044 676 c 0,10,11
 1048 696 1048 696 1048 716 c 0,12,13
 1048 838 1048 838 888 946 c 0,14,15
 792 1010 792 1010 637 1032 c 1,0,1
872 1188 m 1,16,-1
 886 1188 l 1,17,18
 1004 1142 1004 1142 1082 1053 c 1,19,20
 1153 1116 1153 1116 1218 1187 c 1,21,22
 1273 1157 1273 1157 1350 1137 c 1,23,-1
 1350 1125 l 1,24,25
 1234 1052 1234 1052 1136 975 c 1,26,27
 1168 910 1168 910 1168 836 c 0,28,29
 1168 798 1168 798 1160 758 c 0,30,31
 1134 634 1134 634 1033 531 c 1,32,33
 1074 472 1074 472 1149 416 c 1,34,35
 1106 355 1106 355 1069 274 c 1,36,-1
 1057 271 l 1,37,38
 1002 381 1002 381 944 456 c 0,39,-1
 944 455 l 0,40,41
 833 376 833 376 703 327 c 1,42,-1
 689 327 l 1,43,44
 581 375 581 375 505 452 c 1,45,46
 441 398 441 398 361 311 c 1,47,48
 306 341 306 341 230 361 c 1,49,-1
 229 373 l 1,50,51
 355 453 355 453 447 526 c 1,52,53
 406 598 406 598 406 681 c 0,54,55
 406 718 406 718 414 758 c 0,56,57
 439 876 439 876 530 974 c 1,58,59
 479 1035 479 1035 416 1086 c 1,60,61
 459 1147 459 1147 496 1228 c 1,62,-1
 509 1231 l 1,63,64
 558 1133 558 1133 618 1053 c 1,65,66
 734 1143 734 1143 872 1188 c 1,16,-1
EndSplineSet
Validated: 1
EndChar

StartChar: yen
Encoding: 165 165 83
Width: 1265
GlyphClass: 2
Flags: W
HStem: 0 21G<510 595.5> 365 146<296.65 624.966 837.949 1133.78> 401 75<328.997 631 833 1102.41> 579 146<339.65 584.655 965.944 1177.35> 615 73<793 826> 1490 20G<521 607 1472.5 1535>
LayerCount: 2
Fore
SplineSet
519 0 m 1,0,-1
 510 6 l 1,1,2
 589 219 589 219 631 401 c 1,3,4
 438 396 438 396 234 365 c 1,5,-1
 230 375 l 1,6,7
 288 447 288 447 324 511 c 1,8,9
 484 483 484 483 632 476 c 1,10,11
 620 544 620 544 606 613 c 1,12,13
 445 605 445 605 277 579 c 1,14,-1
 273 589 l 1,15,16
 331 661 331 661 367 725 c 1,17,18
 481 705 481 705 588 696 c 1,19,20
 504 1063 504 1063 351 1418 c 1,21,22
 444 1431 444 1431 598 1510 c 1,23,-1
 607 1504 l 1,24,25
 633 1053 633 1053 765 688 c 1,26,27
 826 688 826 688 879 691 c 1,28,29
 1133 1058 1133 1058 1313 1427 c 1,30,31
 1419 1453 1419 1453 1526 1510 c 1,32,-1
 1535 1504 l 1,33,34
 1214 1105 1214 1105 962 696 c 1,35,36
 1088 705 1088 705 1240 725 c 1,37,-1
 1244 715 l 1,38,39
 1186 643 1186 643 1150 579 c 1,40,41
 1030 601 1030 601 911 610 c 1,42,43
 872 544 872 544 833 477 c 1,44,45
 991 484 991 484 1197 511 c 1,46,-1
 1200 501 l 1,47,48
 1142 429 1142 429 1107 365 c 1,49,50
 960 392 960 392 814 399 c 1,51,52
 786 245 786 245 781 92 c 1,53,54
 672 79 672 79 519 0 c 1,0,-1
826 615 m 1,55,56
 810 615 810 615 793 615 c 1,57,58
 806 583 l 1,59,60
 816 599 816 599 826 615 c 1,55,56
EndSplineSet
Validated: 1
EndChar

StartChar: brokenbar
Encoding: 166 166 84
Width: 644
GlyphClass: 2
Flags: W
VStem: 181 603
LayerCount: 2
Fore
SplineSet
775 1660 m 1,0,-1
 784 1654 l 1,1,2
 685 1416 685 1416 647.5 1240.5 c 128,-1,3
 610 1065 610 1065 605 872 c 1,4,5
 534 857 534 857 376 783 c 1,6,-1
 368 789 l 1,7,8
 468 977 468 977 508 1169 c 0,9,10
 546 1348 546 1348 546 1542 c 0,11,12
 546 1556 546 1556 546 1571 c 1,13,14
 625 1589 625 1589 775 1660 c 1,0,-1
190 -150 m 1,15,-1
 181 -144 l 1,16,17
 280 94 280 94 317.5 269.5 c 128,-1,18
 355 445 355 445 360 638 c 1,19,20
 431 653 431 653 589 727 c 1,21,-1
 597 721 l 1,22,23
 496 533 496 533 456 341 c 0,24,25
 419 162 419 162 419 -32 c 0,26,27
 419 -46 419 -46 419 -61 c 1,28,29
 340 -79 340 -79 190 -150 c 1,15,-1
EndSplineSet
Validated: 1
EndChar

StartChar: section
Encoding: 167 167 85
Width: 1028
VWidth: 0
GlyphClass: 2
Flags: W
HStem: 0 21G<431.5 576.5> 1490 20G<772.5 917.5>
VStem: 305 138<681.141 854.25> 458 121<1155.65 1293.98> 770 121<216.016 354.351> 906 138<655.75 828.859>
DStem2: 566 621 482 494 0.892366 -0.451312<-141.809 316.75> 708 1096 609 977 0.892366 -0.451312<-156.401 302.158>
LayerCount: 2
Fore
SplineSet
519 0 m 1,0,-1
 509 0 l 1,1,2
 354 38 354 38 263 200 c 1,3,-1
 268 212 l 1,4,5
 374 229 374 229 440 268 c 1,6,7
 506 139 506 139 690 101 c 1,8,9
 754 158 754 158 768 232 c 0,10,11
 770 245 770 245 770 257 c 0,12,13
 770 349 770 349 641 414 c 2,14,-1
 482 494 l 2,15,16
 305 583 305 583 305 713 c 0,17,18
 305 737 305 737 311 762 c 0,19,20
 333 858 333 858 418 939 c 0,21,22
 461 980 461 980 514 1015 c 1,23,-1
 519 1007 l 1,24,25
 463 928 463 928 448 851 c 0,26,27
 443 825 443 825 443 801 c 0,28,29
 443 683 443 683 566 621 c 2,30,-1
 740 533 l 2,31,32
 891 456 891 456 891 345 c 0,33,34
 891 326 891 326 887 307 c 0,35,36
 863 196 863 196 723 99 c 0,37,38
 634 38 634 38 519 0 c 1,0,-1
830 1510 m 1,39,-1
 840 1510 l 1,40,41
 995 1472 995 1472 1086 1310 c 1,42,-1
 1081 1298 l 1,43,44
 975 1281 975 1281 909 1242 c 1,45,46
 843 1371 843 1371 659 1409 c 1,47,48
 595 1352 595 1352 581 1278 c 0,49,50
 579 1265 579 1265 579 1253 c 0,51,52
 579 1161 579 1161 708 1096 c 2,53,-1
 867 1016 l 2,54,55
 1044 927 1044 927 1044 797 c 0,56,57
 1044 773 1044 773 1038 748 c 0,58,59
 1016 652 1016 652 931 571 c 0,60,61
 888 530 888 530 835 495 c 1,62,-1
 830 503 l 1,63,64
 886 582 886 582 901 659 c 0,65,66
 906 685 906 685 906 709 c 0,67,68
 906 827 906 827 783 889 c 2,69,-1
 609 977 l 2,70,71
 458 1054 458 1054 458 1165 c 0,72,73
 458 1184 458 1184 462 1203 c 0,74,75
 486 1314 486 1314 626 1411 c 0,76,77
 715 1472 715 1472 830 1510 c 1,39,-1
EndSplineSet
Validated: 1
EndChar

StartChar: dieresis
Encoding: 168 168 86
Width: 566
GlyphClass: 2
Flags: W
HStem: 1230 237
VStem: 334 211<1279.23 1417.89> 594 211<1279.23 1417.89>
LayerCount: 2
Fore
SplineSet
723 1467 m 1,0,-1
 727 1467 l 1,1,2
 762 1454 762 1454 783 1427 c 0,3,4
 805 1401 805 1401 805 1369 c 0,5,6
 805 1359 805 1359 803 1349 c 0,7,8
 793 1302 793 1302 744 1265 c 0,9,10
 714 1244 714 1244 676 1230 c 1,11,-1
 672 1230 l 1,12,13
 637 1246 637 1246 620 1265 c 0,14,15
 594 1291 594 1291 594 1326 c 0,16,17
 594 1337 594 1337 597 1349 c 0,18,19
 607 1394 607 1394 649 1427 c 0,20,21
 682 1454 682 1454 723 1467 c 1,0,-1
463 1467 m 1,22,-1
 467 1467 l 1,23,24
 502 1454 502 1454 523 1427 c 0,25,26
 545 1401 545 1401 545 1369 c 0,27,28
 545 1359 545 1359 543 1349 c 0,29,30
 533 1302 533 1302 484 1265 c 0,31,32
 454 1244 454 1244 416 1230 c 1,33,-1
 412 1230 l 1,34,35
 377 1246 377 1246 360 1265 c 0,36,37
 334 1291 334 1291 334 1326 c 0,38,39
 334 1337 334 1337 337 1349 c 0,40,41
 347 1394 347 1394 389 1427 c 0,42,43
 422 1454 422 1454 463 1467 c 1,22,-1
EndSplineSet
Validated: 1
EndChar

StartChar: copyright
Encoding: 169 169 87
Width: 1401
GlyphClass: 2
Flags: W
HStem: 386 69<626.729 971.797> 572 141<803.081 942.338> 1458 72<830.407 1185.08>
VStem: 338 76<660.38 1035.98> 591 128<795.957 1039.91> 1392 77<870.317 1252.73>
LayerCount: 2
Fore
SplineSet
976 1320 m 1,0,1
 1058 1299 1058 1299 1097 1266 c 0,2,3
 1158 1215 1158 1215 1186 1155 c 1,4,5
 1118 1145 1118 1145 1037 1098 c 1,6,-1
 1029 1104 l 1,7,8
 1006 1134 1006 1134 977 1157 c 0,9,10
 922 1201 922 1201 817 1215 c 1,11,12
 753 1114 753 1114 726 990 c 0,13,14
 719 956 719 956 719 925 c 0,15,16
 719 808 719 808 825 741 c 0,17,18
 869 713 869 713 939 713 c 0,19,20
 1046 713 1046 713 1129 787 c 1,21,-1
 1140 780 l 1,22,23
 1118 746 1118 746 1091 721 c 0,24,25
 980 610 980 610 817 572 c 1,26,-1
 807 572 l 1,27,28
 715 604 715 604 654 676 c 0,29,30
 591 751 591 751 591 856 c 0,31,32
 591 897 591 897 601 942 c 0,33,34
 631 1085 631 1085 757 1194 c 0,35,36
 843 1269 843 1269 966 1320 c 1,37,-1
 976 1320 l 1,0,1
1026 1530 m 0,38,39
 1268 1530 1268 1530 1387 1357 c 0,40,41
 1469 1238 1469 1238 1469 1087 c 0,42,43
 1469 1023 1469 1023 1454 953 c 0,44,45
 1400 701 1400 701 1207 549 c 0,46,47
 1001 386 1001 386 781 386 c 0,48,49
 558 386 558 386 428 549 c 0,50,51
 338 662 338 662 338 818 c 0,52,53
 338 882 338 882 353 953 c 0,54,55
 405 1197 405 1197 598 1362 c 0,56,57
 794 1530 794 1530 1026 1530 c 0,38,39
1009 1458 m 0,58,59
 823 1458 823 1458 646 1312 c 0,60,61
 471 1168 471 1168 427 953 c 0,62,63
 414 889 414 889 414 832 c 0,64,65
 414 696 414 696 488 600 c 0,66,67
 600 455 600 455 799 455 c 0,68,69
 986 455 986 455 1166 605 c 0,70,71
 1335 745 1335 745 1379 953 c 0,72,73
 1392 1017 1392 1017 1392 1075 c 0,74,75
 1392 1209 1392 1209 1321 1311 c 0,76,77
 1217 1458 1217 1458 1009 1458 c 0,58,59
EndSplineSet
Validated: 1
EndChar

StartChar: ordfeminine
Encoding: 170 170 88
Width: 821
GlyphClass: 2
Flags: W
HStem: 757 146<279.65 564.777 574.994 599.036 609.193 893.919> 784 92<311.318 861.744> 959 109<566.02 604> 1288 25<618.362 688.564> 1466 84<685.043 722.955>
VStem: 411 118<1107.05 1243.96> 796 118<1097.17 1403.04>
LayerCount: 2
Fore
SplineSet
213 767 m 1,0,1
 271 839 271 839 307 903 c 1,2,3
 445 876 445 876 604 876 c 0,4,5
 770 876 770 876 957 903 c 1,6,-1
 961 893 l 1,7,8
 903 821 903 821 866 757 c 1,9,10
 730 784 730 784 570 784 c 0,11,12
 403 784 403 784 217 757 c 1,13,-1
 213 767 l 1,0,1
717 1550 m 1,14,-1
 727 1550 l 1,15,16
 799 1524 799 1524 859 1463 c 0,17,18
 914 1405 914 1405 914 1323 c 0,19,20
 914 1295 914 1295 908 1265 c 0,21,22
 884 1151 884 1151 884 1077 c 0,23,24
 884 1050 884 1050 887 1028 c 1,25,26
 812 1015 812 1015 711 959 c 1,27,-1
 702 962 l 1,28,29
 721 1005 721 1005 731 1036 c 1,30,-1
 604 959 l 1,31,-1
 591 959 l 1,32,33
 513 982 513 982 461 1028 c 0,34,35
 411 1071 411 1071 411 1130 c 0,36,37
 411 1146 411 1146 415 1163 c 0,38,39
 432 1244 432 1244 510 1287 c 0,40,41
 557 1313 557 1313 604 1313 c 0,42,43
 657 1313 657 1313 696 1298 c 1,44,-1
 694 1288 l 1,45,46
 632 1288 632 1288 587 1261 c 0,47,48
 540 1233 540 1233 531 1190 c 0,49,50
 529 1182 529 1182 529 1175 c 0,51,52
 529 1134 529 1134 581 1102 c 0,53,54
 636 1068 636 1068 742 1068 c 1,55,56
 770 1152 770 1152 790 1246 c 0,57,58
 796 1274 796 1274 796 1299 c 0,59,60
 796 1355 796 1355 764 1391 c 0,61,62
 702 1458 702 1458 562 1466 c 1,63,64
 630 1515 630 1515 717 1550 c 1,14,-1
EndSplineSet
Validated: 1
EndChar

StartChar: guillemotleft
Encoding: 171 171 89
Width: 1373
GlyphClass: 2
Flags: W
LayerCount: 2
Fore
SplineSet
1435 1263 m 1,0,-1
 1439 1253 l 1,1,2
 1380 1181 1380 1181 1290 1026 c 1,3,4
 1089 925 1089 925 943 777 c 1,5,6
 1014 530 1014 530 1262 430 c 1,7,-1
 1265 420 l 1,8,9
 1145 268 1145 268 1122 193 c 1,10,11
 996 499 996 499 766 620 c 1,12,-1
 762 630 l 1,13,14
 870 766 870 766 905 872 c 1,15,16
 1155 1001 1155 1001 1435 1263 c 1,0,-1
957 1263 m 1,17,-1
 961 1253 l 1,18,19
 902 1181 902 1181 812 1026 c 1,20,21
 611 925 611 925 465 777 c 1,22,23
 536 530 536 530 784 430 c 1,24,-1
 787 420 l 1,25,26
 667 268 667 268 644 193 c 1,27,28
 518 499 518 499 288 620 c 1,29,-1
 284 630 l 1,30,31
 392 766 392 766 427 872 c 1,32,33
 677 1001 677 1001 957 1263 c 1,17,-1
EndSplineSet
Validated: 1
EndChar

StartChar: logicalnot
Encoding: 172 172 90
Width: 1266
GlyphClass: 2
Flags: W
HStem: 693 106<468.523 1099.12>
LayerCount: 2
Fore
SplineSet
419 857 m 1,0,1
 617 799 617 799 816.5 799 c 128,-1,2
 1016 799 1016 799 1292 857 c 1,3,-1
 1296 847 l 1,4,5
 1174 675 1174 675 1104 485 c 1,6,7
 1028 464 1028 464 918 408 c 1,8,-1
 909 414 l 1,9,10
 1039 525 1039 525 1104 651 c 1,11,12
 948 693 948 693 767 693 c 0,13,14
 534 693 534 693 291 635 c 1,15,-1
 287 645 l 1,16,17
 380 763 380 763 419 857 c 1,0,1
EndSplineSet
Validated: 1
EndChar

StartChar: uni00AD
Encoding: 173 173 91
Width: 1266
GlyphClass: 2
Flags: W
HStem: 635 222<399.354 555.286 1027.71 1183.65> 693 106<471.71 1111.29>
LayerCount: 2
Fore
SplineSet
419 857 m 1,0,1
 617 799 617 799 816.5 799 c 128,-1,2
 1016 799 1016 799 1292 857 c 1,3,-1
 1296 847 l 1,4,5
 1203 729 1203 729 1164 635 c 1,6,7
 966 693 966 693 766.5 693 c 128,-1,8
 567 693 567 693 291 635 c 1,9,-1
 287 645 l 1,10,11
 380 763 380 763 419 857 c 1,0,1
EndSplineSet
Validated: 1
EndChar

StartChar: registered
Encoding: 174 174 92
Width: 1401
GlyphClass: 2
Flags: W
HStem: 386 69<626.729 971.797> 780 44<766.994 914.316> 1129 21G<586 690.5> 1244 132<730.005 1044.62> 1458 72<830.407 1185.08>
VStem: 338 76<660.38 1035.98> 544 195<597.583 670.934> 1097 140<960.662 1188.56> 1392 77<870.317 1252.73>
LayerCount: 2
Fore
SplineSet
1026 1530 m 0,0,1
 1268 1530 1268 1530 1387 1357 c 0,2,3
 1469 1238 1469 1238 1469 1087 c 0,4,5
 1469 1023 1469 1023 1454 953 c 0,6,7
 1400 701 1400 701 1207 549 c 0,8,9
 1001 386 1001 386 781 386 c 0,10,11
 558 386 558 386 428 549 c 0,12,13
 338 662 338 662 338 818 c 0,14,15
 338 882 338 882 353 953 c 0,16,17
 405 1197 405 1197 598 1362 c 0,18,19
 794 1530 794 1530 1026 1530 c 0,0,1
1009 1458 m 0,20,21
 823 1458 823 1458 646 1312 c 0,22,23
 471 1168 471 1168 427 953 c 0,24,25
 414 889 414 889 414 832 c 0,26,27
 414 696 414 696 488 600 c 0,28,29
 600 455 600 455 799 455 c 0,30,31
 986 455 986 455 1166 605 c 0,32,33
 1335 745 1335 745 1379 953 c 0,34,35
 1392 1017 1392 1017 1392 1075 c 0,36,37
 1392 1209 1392 1209 1321 1311 c 0,38,39
 1217 1458 1217 1458 1009 1458 c 0,20,21
681 1312 m 1,40,41
 827 1376 827 1376 949 1376 c 0,42,43
 1107 1376 1107 1376 1184 1281 c 0,44,45
 1237 1215 1237 1215 1237 1126 c 0,46,47
 1237 1098 1237 1098 1232 1068 c 0,48,49
 1217 979 1217 979 1157 912 c 0,50,51
 1113 862 1113 862 1042 824 c 1,52,53
 1085 712 1085 712 1182 624 c 1,54,55
 1098 597 1098 597 1006 544 c 1,56,-1
 997 550 l 1,57,58
 963 695 963 695 908 782 c 1,59,60
 889 780 889 780 869 780 c 0,61,62
 801 780 801 780 757 798 c 1,63,64
 739 692 739 692 739 614 c 0,65,66
 739 610 739 610 739 606 c 1,67,68
 658 596 658 596 553 542 c 1,69,-1
 544 548 l 1,70,71
 601 691 601 691 631 830.5 c 128,-1,72
 661 970 661 970 666 1103 c 1,73,74
 747 1113 747 1113 852 1167 c 1,75,-1
 861 1161 l 1,76,77
 801 1031 801 1031 779 925 c 0,78,79
 770 883 770 883 765 847 c 1,80,81
 798 824 798 824 844 824 c 0,82,83
 932 824 932 824 996 876 c 0,84,85
 1072 938 1072 938 1092 1031 c 0,86,87
 1097 1056 1097 1056 1097 1079 c 0,88,89
 1097 1144 1097 1144 1055 1190 c 0,90,91
 1005 1244 1005 1244 915 1244 c 0,92,93
 786 1244 786 1244 595 1129 c 1,94,-1
 586 1135 l 1,95,96
 640 1212 640 1212 681 1312 c 1,40,41
EndSplineSet
Validated: 1
EndChar

StartChar: macron
Encoding: 175 175 93
Width: 620
GlyphClass: 2
Flags: W
HStem: 1303 72<417.879 771.493>
VStem: 325 539
LayerCount: 2
Fore
SplineSet
415 1412 m 5,0,1
 507 1375 507 1375 615 1375 c 132,-1,2
 723 1375 723 1375 864 1412 c 5,3,-1
 868 1402 l 5,4,5
 810 1330 810 1330 774 1266 c 5,6,7
 694 1303 694 1303 585 1303 c 4,8,9
 466 1303 466 1303 325 1266 c 5,10,-1
 321 1276 l 5,11,12
 379 1348 379 1348 415 1412 c 5,0,1
EndSplineSet
Validated: 1
EndChar

StartChar: degree
Encoding: 176 176 94
Width: 674
GlyphClass: 2
Flags: W
HStem: 887 663
VStem: 303 94<1141.99 1317.11> 797 93<1124.36 1293.5>
LayerCount: 2
Fore
SplineSet
671 1550 m 1,0,1
 767 1513 767 1513 830 1438 c 0,2,3
 890 1367 890 1367 890 1280 c 0,4,5
 890 1251 890 1251 883 1219 c 0,6,7
 855 1087 855 1087 717 986 c 0,8,9
 632 925 632 925 531 887 c 1,10,-1
 521 887 l 1,11,12
 436 925 436 925 377 986 c 0,13,14
 303 1063 303 1063 303 1160 c 0,15,16
 303 1188 303 1188 309 1219 c 0,17,18
 335 1343 335 1343 456 1438 c 0,19,20
 550 1513 550 1513 661 1550 c 1,21,-1
 671 1550 l 1,0,1
481 1430 m 1,22,23
 420 1378 420 1378 400 1283 c 0,24,25
 397 1266 397 1266 397 1250 c 0,26,27
 397 1154 397 1154 519 1074 c 0,28,29
 605 1018 605 1018 712 1009 c 1,30,31
 774 1062 774 1062 794 1156 c 0,32,33
 797 1171 797 1171 797 1186 c 0,34,35
 797 1280 797 1280 673 1365 c 8,36,37
 592 1420 592 1420 481 1430 c 1,22,23
EndSplineSet
Validated: 1
EndChar

StartChar: plusminus
Encoding: 177 177 95
Width: 1266
GlyphClass: 2
Flags: W
HStem: 162 222<299.354 454.918 927.082 1082.65> 220 106<371.221 1010.78> 796 222<433.354 591.85 1059.15 1217.65> 853 109<494.016 760 891 1151.86>
LayerCount: 2
Fore
SplineSet
1029 1390 m 9,0,-1
 1038 1384 l 1,1,2
 935 1146 935 1146 891 961 c 1,3,4
 1077 966 1077 966 1326 1018 c 1,5,-1
 1330 1008 l 1,6,7
 1237 890 1237 890 1198 796 c 1,8,9
 1034 844 1034 844 869 852 c 1,10,11
 850 733 850 733 850 611 c 0,12,13
 850 561 850 561 853 511 c 1,14,15
 755 492 755 492 622 424 c 1,16,-1
 613 430 l 1,17,18
 716 668 716 668 760 853 c 1,19,20
 574 848 574 848 325 796 c 1,21,-1
 321 806 l 1,22,23
 414 924 414 924 453 1018 c 1,24,25
 617 970 617 970 782 962 c 1,26,27
 802 1084 802 1084 802 1209 c 0,28,29
 802 1256 802 1256 799 1303 c 1,30,31
 897 1322 897 1322 1029 1390 c 9,0,-1
319 384 m 1,32,33
 517 326 517 326 716 326 c 128,-1,34
 915 326 915 326 1192 384 c 1,35,-1
 1195 374 l 1,36,37
 1102 256 1102 256 1063 162 c 1,38,39
 865 220 865 220 666 220 c 128,-1,40
 467 220 467 220 190 162 c 1,41,-1
 187 172 l 1,42,43
 280 290 280 290 319 384 c 1,32,33
EndSplineSet
Validated: 1
EndChar

StartChar: uni00B2
Encoding: 178 178 96
Width: 635
GlyphClass: 2
Flags: W
HStem: 776 83<329.972 691.469>
VStem: 324 117<1249.35 1376.59> 705 139<1190.59 1363.48>
LayerCount: 2
Fore
SplineSet
628 1550 m 1,0,-1
 638 1550 l 1,1,2
 718 1523 718 1523 783 1462 c 0,3,4
 844 1403 844 1403 844 1322 c 0,5,6
 844 1297 844 1297 838 1269 c 0,7,8
 813 1151 813 1151 621 1056 c 0,9,10
 470 981 470 981 327 879 c 1,11,12
 422 859 422 859 529 859 c 0,13,14
 647 859 647 859 776 922 c 1,15,-1
 779 915 l 1,16,17
 719 832 719 832 695 744 c 1,18,19
 582 776 582 776 471 776 c 128,-1,20
 360 776 360 776 221 744 c 1,21,-1
 214 750 l 1,22,23
 214 772 214 772 219 794 c 0,24,25
 240 894 240 894 369 984 c 0,26,27
 422 1021 422 1021 603 1139 c 0,28,29
 688 1195 688 1195 702 1258 c 0,30,31
 704 1268 704 1268 705 1278 c 0,32,33
 705 1330 705 1330 647 1376 c 0,34,35
 578 1431 578 1431 482 1449 c 1,36,37
 455 1411 455 1411 444 1361 c 0,38,39
 441 1346 441 1346 441 1333 c 0,40,41
 441 1283 441 1283 491 1268 c 1,42,43
 427 1255 427 1255 355 1202 c 1,44,-1
 347 1208 l 1,45,46
 324 1236 324 1236 324 1269 c 0,47,48
 324 1279 324 1279 326 1289 c 0,49,50
 344 1373 344 1373 445 1452 c 0,51,52
 517 1509 517 1509 628 1550 c 1,0,-1
EndSplineSet
Validated: 1
EndChar

StartChar: uni00B3
Encoding: 179 179 97
Width: 642
GlyphClass: 2
Flags: W
VStem: 387 109<1310.63 1415.5> 696 117<929.547 1088.34 1267.46 1418.87>
LayerCount: 2
Fore
SplineSet
642 1550 m 1,0,1
 652 1550 l 1,2,3
 709 1530 709 1530 752 1498 c 0,4,5
 822 1447 822 1447 822 1381 c 0,6,7
 822 1368 822 1368 819 1354 c 0,8,9
 799 1259 799 1259 665 1207 c 1,10,11
 727 1204 727 1204 771 1161 c 0,12,13
 813 1119 813 1119 813 1060 c 0,14,15
 813 1040 813 1040 808 1018 c 0,16,17
 788 925 788 925 688 848 c 0,18,19
 595 777 595 777 481 744 c 1,20,-1
 471 744 l 1,21,22
 395 782 395 782 353 818 c 0,23,24
 303 860 303 860 249 938 c 1,25,-1
 256 949 l 1,26,27
 314 951 314 951 395 978 c 1,28,29
 423 939 423 939 460 909 c 0,30,31
 533 851 533 851 613 825 c 1,32,33
 673 881 673 881 692 970 c 0,34,35
 696 986 696 986 696 1001 c 0,36,37
 696 1058 696 1058 644 1094 c 0,38,39
 587 1133 587 1133 489 1148 c 1,40,-1
 491 1156 l 1,41,42
 686 1222 686 1222 704 1310 c 0,43,44
 707 1322 707 1322 707 1334 c 0,45,46
 707 1382 707 1382 660 1414 c 0,47,48
 602 1454 602 1454 537 1460 c 1,49,50
 506 1422 506 1422 497 1378 c 0,51,52
 496 1371 496 1371 496 1364 c 0,53,54
 496 1330 496 1330 533 1310 c 1,55,56
 477 1297 477 1297 420 1253 c 1,57,-1
 412 1259 l 1,58,59
 387 1280 387 1280 387 1316 c 0,60,61
 387 1329 387 1329 390 1344 c 0,62,63
 404 1408 404 1408 503 1477 c 0,64,65
 570 1524 570 1524 642 1550 c 1,0,1
EndSplineSet
Validated: 1
EndChar

StartChar: acute
Encoding: 180 180 98
Width: 433
GlyphClass: 2
Flags: W
HStem: 1180 350
VStem: 306 51<1193.36 1211.48>
LayerCount: 2
Fore
SplineSet
488 1530 m 1,0,1
 581 1452 581 1452 684 1438 c 1,2,-1
 687 1428 l 1,3,4
 484 1360 484 1360 357 1180 c 1,5,6
 347 1180 l 1,7,8
 334 1195 334 1195 306 1205 c 1,9,10
 343 1413 343 1413 488 1530 c 1,0,1
EndSplineSet
Validated: 1
EndChar

StartChar: periodcentered
Encoding: 183 183 99
Width: 358
GlyphClass: 2
Flags: W
HStem: 607 297
VStem: 208 264<681.02 832.125>
LayerCount: 2
Fore
SplineSet
374 904 m 1,0,1
 418 888 418 888 445 854 c 0,2,3
 472 822 472 822 472 783 c 0,4,5
 472 770 472 770 469 756 c 0,6,7
 456 697 456 697 394 651 c 0,8,9
 356 624 356 624 311 607 c 1,10,-1
 305 607 l 1,11,12
 267 624 267 624 240 651 c 0,13,14
 208 685 208 685 208 728 c 0,15,16
 208 741 208 741 211 756 c 0,17,18
 223 812 223 812 277 854 c 0,19,20
 318 888 318 888 368 904 c 1,21,-1
 374 904 l 1,0,1
EndSplineSet
Validated: 1
EndChar

StartChar: cedilla
Encoding: 184 184 100
Width: 406
GlyphClass: 2
Flags: W
HStem: -380 164<44.5315 169.855>
VStem: 102 97<-21.7744 68> 184 136<-200.751 -47.8125>
LayerCount: 2
Fore
SplineSet
116 68 m 1,0,-1
 213 68 l 1,1,-1
 199 0 l 1,2,3
 320 -51 320 -51 320 -150 c 0,4,5
 320 -169 320 -169 316 -189 c 0,6,7
 275 -380 275 -380 -25 -380 c 1,8,-1
 -29 -370 l 1,9,10
 37 -290 37 -290 64 -216 c 1,11,12
 168 -216 168 -216 181 -154 c 0,13,14
 184 -142 184 -142 184 -130 c 0,15,16
 184 -63 184 -63 102 0 c 1,17,-1
 116 68 l 1,0,-1
EndSplineSet
Validated: 1
EndChar

StartChar: uni00B9
Encoding: 185 185 101
Width: 545
GlyphClass: 2
Flags: W
VStem: 319 454
LayerCount: 2
Fore
SplineSet
764 1550 m 1,0,-1
 773 1544 l 1,1,2
 700 1375 700 1375 660 1185.5 c 128,-1,3
 620 996 620 996 619 824 c 1,4,5
 514 803 514 803 413 744 c 1,6,-1
 404 750 l 1,7,8
 471 901 471 901 520 1127 c 0,9,10
 549 1262 549 1262 559 1394 c 1,11,12
 479 1323 479 1323 421 1237 c 1,13,14
 382 1258 382 1258 319 1267 c 1,15,16
 439 1346 439 1346 558 1473 c 1,17,18
 670 1494 670 1494 764 1550 c 1,0,-1
EndSplineSet
Validated: 1
EndChar

StartChar: ordmasculine
Encoding: 186 186 102
Width: 820
GlyphClass: 2
Flags: W
HStem: 757 146<279.65 564.777 574.963 599.036 609.162 892.919> 784 92<311.318 860.744>
VStem: 418 120<1138.32 1345.61> 814 118<1152.45 1374.64>
LayerCount: 2
Fore
SplineSet
213 767 m 1,0,1
 271 839 271 839 307 903 c 1,2,3
 445 876 445 876 604 876 c 0,4,5
 769 876 769 876 956 903 c 1,6,-1
 960 893 l 1,7,8
 902 821 902 821 865 757 c 1,9,10
 729 784 729 784 570 784 c 0,11,12
 403 784 403 784 217 757 c 1,13,-1
 213 767 l 1,0,1
733 1550 m 1,14,-1
 744 1550 l 1,15,16
 833 1519 833 1519 882 1458 c 0,17,18
 932 1396 932 1396 932 1313 c 0,19,20
 932 1280 932 1280 924 1244 c 0,21,22
 901 1138 901 1138 806 1054 c 0,23,24
 721 980 721 980 615 942 c 1,25,-1
 605 942 l 1,26,27
 515 980 515 980 462 1054 c 0,28,29
 418 1115 418 1115 418 1189 c 0,30,31
 418 1216 418 1216 424 1244 c 0,32,33
 451 1371 451 1371 558 1458 c 0,34,35
 631 1519 631 1519 733 1550 c 1,14,-1
604 1448 m 1,36,37
 561 1378 561 1378 544 1300 c 0,38,39
 538 1270 538 1270 538 1244 c 0,40,41
 538 1179 538 1179 577 1137 c 0,42,43
 640 1070 640 1070 749 1058 c 1,44,45
 792 1128 792 1128 808 1206 c 0,46,47
 814 1236 814 1236 814 1263 c 0,48,49
 814 1328 814 1328 776 1369 c 0,50,51
 714 1436 714 1436 604 1448 c 1,36,37
EndSplineSet
Validated: 1
EndChar

StartChar: guillemotright
Encoding: 187 187 103
Width: 1373
GlyphClass: 2
Flags: W
LayerCount: 2
Fore
SplineSet
560 1263 m 1,0,1
 686 957 686 957 916 836 c 1,2,-1
 920 826 l 1,3,4
 812 690 812 690 777 584 c 1,5,6
 527 455 527 455 247 193 c 1,7,-1
 243 203 l 1,8,9
 302 275 302 275 392 430 c 1,10,11
 593 531 593 531 739 679 c 1,12,13
 668 926 668 926 420 1026 c 1,14,-1
 417 1036 l 1,15,16
 537 1188 537 1188 560 1263 c 1,0,1
1038 1263 m 1,17,18
 1164 957 1164 957 1394 836 c 1,19,-1
 1398 826 l 1,20,21
 1290 690 1290 690 1255 584 c 1,22,23
 1005 455 1005 455 725 193 c 1,24,-1
 721 203 l 1,25,26
 780 275 780 275 870 430 c 1,27,28
 1071 531 1071 531 1217 679 c 1,29,30
 1146 926 1146 926 898 1026 c 1,31,-1
 895 1036 l 1,32,33
 1015 1188 1015 1188 1038 1263 c 1,17,18
EndSplineSet
Validated: 1
EndChar

StartChar: onequarter
Encoding: 188 188 104
Width: 1477
GlyphClass: 2
Flags: W
HStem: 0 21G<399.5 455 1082 1141.5> 212 40<873.649 1151.53> 1490 20G<809 865 1372 1427.5>
LayerCount: 2
Fore
SplineSet
856 1510 m 1,0,-1
 865 1504 l 1,1,2
 792 1335 792 1335 751.5 1145.5 c 128,-1,3
 711 956 711 956 711 784 c 1,4,5
 606 763 606 763 505 704 c 1,6,-1
 496 710 l 1,7,8
 563 861 563 861 611 1087 c 0,9,10
 640 1222 640 1222 651 1354 c 1,11,12
 571 1283 571 1283 512 1197 c 1,13,14
 473 1218 473 1218 411 1227 c 1,15,16
 531 1306 531 1306 650 1433 c 1,17,18
 762 1454 762 1454 856 1510 c 1,0,-1
455 6 m 1,19,-1
 444 0 l 1,20,21
 355 58 355 58 271 82 c 1,22,23
 550 390 550 390 892 830 c 0,24,25
 1148 1160 1148 1160 1372 1504 c 1,26,-1
 1383 1510 l 1,27,28
 1472 1452 1472 1452 1556 1428 c 1,29,30
 1217 1063 1217 1063 990 772 c 0,31,32
 646 331 646 331 455 6 c 1,19,-1
1091 0 m 1,33,-1
 1082 6 l 1,34,35
 1119 87 1119 87 1154 201 c 1,36,37
 1075 212 1075 212 1006 212 c 0,38,39
 899 212 899 212 777 195 c 1,40,-1
 756 250 l 1,41,42
 1036 471 1036 471 1236 729 c 1,43,44
 1344 750 1344 750 1438 806 c 1,45,-1
 1447 800 l 1,46,47
 1374 631 1374 631 1334 441.5 c 128,-1,48
 1294 252 1294 252 1293 80 c 1,49,50
 1192 59 1192 59 1091 0 c 1,33,-1
1222 634 m 1,51,52
 991 427 991 427 871 268 c 1,53,54
 953 252 953 252 1046 252 c 0,55,56
 1112 252 1112 252 1171 267 c 1,57,58
 1192 368 1192 368 1204 443 c 0,59,60
 1221 539 1221 539 1222 634 c 1,51,52
EndSplineSet
Validated: 1
EndChar

StartChar: onehalf
Encoding: 189 189 105
Width: 1604
GlyphClass: 2
Flags: W
HStem: 0 21G<875 951.5 1299.5 1368> 32 83<990.971 1352.47> 1490 20G<809 865>
VStem: 985 117<505.352 633.336> 1366 139<446.593 619.479>
LayerCount: 2
Fore
SplineSet
882 0 m 1,0,-1
 875 6 l 1,1,2
 875 28 875 28 880 50 c 0,3,4
 901 150 901 150 1030 240 c 0,5,6
 1083 277 1083 277 1264 395 c 0,7,8
 1350 451 1350 451 1364 514 c 0,9,10
 1366 524 1366 524 1366 534 c 0,11,12
 1366 586 1366 586 1308 632 c 0,13,14
 1239 687 1239 687 1143 705 c 1,15,16
 1116 667 1116 667 1105 617 c 0,17,18
 1102 602 1102 602 1102 589 c 0,19,20
 1102 539 1102 539 1151 524 c 1,21,22
 1087 511 1087 511 1016 458 c 1,23,-1
 1008 464 l 1,24,25
 985 492 985 492 985 525 c 0,26,27
 985 535 985 535 987 545 c 0,28,29
 1005 629 1005 629 1105 708 c 0,30,31
 1178 765 1178 765 1289 806 c 1,32,-1
 1299 806 l 1,33,34
 1379 779 1379 779 1444 718 c 0,35,36
 1505 659 1505 659 1505 578 c 0,37,38
 1505 553 1505 553 1499 525 c 0,39,40
 1474 407 1474 407 1282 312 c 0,41,42
 1131 237 1131 237 988 135 c 1,43,44
 1083 115 1083 115 1189 115 c 0,45,46
 1307 115 1307 115 1437 178 c 1,47,-1
 1440 171 l 1,48,49
 1380 88 1380 88 1356 0 c 1,50,51
 1243 32 1243 32 1132 32 c 128,-1,52
 1021 32 1021 32 882 0 c 1,0,-1
856 1510 m 1,53,-1
 865 1504 l 1,54,55
 792 1335 792 1335 751.5 1145.5 c 128,-1,56
 711 956 711 956 711 784 c 1,57,58
 606 763 606 763 505 704 c 1,59,-1
 496 710 l 1,60,61
 563 861 563 861 611 1087 c 0,62,63
 640 1222 640 1222 651 1354 c 1,64,65
 571 1283 571 1283 512 1197 c 1,66,67
 473 1218 473 1218 411 1227 c 1,68,69
 531 1306 531 1306 650 1433 c 1,70,71
 762 1454 762 1454 856 1510 c 1,53,-1
427 3 m 1,72,-1
 415 -3 l 1,73,74
 326 55 326 55 243 79 c 1,75,76
 522 387 522 387 864 827 c 0,77,78
 1120 1157 1120 1157 1343 1501 c 1,79,-1
 1354 1507 l 1,80,81
 1443 1449 1443 1449 1527 1425 c 1,82,83
 1188 1060 1188 1060 961 769 c 0,84,85
 618 328 618 328 427 3 c 1,72,-1
EndSplineSet
Validated: 1
EndChar

StartChar: threequarters
Encoding: 190 190 106
Width: 1610
GlyphClass: 2
Flags: W
HStem: 0 21G<529.5 585 1215 1274.5> 212 40<1006.65 1284.53> 1490 20G<698 772.5 1502 1557.5>
VStem: 478 109<1270.63 1375.5> 787 117<888.281 1047.78 1227.46 1380.04>
LayerCount: 2
Fore
SplineSet
734 1510 m 1,0,1
 744 1510 l 1,2,3
 801 1490 801 1490 844 1458 c 0,4,5
 913 1408 913 1408 913 1343 c 0,6,7
 913 1329 913 1329 910 1314 c 0,8,9
 890 1219 890 1219 756 1167 c 1,10,11
 818 1164 818 1164 862 1121 c 0,12,13
 904 1079 904 1079 904 1018 c 0,14,15
 904 999 904 999 900 978 c 0,16,17
 880 885 880 885 780 808 c 0,18,19
 687 737 687 737 573 704 c 1,20,-1
 563 704 l 1,21,22
 487 742 487 742 444 778 c 0,23,24
 394 820 394 820 341 898 c 1,25,-1
 347 909 l 1,26,27
 405 911 405 911 486 938 c 1,28,29
 514 899 514 899 552 869 c 0,30,31
 625 811 625 811 705 785 c 1,32,33
 765 841 765 841 784 930 c 0,34,35
 787 946 787 946 787 961 c 0,36,37
 787 1018 787 1018 735 1054 c 0,38,39
 678 1093 678 1093 581 1108 c 1,40,-1
 582 1116 l 1,41,42
 777 1182 777 1182 796 1270 c 0,43,44
 799 1282 799 1282 799 1294 c 0,45,46
 799 1342 799 1342 752 1374 c 0,47,48
 694 1414 694 1414 629 1420 c 1,49,50
 598 1382 598 1382 588 1338 c 0,51,52
 586 1331 586 1331 587 1323 c 0,53,54
 587 1290 587 1290 625 1270 c 1,55,56
 569 1257 569 1257 512 1213 c 1,57,-1
 503 1219 l 1,58,59
 478 1240 478 1240 478 1276 c 0,60,61
 478 1289 478 1289 481 1304 c 0,62,63
 495 1368 495 1368 594 1437 c 0,64,65
 662 1484 662 1484 734 1510 c 1,0,1
1224 0 m 1,66,-1
 1215 6 l 1,67,68
 1252 87 1252 87 1287 201 c 1,69,70
 1208 212 1208 212 1139 212 c 0,71,72
 1032 212 1032 212 910 195 c 1,73,-1
 889 250 l 1,74,75
 1169 471 1169 471 1369 729 c 1,76,77
 1477 750 1477 750 1571 806 c 1,78,-1
 1580 800 l 1,79,80
 1507 631 1507 631 1467 441.5 c 128,-1,81
 1427 252 1427 252 1426 80 c 1,82,83
 1325 59 1325 59 1224 0 c 1,66,-1
1355 634 m 1,84,85
 1124 427 1124 427 1004 268 c 1,86,87
 1086 252 1086 252 1179 252 c 0,88,89
 1245 252 1245 252 1304 267 c 1,90,91
 1325 368 1325 368 1337 443 c 0,92,93
 1354 539 1354 539 1355 634 c 1,84,85
585 6 m 1,94,-1
 574 0 l 1,95,96
 485 58 485 58 401 82 c 1,97,98
 680 390 680 390 1022 830 c 0,99,100
 1278 1160 1278 1160 1502 1504 c 1,101,-1
 1513 1510 l 1,102,103
 1602 1452 1602 1452 1686 1428 c 1,104,105
 1347 1063 1347 1063 1120 772 c 0,106,107
 776 331 776 331 585 6 c 1,94,-1
EndSplineSet
Validated: 1
EndChar

StartChar: questiondown
Encoding: 191 191 107
Width: 1229
GlyphClass: 2
Flags: W
HStem: -380 21G<432.5 678.5> 1110 20G<889 942>
VStem: 163 198<-35.9163 197.344> 754 264<907.02 1058.12> 811 84<627.877 751.965> 933 170<-18.3955 171.471>
LayerCount: 2
Fore
SplineSet
914 1130 m 1,0,-1
 920 1130 l 1,1,2
 964 1114 964 1114 991 1080 c 0,3,4
 1018 1048 1018 1048 1018 1009 c 0,5,6
 1018 996 1018 996 1015 982 c 0,7,8
 1002 923 1002 923 940 877 c 0,9,10
 902 850 902 850 857 833 c 1,11,-1
 851 833 l 1,12,13
 813 850 813 850 786 877 c 0,14,15
 754 911 754 911 754 954 c 0,16,17
 754 967 754 967 757 982 c 0,18,19
 769 1038 769 1038 823 1080 c 0,20,21
 864 1114 864 1114 914 1130 c 1,0,-1
563 -380 m 1,22,-1
 553 -380 l 1,23,24
 312 -293 312 -293 206 -127 c 0,25,26
 163 -60 163 -60 163 23 c 0,27,28
 163 61 163 61 172 102 c 0,29,30
 209 277 209 277 434 413 c 2,31,-1
 674 558 l 2,32,33
 798 633 798 633 810 685 c 0,34,35
 811 690 811 690 811 696 c 0,36,37
 811 712 811 712 802 727 c 1,38,39
 838 740 838 740 876 768 c 1,40,-1
 886 764 l 1,41,42
 895 743 895 743 895 720 c 0,43,44
 895 708 895 708 893 696 c 0,45,46
 876 615 876 615 758 520 c 2,47,-1
 509 320 l 2,48,49
 385 220 385 220 365 126 c 0,50,51
 361 105 361 105 361 85 c 0,52,53
 361 14 361 14 416 -50 c 0,54,55
 529 -180 529 -180 799 -235 c 1,56,57
 901 -136 901 -136 928 -11 c 0,58,59
 933 10 933 10 933 29 c 0,60,61
 933 119 933 119 830 156 c 1,62,63
 927 173 927 173 1075 247 c 1,64,-1
 1083 241 l 1,65,66
 1103 195 1103 195 1103 142 c 0,67,68
 1103 111 1103 111 1096 78 c 0,69,70
 1072 -35 1072 -35 964 -133 c 0,71,72
 794 -285 794 -285 563 -380 c 1,22,-1
EndSplineSet
Validated: 1
EndChar

StartChar: multiply
Encoding: 215 215 108
Width: 1132
GlyphClass: 2
Flags: W
LayerCount: 2
Fore
SplineSet
364 1005 m 1,0,-1
 369 1016 l 1,1,2
 507 1051 507 1051 599 1105 c 1,3,4
 654 947 654 947 741 823 c 1,5,6
 879 947 879 947 1002 1105 c 1,7,8
 1071 1051 1071 1051 1195 1016 c 1,9,-1
 1196 1005 l 1,10,11
 962 874 962 874 801 746 c 1,12,13
 908 618 908 618 1086 487 c 1,14,-1
 1080 476 l 1,15,16
 941 441 941 441 849 387 c 1,17,18
 794 545 794 545 708 669 c 1,19,20
 569 545 569 545 446 387 c 1,21,22
 377 441 377 441 254 476 c 1,23,-1
 254 487 l 1,24,25
 487 618 487 618 649 746 c 1,26,27
 541 874 541 874 364 1005 c 1,0,-1
EndSplineSet
Validated: 1
EndChar

StartChar: divide
Encoding: 247 247 109
Width: 1266
GlyphClass: 2
Flags: W
HStem: 635 222<399.354 555.286 1027.71 1183.65> 693 106<471.71 1111.29>
VStem: 581 264<291.717 444.125> 740 264<1038.72 1191.12>
LayerCount: 2
Fore
SplineSet
900 1263 m 1,0,-1
 906 1263 l 1,1,2
 950 1247 950 1247 977 1213 c 0,3,4
 1004 1181 1004 1181 1004 1142 c 0,5,6
 1004 1129 1004 1129 1001 1115 c 0,7,8
 988 1056 988 1056 927 1010 c 0,9,10
 889 983 889 983 843 966 c 1,11,-1
 837 966 l 1,12,13
 799 983 799 983 773 1010 c 0,14,15
 740 1045 740 1045 740 1089 c 0,16,17
 740 1102 740 1102 743 1115 c 0,18,19
 755 1171 755 1171 809 1213 c 0,20,21
 850 1247 850 1247 900 1263 c 1,0,-1
685 219 m 1,22,-1
 679 219 l 1,23,24
 641 236 641 236 614 263 c 0,25,26
 581 298 581 298 581 342 c 0,27,28
 581 355 581 355 584 368 c 0,29,30
 596 424 596 424 650 466 c 0,31,32
 691 500 691 500 742 516 c 1,33,-1
 748 516 l 1,34,35
 792 500 792 500 818 466 c 0,36,37
 845 434 845 434 845 395 c 0,38,39
 845 382 845 382 842 368 c 0,40,41
 829 309 829 309 768 263 c 0,42,43
 731 236 731 236 685 219 c 1,22,-1
291 635 m 1,44,-1
 287 645 l 1,45,46
 380 763 380 763 419 857 c 1,47,48
 617 799 617 799 816.5 799 c 128,-1,49
 1016 799 1016 799 1292 857 c 1,50,-1
 1296 847 l 1,51,52
 1203 729 1203 729 1164 635 c 1,53,54
 966 693 966 693 766.5 693 c 128,-1,55
 567 693 567 693 291 635 c 1,44,-1
EndSplineSet
Validated: 1
EndChar

StartChar: endash
Encoding: 8211 8211 110
Width: 1266
GlyphClass: 2
Flags: W
HStem: 635 222<399.354 555.286 1027.71 1183.65> 693 106<471.71 1111.29>
LayerCount: 2
Fore
SplineSet
419 857 m 1,0,1
 617 799 617 799 816.5 799 c 128,-1,2
 1016 799 1016 799 1292 857 c 1,3,-1
 1296 847 l 1,4,5
 1203 729 1203 729 1164 635 c 1,6,7
 966 693 966 693 766.5 693 c 128,-1,8
 567 693 567 693 291 635 c 1,9,-1
 287 645 l 1,10,11
 380 763 380 763 419 857 c 1,0,1
EndSplineSet
Validated: 1
EndChar

StartChar: emdash
Encoding: 8212 8212 111
Width: 1566
GlyphClass: 2
Flags: W
HStem: 635 222<399.354 643.567 1289.5 1483.65> 692 106<548.093 1388.24>
LayerCount: 2
Fore
SplineSet
419 857 m 1,0,1
 691 798 691 798 992 798 c 0,2,3
 1287 798 1287 798 1592 857 c 1,4,-1
 1596 847 l 1,5,6
 1503 729 1503 729 1464 635 c 1,7,8
 1225 692 1225 692 942 692 c 0,9,10
 630 692 630 692 291 635 c 1,11,-1
 287 645 l 1,12,13
 380 763 380 763 419 857 c 1,0,1
EndSplineSet
Validated: 1
EndChar

StartChar: afii00208
Encoding: 8213 8213 112
Width: 1566
GlyphClass: 2
Flags: W
HStem: 635 222<399.354 643.567 1289.5 1483.65> 692 106<548.093 1388.24>
LayerCount: 2
Fore
SplineSet
419 857 m 1,0,1
 691 798 691 798 992 798 c 0,2,3
 1287 798 1287 798 1592 857 c 1,4,-1
 1596 847 l 1,5,6
 1503 729 1503 729 1464 635 c 1,7,8
 1225 692 1225 692 942 692 c 0,9,10
 630 692 630 692 291 635 c 1,11,-1
 287 645 l 1,12,13
 380 763 380 763 419 857 c 1,0,1
EndSplineSet
Validated: 1
EndChar

StartChar: quoteleft
Encoding: 8216 8216 113
Width: 367
GlyphClass: 2
Flags: W
HStem: 1031 519
VStem: 304 267<1103.24 1289.97>
LayerCount: 2
Fore
SplineSet
410 1031 m 1,0,-1
 404 1031 l 1,1,2
 360 1047 360 1047 334 1081 c 0,3,4
 304 1118 304 1118 304 1173 c 0,5,6
 304 1197 304 1197 310 1224 c 0,7,8
 357 1444 357 1444 656 1550 c 1,9,-1
 653 1534 l 1,10,11
 495 1430 495 1430 473 1328 c 1,12,13
 511 1311 511 1311 538 1284 c 0,14,15
 571 1249 571 1249 571 1205 c 0,16,17
 571 1192 571 1192 568 1179 c 0,18,19
 556 1123 556 1123 502 1081 c 0,20,21
 456 1046 456 1046 410 1031 c 1,0,-1
EndSplineSet
Validated: 1
EndChar

StartChar: quoteright
Encoding: 8217 8217 114
Width: 367
GlyphClass: 2
Flags: W
HStem: 1031 519
VStem: 345 266<1291.03 1477.92>
LayerCount: 2
Fore
SplineSet
505 1550 m 1,0,-1
 511 1550 l 1,1,2
 555 1534 555 1534 582 1500 c 0,3,4
 611 1463 611 1463 611 1410 c 0,5,6
 611 1385 611 1385 605 1357 c 0,7,8
 558 1137 558 1137 259 1031 c 1,9,-1
 263 1047 l 1,10,11
 421 1151 421 1151 442 1253 c 1,12,13
 404 1270 404 1270 378 1297 c 0,14,15
 345 1332 345 1332 345 1376 c 0,16,17
 345 1389 345 1389 348 1402 c 0,18,19
 360 1458 360 1458 414 1500 c 0,20,21
 459 1535 459 1535 505 1550 c 1,0,-1
EndSplineSet
Validated: 1
EndChar

StartChar: quotesinglbase
Encoding: 8218 8218 115
Width: 367
GlyphClass: 2
Flags: W
HStem: -222 519
VStem: 79 266<38.0332 224.922>
LayerCount: 2
Fore
SplineSet
239 297 m 1,0,-1
 245 297 l 1,1,2
 289 281 289 281 316 247 c 0,3,4
 345 210 345 210 345 157 c 0,5,6
 345 132 345 132 339 104 c 0,7,8
 292 -116 292 -116 -7 -222 c 1,9,-1
 -4 -206 l 1,10,11
 154 -102 154 -102 176 0 c 1,12,13
 138 17 138 17 111 44 c 0,14,15
 79 78 79 78 79 121 c 0,16,17
 79 134 79 134 82 149 c 0,18,19
 94 205 94 205 148 247 c 0,20,21
 193 282 193 282 239 297 c 1,0,-1
EndSplineSet
Validated: 1
EndChar

StartChar: quotereversed
Encoding: 8219 8219 116
Width: 367
GlyphClass: 2
Flags: W
HStem: 1031 519
VStem: 331 122<1153.16 1307.5>
LayerCount: 2
Fore
SplineSet
520 1550 m 1,0,1
 560 1535 560 1535 591 1500 c 0,2,3
 618 1468 618 1468 618 1429 c 0,4,5
 618 1416 618 1416 615 1402 c 0,6,7
 602 1342 602 1342 541 1297 c 0,8,9
 503 1270 503 1270 457 1253 c 1,10,11
 453 1237 453 1237 453 1220 c 0,12,13
 453 1134 453 1134 550 1047 c 1,14,-1
 546 1031 l 1,15,16
 331 1121 331 1121 331 1292 c 0,17,18
 331 1323 331 1323 338 1357 c 0,19,20
 357 1446 357 1446 423 1500 c 0,21,22
 464 1534 464 1534 514 1550 c 1,23,-1
 520 1550 l 1,0,1
EndSplineSet
Validated: 1
EndChar

StartChar: quotedblleft
Encoding: 8220 8220 117
Width: 683
GlyphClass: 2
Flags: W
HStem: 1031 519
VStem: 304 267<1103.24 1289.97> 620 267<1103.24 1289.97>
LayerCount: 2
Fore
SplineSet
410 1031 m 1,0,-1
 404 1031 l 1,1,2
 360 1047 360 1047 334 1081 c 0,3,4
 304 1118 304 1118 304 1173 c 0,5,6
 304 1197 304 1197 310 1224 c 0,7,8
 357 1444 357 1444 656 1550 c 1,9,-1
 653 1534 l 1,10,11
 495 1430 495 1430 473 1328 c 1,12,13
 511 1311 511 1311 538 1284 c 0,14,15
 571 1249 571 1249 571 1205 c 0,16,17
 571 1192 571 1192 568 1179 c 0,18,19
 556 1123 556 1123 502 1081 c 0,20,21
 456 1046 456 1046 410 1031 c 1,0,-1
726 1031 m 1,22,-1
 720 1031 l 1,23,24
 676 1047 676 1047 650 1081 c 0,25,26
 620 1118 620 1118 620 1173 c 0,27,28
 620 1197 620 1197 626 1224 c 0,29,30
 673 1444 673 1444 972 1550 c 1,31,-1
 969 1534 l 1,32,33
 811 1430 811 1430 789 1328 c 1,34,35
 827 1311 827 1311 854 1284 c 0,36,37
 887 1249 887 1249 887 1205 c 0,38,39
 887 1192 887 1192 884 1179 c 0,40,41
 872 1123 872 1123 818 1081 c 0,42,43
 772 1046 772 1046 726 1031 c 1,22,-1
EndSplineSet
Validated: 1
EndChar

StartChar: quotedblright
Encoding: 8221 8221 118
Width: 683
GlyphClass: 2
Flags: W
HStem: 1031 519
VStem: 345 266<1291.03 1477.92> 661 266<1291.03 1477.92>
LayerCount: 2
Fore
SplineSet
821 1550 m 1,0,-1
 827 1550 l 1,1,2
 871 1534 871 1534 898 1500 c 0,3,4
 927 1463 927 1463 927 1410 c 0,5,6
 927 1385 927 1385 921 1357 c 0,7,8
 874 1137 874 1137 575 1031 c 1,9,-1
 579 1047 l 1,10,11
 737 1151 737 1151 758 1253 c 1,12,13
 720 1270 720 1270 694 1297 c 0,14,15
 661 1332 661 1332 661 1376 c 0,16,17
 661 1389 661 1389 664 1402 c 0,18,19
 676 1458 676 1458 730 1500 c 0,20,21
 775 1535 775 1535 821 1550 c 1,0,-1
505 1550 m 1,22,-1
 511 1550 l 1,23,24
 555 1534 555 1534 582 1500 c 0,25,26
 611 1463 611 1463 611 1410 c 0,27,28
 611 1385 611 1385 605 1357 c 0,29,30
 558 1137 558 1137 259 1031 c 1,31,-1
 263 1047 l 1,32,33
 421 1151 421 1151 442 1253 c 1,34,35
 404 1270 404 1270 378 1297 c 0,36,37
 345 1332 345 1332 345 1376 c 0,38,39
 345 1389 345 1389 348 1402 c 0,40,41
 360 1458 360 1458 414 1500 c 0,42,43
 459 1535 459 1535 505 1550 c 1,22,-1
EndSplineSet
Validated: 1
EndChar

StartChar: quotedblbase
Encoding: 8222 8222 119
Width: 683
GlyphClass: 2
Flags: W
HStem: -222 519
VStem: 79 266<38.0332 224.922> 395 266<38.0332 224.922>
LayerCount: 2
Fore
SplineSet
555 297 m 1,0,-1
 561 297 l 1,1,2
 605 281 605 281 632 247 c 0,3,4
 661 210 661 210 661 157 c 0,5,6
 661 132 661 132 655 104 c 0,7,8
 608 -116 608 -116 309 -222 c 1,9,-1
 312 -206 l 1,10,11
 470 -102 470 -102 492 0 c 1,12,13
 454 17 454 17 427 44 c 0,14,15
 395 78 395 78 395 121 c 0,16,17
 395 134 395 134 398 149 c 0,18,19
 410 205 410 205 464 247 c 0,20,21
 509 282 509 282 555 297 c 1,0,-1
239 297 m 1,22,-1
 245 297 l 1,23,24
 289 281 289 281 316 247 c 0,25,26
 345 210 345 210 345 157 c 0,27,28
 345 132 345 132 339 104 c 0,29,30
 292 -116 292 -116 -7 -222 c 1,31,-1
 -4 -206 l 1,32,33
 154 -102 154 -102 176 0 c 1,34,35
 138 17 138 17 111 44 c 0,36,37
 79 78 79 78 79 121 c 0,38,39
 79 134 79 134 82 149 c 0,40,41
 94 205 94 205 148 247 c 0,42,43
 193 282 193 282 239 297 c 1,22,-1
EndSplineSet
Validated: 1
EndChar

StartChar: dagger
Encoding: 8224 8224 120
Width: 1021
GlyphClass: 2
Flags: W
HStem: 0 21G<399 474> 984 146<427.65 647.716 824.253 1042.35> 1490 20G<867.5 943>
LayerCount: 2
Fore
SplineSet
408 0 m 1,0,-1
 399 6 l 1,1,2
 519 364 519 364 597 730 c 0,3,4
 627 873 627 873 652 1019 c 1,5,6
 515 1013 515 1013 365 984 c 1,7,-1
 361 994 l 1,8,9
 419 1066 419 1066 455 1130 c 1,10,11
 556 1104 556 1104 663 1096 c 1,12,13
 687 1257 687 1257 703 1423 c 1,14,15
 801 1442 801 1442 934 1510 c 1,16,-1
 943 1504 l 1,17,18
 875 1303 875 1303 820 1095 c 1,19,20
 956 1101 956 1101 1105 1130 c 1,21,-1
 1109 1120 l 1,22,23
 1051 1048 1051 1048 1015 984 c 1,24,25
 911 1011 911 1011 800 1019 c 1,26,27
 770 902 770 902 744 782 c 0,28,29
 668 424 668 424 638 87 c 1,30,31
 540 68 540 68 408 0 c 1,0,-1
EndSplineSet
Validated: 1
EndChar

StartChar: daggerdbl
Encoding: 8225 8225 121
Width: 1021
GlyphClass: 2
Flags: W
HStem: 0 21G<399 474> 380 146<299.65 517.747 693.346 914.35> 984 146<427.65 647.716 824.253 1042.35> 1490 20G<867.5 943>
DStem2: 541 491 744 782 0.237388 0.971415<39.6839 534.64> 597 730 689 491 0.17663 0.984277<-218.349 293.935>
LayerCount: 2
Fore
SplineSet
408 0 m 1,0,-1
 399 6 l 1,1,2
 467 209 467 209 522 415 c 1,3,4
 386 409 386 409 237 380 c 1,5,-1
 233 390 l 1,6,7
 291 462 291 462 327 526 c 1,8,9
 430 499 430 499 541 491 c 1,10,11
 571 610 571 610 597 730 c 0,12,13
 627 873 627 873 652 1019 c 1,14,15
 515 1013 515 1013 365 984 c 1,16,-1
 361 994 l 1,17,18
 419 1066 419 1066 455 1130 c 1,19,20
 556 1104 556 1104 663 1096 c 1,21,22
 687 1257 687 1257 703 1423 c 1,23,24
 801 1442 801 1442 934 1510 c 1,25,-1
 943 1504 l 1,26,27
 875 1303 875 1303 820 1095 c 1,28,29
 956 1101 956 1101 1105 1130 c 1,30,-1
 1109 1120 l 1,31,32
 1051 1048 1051 1048 1015 984 c 1,33,34
 911 1011 911 1011 800 1019 c 1,35,36
 770 902 770 902 744 782 c 0,37,38
 713 635 713 635 689 491 c 1,39,40
 828 497 828 497 977 526 c 1,41,-1
 981 516 l 1,42,43
 923 444 923 444 887 380 c 1,44,45
 787 406 787 406 677 414 c 1,46,47
 652 248 652 248 638 87 c 1,48,49
 540 68 540 68 408 0 c 1,0,-1
EndSplineSet
Validated: 1
EndChar

StartChar: bullet
Encoding: 8226 8226 122
Width: 874
GlyphClass: 2
Flags: W
HStem: 427 663
VStem: 305 587<664.359 857.297>
LayerCount: 2
Fore
SplineSet
674 1090 m 1,0,1
 770 1053 770 1053 832 978 c 0,2,3
 892 907 892 907 892 820 c 0,4,5
 892 791 892 791 885 759 c 0,6,7
 857 627 857 627 719 526 c 0,8,9
 634 465 634 465 533 427 c 1,10,-1
 523 427 l 1,11,12
 438 465 438 465 379 526 c 0,13,14
 305 603 305 603 305 700 c 0,15,16
 305 728 305 728 311 759 c 0,17,18
 337 883 337 883 458 978 c 0,19,20
 552 1053 552 1053 664 1090 c 1,21,-1
 674 1090 l 1,0,1
EndSplineSet
Validated: 1
EndChar

StartChar: ellipsis
Encoding: 8230 8230 123
Width: 1014
GlyphClass: 2
Flags: W
HStem: 0 297
VStem: 79 264<74.0195 225.125> 407 264<74.0195 225.125> 735 264<74.0195 225.125>
CounterMasks: 1 70
LayerCount: 2
Fore
SplineSet
838 0 m 1,0,-1
 832 0 l 1,1,2
 794 17 794 17 767 44 c 0,3,4
 735 78 735 78 735 121 c 0,5,6
 735 134 735 134 738 149 c 0,7,8
 750 205 750 205 804 247 c 0,9,10
 845 281 845 281 895 297 c 1,11,-1
 901 297 l 1,12,13
 945 281 945 281 972 247 c 0,14,15
 999 215 999 215 999 176 c 0,16,17
 999 163 999 163 996 149 c 0,18,19
 983 90 983 90 921 44 c 0,20,21
 884 17 884 17 838 0 c 1,0,-1
510 0 m 1,22,-1
 504 0 l 1,23,24
 466 17 466 17 439 44 c 0,25,26
 407 78 407 78 407 121 c 0,27,28
 407 134 407 134 410 149 c 0,29,30
 422 205 422 205 476 247 c 0,31,32
 517 281 517 281 567 297 c 1,33,-1
 573 297 l 1,34,35
 617 281 617 281 644 247 c 0,36,37
 671 215 671 215 671 176 c 0,38,39
 671 163 671 163 668 149 c 0,40,41
 655 90 655 90 593 44 c 0,42,43
 556 17 556 17 510 0 c 1,22,-1
182 0 m 1,44,-1
 176 0 l 1,45,46
 138 17 138 17 111 44 c 0,47,48
 79 78 79 78 79 121 c 0,49,50
 79 134 79 134 82 149 c 0,51,52
 94 205 94 205 148 247 c 0,53,54
 189 281 189 281 239 297 c 1,55,-1
 245 297 l 1,56,57
 289 281 289 281 316 247 c 0,58,59
 343 215 343 215 343 176 c 0,60,61
 343 163 343 163 340 149 c 0,62,63
 327 90 327 90 265 44 c 0,64,65
 228 17 228 17 182 0 c 1,44,-1
EndSplineSet
Validated: 1
EndChar

StartChar: perthousand
Encoding: 8240 8240 124
Width: 2209
GlyphClass: 2
Flags: W
HStem: 0 21G<440.5 496 1062.5 1165.5 1724.5 1827.5> 1490 20G<697 811 1413 1468.5>
VStem: 394 94<1109.95 1274.96> 887 94<262.952 427.964 1081.89 1251.08> 1381 93<234.887 404.077> 1549 94<262.952 427.964> 2043 93<234.887 404.077>
LayerCount: 2
Fore
SplineSet
1777 0 m 1,0,-1
 1767 0 l 1,1,2
 1682 38 1682 38 1623 99 c 0,3,4
 1549 175 1549 175 1549 272 c 0,5,6
 1549 301 1549 301 1556 332 c 0,7,8
 1582 456 1582 456 1702 551 c 0,9,10
 1796 626 1796 626 1908 663 c 1,11,-1
 1918 663 l 1,12,13
 2014 626 2014 626 2076 551 c 0,14,15
 2136 479 2136 479 2136 391 c 0,16,17
 2136 362 2136 362 2130 332 c 0,18,19
 2102 200 2102 200 1963 99 c 0,20,21
 1878 38 1878 38 1777 0 c 1,0,-1
1959 122 m 1,22,23
 2020 174 2020 174 2040 269 c 0,24,25
 2043 284 2043 284 2043 298 c 0,26,27
 2043 390 2043 390 1918 473 c 8,28,29
 1846 521 1846 521 1727 543 c 1,30,31
 1666 491 1666 491 1646 396 c 0,32,33
 1643 381 1643 381 1643 367 c 0,34,35
 1643 275 1643 275 1769 192 c 8,36,37
 1841 144 1841 144 1959 122 c 1,22,23
1115 0 m 1,38,-1
 1105 0 l 1,39,40
 1020 38 1020 38 961 99 c 0,41,42
 887 175 887 175 887 272 c 0,43,44
 887 301 887 301 894 332 c 0,45,46
 920 456 920 456 1040 551 c 0,47,48
 1134 626 1134 626 1246 663 c 1,49,-1
 1256 663 l 1,50,51
 1352 626 1352 626 1414 551 c 0,52,53
 1474 479 1474 479 1474 391 c 0,54,55
 1474 362 1474 362 1468 332 c 0,56,57
 1440 200 1440 200 1301 99 c 0,58,59
 1216 38 1216 38 1115 0 c 1,38,-1
1297 122 m 1,60,61
 1358 174 1358 174 1378 269 c 0,62,63
 1381 284 1381 284 1381 298 c 0,64,65
 1381 390 1381 390 1256 473 c 8,66,67
 1184 521 1184 521 1065 543 c 1,68,69
 1004 491 1004 491 984 396 c 0,70,71
 981 381 981 381 981 367 c 0,72,73
 981 275 981 275 1107 192 c 8,74,75
 1179 144 1179 144 1297 122 c 1,60,61
763 1510 m 1,76,77
 859 1473 859 1473 921 1398 c 0,78,79
 981 1326 981 1326 981 1238 c 0,80,81
 981 1209 981 1209 975 1179 c 0,82,83
 947 1047 947 1047 808 946 c 0,84,85
 723 885 723 885 622 847 c 1,86,-1
 612 847 l 1,87,88
 527 885 527 885 468 946 c 0,89,90
 394 1022 394 1022 394 1119 c 0,91,92
 394 1148 394 1148 401 1179 c 0,93,94
 427 1303 427 1303 547 1398 c 0,95,96
 641 1473 641 1473 753 1510 c 1,97,-1
 763 1510 l 1,76,77
572 1390 m 1,98,99
 511 1338 511 1338 491 1243 c 0,100,101
 488 1228 488 1228 488 1214 c 0,102,103
 488 1122 488 1122 614 1039 c 8,104,105
 686 991 686 991 804 969 c 1,106,107
 865 1021 865 1021 885 1116 c 0,108,109
 888 1131 888 1131 888 1145 c 0,110,111
 888 1237 888 1237 763 1320 c 8,112,113
 690 1368 690 1368 572 1390 c 1,98,99
496 6 m 1,114,-1
 485 0 l 1,115,116
 396 58 396 58 312 82 c 1,117,118
 591 390 591 390 933 830 c 0,119,120
 1189 1160 1189 1160 1413 1504 c 1,121,-1
 1424 1510 l 1,122,123
 1513 1452 1513 1452 1597 1428 c 1,124,125
 1258 1063 1258 1063 1031 772 c 0,126,127
 687 331 687 331 496 6 c 1,114,-1
EndSplineSet
Validated: 1
EndChar

StartChar: minute
Encoding: 8242 8242 125
Width: 369
GlyphClass: 2
Flags: W
HStem: 1220 330
VStem: 314 329
LayerCount: 2
Fore
SplineSet
469 1524 m 1,0,1
 551 1524 551 1524 643 1550 c 1,2,-1
 647 1544 l 1,3,4
 552 1366 552 1366 430 1230 c 1,5,6
 368 1230 368 1230 314 1220 c 1,7,-1
 311 1227 l 1,8,9
 422 1375 422 1375 469 1524 c 1,0,1
EndSplineSet
Validated: 1
EndChar

StartChar: second
Encoding: 8243 8243 126
Width: 628
GlyphClass: 2
Flags: W
HStem: 1220 330
VStem: 314 588
LayerCount: 2
Fore
SplineSet
728 1524 m 1,0,1
 810 1524 810 1524 902 1550 c 1,2,-1
 906 1544 l 1,3,4
 811 1366 811 1366 689 1230 c 1,5,6
 627 1230 627 1230 573 1220 c 1,7,-1
 570 1227 l 1,8,9
 681 1375 681 1375 728 1524 c 1,0,1
469 1524 m 1,10,11
 551 1524 551 1524 643 1550 c 1,12,-1
 647 1544 l 1,13,14
 552 1366 552 1366 430 1230 c 1,15,16
 368 1230 368 1230 314 1220 c 1,17,-1
 311 1227 l 1,18,19
 422 1375 422 1375 469 1524 c 1,10,11
EndSplineSet
Validated: 1
EndChar

StartChar: guilsinglleft
Encoding: 8249 8249 127
Width: 895
GlyphClass: 2
Flags: W
VStem: 288 669
LayerCount: 2
Fore
SplineSet
957 1263 m 1,0,-1
 961 1253 l 1,1,2
 902 1181 902 1181 812 1026 c 1,3,4
 611 925 611 925 465 777 c 1,5,6
 536 530 536 530 784 430 c 1,7,-1
 787 420 l 1,8,9
 667 268 667 268 644 193 c 1,10,11
 518 499 518 499 288 620 c 1,12,-1
 284 630 l 1,13,14
 392 766 392 766 427 872 c 1,15,16
 677 1001 677 1001 957 1263 c 1,0,-1
EndSplineSet
Validated: 1
EndChar

StartChar: guilsinglright
Encoding: 8250 8250 128
Width: 895
GlyphClass: 2
Flags: W
VStem: 247 669
LayerCount: 2
Fore
SplineSet
560 1263 m 1,0,1
 686 957 686 957 916 836 c 1,2,-1
 920 826 l 1,3,4
 812 690 812 690 777 584 c 1,5,6
 527 455 527 455 247 193 c 1,7,-1
 243 203 l 1,8,9
 302 275 302 275 392 430 c 1,10,11
 593 531 593 531 739 679 c 1,12,13
 668 926 668 926 420 1026 c 1,14,-1
 417 1036 l 1,15,16
 537 1188 537 1188 560 1263 c 1,0,1
EndSplineSet
Validated: 1
EndChar

StartChar: fraction
Encoding: 8260 8260 129
Width: 1018
GlyphClass: 2
Flags: W
HStem: 0 21G<155.5 211> 1490 20G<1128 1183.5>
LayerCount: 2
Fore
SplineSet
211 6 m 1,0,-1
 200 0 l 1,1,2
 111 58 111 58 27 82 c 1,3,4
 306 390 306 390 648 830 c 0,5,6
 904 1160 904 1160 1128 1504 c 1,7,-1
 1139 1510 l 1,8,9
 1228 1452 1228 1452 1312 1428 c 1,10,11
 973 1063 973 1063 746 772 c 0,12,13
 402 331 402 331 211 6 c 1,0,-1
EndSplineSet
Validated: 1
EndChar

StartChar: Euro
Encoding: 8364 8364 130
Width: 1420
VWidth: 0
GlyphClass: 2
Flags: W
HStem: 0 213<825 947.383> 565 146<290.65 411.125 726.021 1128.35> 602 72<605.742 1094.63> 779 146<334.65 442.312 770.021 1171.78> 816 72<634 1138.63> 1490 20G<1022.5 1260>
LayerCount: 2
Fore
SplineSet
825 0 m 1,0,1
 615 90 615 90 506 260 c 0,2,3
 414 403 414 403 414 588 c 1,4,5
 322 579 322 579 228 565 c 1,6,-1
 224 575 l 1,7,8
 282 647 282 647 318 711 c 1,9,10
 371 702 371 702 423 695 c 1,11,12
 427 722 427 722 432 750 c 0,13,14
 438 776 438 776 445 801 c 1,15,16
 359 792 359 792 272 779 c 1,17,-1
 268 789 l 1,18,19
 326 861 326 861 362 925 c 1,20,21
 423 914 423 914 482 907 c 1,22,23
 560 1091 560 1091 728 1257 c 0,24,25
 899 1427 899 1427 1146 1510 c 1,26,-1
 1156 1510 l 1,27,28
 1364 1422 1364 1422 1476 1249 c 1,29,-1
 1470 1238 l 1,30,31
 1342 1226 1342 1226 1255 1174 c 1,32,33
 1124 1326 1124 1326 886 1365 c 1,34,35
 705 1145 705 1145 634 892 c 1,36,37
 700 888 700 888 764 888 c 0,38,39
 956 888 956 888 1235 925 c 1,40,-1
 1238 915 l 1,41,42
 1180 843 1180 843 1145 779 c 1,43,44
 941 816 941 816 738 816 c 0,45,46
 676 816 676 816 614 813 c 1,47,48
 599 742 599 742 598 678 c 1,49,50
 660 674 660 674 720 674 c 0,51,52
 912 674 912 674 1191 711 c 1,53,-1
 1195 701 l 1,54,55
 1137 629 1137 629 1101 565 c 1,56,57
 897 602 897 602 695 602 c 0,58,59
 650 602 650 602 604 600 c 1,60,61
 624 452 624 452 726 336 c 0,62,63
 835 213 835 213 1003 213 c 128,-1,64
 1171 213 1171 213 1338 361 c 1,65,-1
 1345 355 l 1,66,67
 1145 104 1145 104 835 0 c 1,68,-1
 825 0 l 1,0,1
EndSplineSet
Validated: 1
EndChar

StartChar: afii61248
Encoding: 8453 8453 131
Width: 1563
GlyphClass: 2
Flags: W
HStem: 0 21G<440.5 496 1071 1182.5> 762 141<589.156 734.665> 1490 20G<693.5 806 1413 1468.5>
VStem: 381 127<979.543 1231.43> 904 101<228.119 468.312> 1382 118<265.479 502.007>
LayerCount: 2
Fore
SplineSet
765 1510 m 1,0,1
 847 1489 847 1489 886 1456 c 0,2,3
 947 1405 947 1405 975 1345 c 1,4,5
 907 1335 907 1335 827 1288 c 1,6,-1
 818 1294 l 1,7,8
 795 1324 795 1324 766 1347 c 0,9,10
 711 1391 711 1391 607 1405 c 1,11,12
 541 1302 541 1302 516 1180 c 0,13,14
 508 1141 508 1141 508 1108 c 0,15,16
 508 988 508 988 614 931 c 0,17,18
 666 903 666 903 728 903 c 0,19,20
 835 903 835 903 919 977 c 1,21,-1
 929 970 l 1,22,23
 907 936 907 936 881 911 c 0,24,25
 770 800 770 800 606 762 c 1,26,-1
 596 762 l 1,27,28
 504 794 504 794 443 866 c 0,29,30
 381 940 381 940 381 1044 c 0,31,32
 381 1086 381 1086 391 1132 c 0,33,34
 421 1275 421 1275 546 1384 c 0,35,36
 632 1459 632 1459 755 1510 c 1,37,-1
 765 1510 l 1,0,1
496 6 m 1,38,-1
 485 0 l 1,39,40
 396 58 396 58 312 82 c 1,41,42
 591 390 591 390 933 830 c 0,43,44
 1189 1160 1189 1160 1413 1504 c 1,45,-1
 1424 1510 l 1,46,47
 1513 1452 1513 1452 1597 1428 c 1,48,49
 1258 1063 1258 1063 1031 772 c 0,50,51
 687 331 687 331 496 6 c 1,38,-1
1129 0 m 1,52,-1
 1119 0 l 1,53,54
 1023 33 1023 33 966 104 c 0,55,56
 904 181 904 181 904 284 c 0,57,58
 904 325 904 325 914 370 c 0,59,60
 944 513 944 513 1069 622 c 0,61,62
 1155 697 1155 697 1278 748 c 1,63,-1
 1288 748 l 1,64,65
 1389 697 1389 697 1443 622 c 0,66,67
 1500 543 1500 543 1500 446 c 0,68,69
 1500 409 1500 409 1492 370 c 0,70,71
 1458 208 1458 208 1326 104 c 0,72,73
 1236 32 1236 32 1129 0 c 1,52,-1
1292 113 m 1,74,75
 1353 205 1353 205 1375 312 c 0,76,77
 1382 345 1382 345 1382 374 c 0,78,79
 1382 510 1382 510 1235 580 c 0,80,81
 1172 610 1172 610 1095 617 c 1,82,83
 1033 519 1033 519 1012 418 c 0,84,85
 1005 385 1005 385 1005 356 c 0,86,87
 1005 220 1005 220 1152 150 c 0,88,89
 1214 120 1214 120 1292 113 c 1,74,75
EndSplineSet
Validated: 1
EndChar

StartChar: afii61289
Encoding: 8467 8467 132
Width: 958
GlyphClass: 2
Flags: W
HStem: 0 136<489.304 609.15> 1490 20G<949 1017>
LayerCount: 2
Fore
SplineSet
496 500 m 1,0,1
 588 605 588 605 737 860 c 0,2,3
 896 1134 896 1134 944 1359 c 1,4,5
 851 1260 851 1260 707 1004 c 0,6,7
 540 706 540 706 496 500 c 1,0,1
502 0 m 0,8,9
 374 0 374 0 324 101 c 1,10,-1
 255 21 l 1,11,-1
 54 21 l 1,12,13
 207 168 207 168 304 292 c 1,14,15
 309 362 309 362 326 443 c 0,16,17
 357 590 357 590 417 732 c 0,18,19
 624 1228 624 1228 821 1424 c 0,20,21
 907 1510 907 1510 991 1510 c 0,22,23
 1043 1510 1043 1510 1074 1478 c 0,24,25
 1098 1454 1098 1454 1098 1401 c 0,26,27
 1098 1366 1098 1366 1088 1318 c 0,28,29
 1068 1226 1068 1226 1006 1072 c 0,30,31
 862 722 862 722 480 271 c 1,32,33
 480 260 480 260 480 249 c 0,34,35
 480 136 480 136 540 136 c 0,36,37
 559 136 559 136 587 160 c 0,38,39
 625 192 625 192 669 248 c 1,40,-1
 845 248 l 1,41,42
 741 120 741 120 663.5 60 c 128,-1,43
 586 0 586 0 502 0 c 0,8,9
EndSplineSet
Validated: 1
EndChar

StartChar: trademark
Encoding: 8482 8482 133
Width: 1728
GlyphClass: 2
Flags: W
VStem: 1636 111<899.481 1344>
DStem2: 598 1162 726 1184 0.178612 0.98392<-329.134 305.726>
LayerCount: 2
Fore
SplineSet
484 1550 m 1,0,1
 612 1515 612 1515 746 1515 c 0,2,3
 878 1515 878 1515 1050 1550 c 1,4,-1
 1059 1544 l 1,5,6
 1007 1466 1007 1466 969 1377 c 1,7,8
 898 1444 898 1444 801 1464 c 1,9,10
 755 1322 755 1322 726 1184 c 0,11,12
 693 1029 693 1029 675 833 c 1,13,14
 594 823 594 823 489 769 c 1,15,-1
 481 775 l 1,16,17
 551 938 551 938 598 1162 c 0,18,19
 633 1327 633 1327 648 1464 c 1,20,21
 528 1452 528 1452 403 1377 c 1,22,-1
 394 1383 l 1,23,24
 445 1461 445 1461 484 1550 c 1,0,1
897 769 m 1,25,-1
 889 775 l 1,26,27
 1042 1082 1042 1082 1129 1400 c 1,28,29
 1118 1441 1118 1441 1089 1480 c 1,30,31
 1186 1502 1186 1502 1266 1550 c 1,32,-1
 1275 1544 l 1,33,34
 1282 1209 1282 1209 1350 935 c 1,35,36
 1486 1152 1486 1152 1622 1452 c 1,37,38
 1619 1468 1619 1468 1614 1481 c 1,39,40
 1704 1501 1704 1501 1787 1550 c 1,41,-1
 1796 1544 l 1,42,43
 1747 1268 1747 1268 1747 1024 c 0,44,45
 1747 927 1747 927 1755 834 c 1,46,47
 1687 829 1687 829 1575 769 c 1,48,-1
 1567 775 l 1,49,50
 1636 1087 1636 1087 1636 1344 c 1,51,52
 1500 1129 1500 1129 1380 826 c 1,53,54
 1296 815 1296 815 1215 769 c 1,55,-1
 1207 775 l 1,56,57
 1204 1101 1204 1101 1158 1314 c 1,58,59
 1052 1065 1052 1065 998 811 c 1,60,61
 951 803 951 803 897 769 c 1,25,-1
EndSplineSet
Validated: 1
EndChar

StartChar: uni2126
Encoding: 8486 8486 134
Width: 1406
VWidth: 0
GlyphClass: 2
Flags: W
HStem: 0 113<878 929.448> 28 68<349.766 503 945.082 1142.72> 1490 20G<895.5 1133>
VStem: 286 195<352.686 843.209> 1256 185<667.421 1043.7>
LayerCount: 2
Fore
SplineSet
56 0 m 1,0,-1
 52 10 l 1,1,2
 157 142 157 142 196 252 c 1,3,4
 321 96 321 96 503 96 c 1,5,-1
 507 114 l 1,6,7
 433 175 433 175 379 260 c 0,8,9
 286 404 286 404 286 583 c 0,10,11
 286 663 286 663 305 750 c 0,12,13
 363 1021 363 1021 601 1257 c 0,14,15
 772 1427 772 1427 1019 1510 c 1,16,-1
 1029 1510 l 1,17,18
 1237 1422 1237 1422 1348 1250 c 0,19,20
 1441 1106 1441 1106 1441 927 c 0,21,22
 1441 847 1441 847 1422 760 c 0,23,24
 1360 466 1360 466 1126 253 c 0,25,26
 1022 157 1022 157 947 114 c 1,27,-1
 943 96 l 1,28,29
 1155 96 1155 96 1404 252 c 1,30,-1
 1407 242 l 1,31,32
 1302 110 1302 110 1264 0 c 1,33,34
 1173 28 1173 28 1065 28 c 128,-1,35
 957 28 957 28 854 0 c 1,36,-1
 878 113 l 1,37,38
 1162 330 1162 330 1241 699 c 0,39,40
 1256 769 1256 769 1256 835 c 0,41,42
 1256 1026 1256 1026 1128 1174 c 0,43,44
 997 1326 997 1326 759 1365 c 1,45,46
 593 1170 593 1170 516 811 c 0,47,48
 481 648 481 648 481 509 c 0,49,50
 481 279 481 279 576 113 c 1,51,-1
 552 0 l 1,52,53
 435 28 435 28 317 28 c 0,54,55
 190 28 190 28 56 0 c 1,0,-1
EndSplineSet
Validated: 1
EndChar

StartChar: estimated
Encoding: 8494 8494 135
Width: 1330
GlyphClass: 2
Flags: W
HStem: 0 92<478.892 882.742> 540 80<480 1115> 1046 84<681.003 1072.45>
LayerCount: 2
Fore
SplineSet
665 0 m 0,0,1
 409 0 409 0 290 159 c 0,2,3
 204 273 204 273 204 426 c 0,4,5
 204 492 204 492 220 565 c 0,6,7
 270 798 270 798 453 962 c 0,8,9
 642 1130 642 1130 906 1130 c 0,10,11
 1129 1130 1129 1130 1271 974 c 256,12,13
 1364 872 1364 872 1364 705 c 0,14,15
 1364 629 1364 629 1345 540 c 1,16,-1
 463 540 l 1,17,-1
 393 212 l 1,18,19
 478 92 478 92 686 92 c 256,20,21
 809 92 809 92 912 152 c 0,22,23
 1005 206 1005 206 1072 286 c 1,24,-1
 1152 224 l 1,25,26
 1065 130 1065 130 968 77 c 0,27,28
 828 0 828 0 665 0 c 0,0,1
480 620 m 1,29,-1
 1115 620 l 1,30,-1
 1177 913 l 1,31,32
 1083 1046 1083 1046 888 1046 c 0,33,34
 697 1046 697 1046 544 924 c 1,35,-1
 480 620 l 1,29,-1
EndSplineSet
Validated: 1
EndChar

StartChar: partialdiff
Encoding: 8706 8706 136
Width: 1235
GlyphClass: 2
Flags: W
HStem: 0 153<384.531 653.822> 881 159<666.848 944.2> 1358 152<722.721 1055.6>
VStem: 168 181<189.098 495.333> 1128 183<901.178 1282.57>
LayerCount: 2
Fore
SplineSet
462 0 m 0,0,1
 168 0 168 0 168 260 c 0,2,3
 168 320 168 320 184 395 c 0,4,5
 235 633 235 633 409 815 c 0,6,7
 625 1040 625 1040 843 1040 c 0,8,9
 1008 1040 1008 1040 1094 898 c 1,10,11
 1128 1051 1128 1051 1128 1116 c 0,12,13
 1128 1177 1128 1177 1116 1219 c 0,14,15
 1076 1358 1076 1358 917 1358 c 0,16,17
 786 1358 786 1358 641 1274 c 1,18,-1
 678 1448 l 1,19,20
 825 1510 825 1510 974 1510 c 0,21,22
 1311 1510 1311 1510 1311 1160 c 0,23,24
 1311 1061 1311 1061 1284 934 c 0,25,26
 1206 565 1206 565 977 282.5 c 128,-1,27
 748 0 748 0 462 0 c 0,0,1
508 153 m 0,28,29
 646 153 646 153 788 306 c 128,-1,30
 930 459 930 459 1015 680 c 1,31,32
 1011 765 1011 765 959 823 c 128,-1,33
 907 881 907 881 831 881 c 0,34,35
 671 881 671 881 534 725.5 c 128,-1,36
 397 570 397 570 359 389 c 0,37,38
 349 342 349 342 349 304 c 0,39,40
 349 153 349 153 508 153 c 0,28,29
EndSplineSet
Validated: 1
EndChar

StartChar: uni2206
Encoding: 8710 8710 137
Width: 1296
GlyphClass: 2
Flags: W
HStem: 0 21G<6 169 1134.5 1292> 57 73<266.729 1019.01> 1490 20G<1000.5 1086>
VStem: 1049 37<691 701>
LayerCount: 2
Fore
SplineSet
15 0 m 1,0,-1
 6 6 l 1,1,2
 488 691 488 691 815 1418 c 1,3,4
 924 1431 924 1431 1077 1510 c 1,5,-1
 1086 1504 l 1,6,7
 1107 691 1107 691 1292 6 c 1,8,-1
 1281 0 l 1,9,10
 988 57 988 57 612 57 c 0,11,12
 323 57 323 57 15 0 c 1,0,-1
880 1299 m 1,13,14
 489 708 489 708 261 153 c 1,15,16
 444 130 444 130 667 130 c 128,-1,17
 890 130 890 130 1049 165 c 1,18,19
 1040 701 1040 701 880 1299 c 1,13,14
EndSplineSet
Validated: 1
EndChar

StartChar: product
Encoding: 8719 8719 138
Width: 1322
GlyphClass: 2
Flags: W
HStem: -380 21G<79 161 838 920.5> 1382 73<691.341 1210.02> 1490 20G<470 597.5 1356 1492>
DStem2: 79 -374 687 1370 0.226414 0.974031<533.485 1434.87>
LayerCount: 2
Fore
SplineSet
87 -380 m 1,0,-1
 79 -374 l 1,1,2
 221 85 221 85 317 540 c 0,3,4
 425 1054 425 1054 470 1504 c 1,5,-1
 481 1510 l 1,6,7
 714 1455 714 1455 964 1455 c 0,8,9
 1229 1455 1229 1455 1483 1510 c 1,10,-1
 1492 1504 l 1,11,12
 1356 1077 1356 1077 1253 592 c 0,13,14
 1147 92 1147 92 1108 -288 c 1,15,16
 995 -303 995 -303 846 -380 c 1,17,-1
 838 -374 l 1,18,19
 975 62 975 62 1076 540 c 0,20,21
 1180 1029 1180 1029 1217 1367 c 1,22,23
 1080 1382 1080 1382 953 1382 c 128,-1,24
 826 1382 826 1382 687 1370 c 1,25,26
 575 975 575 975 494 592 c 0,27,28
 407 183 407 183 349 -288 c 1,29,30
 235 -303 235 -303 87 -380 c 1,0,-1
EndSplineSet
Validated: 1
EndChar

StartChar: summation
Encoding: 8721 8721 139
Width: 1169
GlyphClass: 2
Flags: W
HStem: -380 21G<-29 114.5 806.5 915.5> -324 71<329.95 781.391> 1258 185<902.679 1151.69> 1490 20G<551.5 704 1189.5 1282>
LayerCount: 2
Fore
SplineSet
-21 -380 m 1,0,-1
 -29 -374 l 1,1,2
 431 132 431 132 694 574 c 1,3,4
 636 937 636 937 384 1418 c 1,5,6
 475 1431 475 1431 628 1510 c 1,7,8
 780 1443 780 1443 931 1443 c 0,9,10
 1101 1444 1101 1444 1278 1510 c 1,11,-1
 1282 1500 l 1,12,13
 1177 1368 1177 1368 1138 1258 c 1,14,15
 976 1266 976 1266 854.5 1322.5 c 128,-1,16
 733 1379 733 1379 633 1472 c 1,17,18
 669 1034 669 1034 942 557 c 1,19,20
 562 154 562 154 327 -235 c 1,21,22
 412 -253 412 -253 520 -253 c 0,23,24
 760 -253 760 -253 1036 -128 c 1,25,-1
 1040 -138 l 1,26,27
 935 -270 935 -270 896 -380 c 1,28,29
 717 -324 717 -324 510 -324 c 0,30,31
 250 -324 250 -324 -21 -380 c 1,0,-1
EndSplineSet
Validated: 1
EndChar

StartChar: minus
Encoding: 8722 8722 140
Width: 1266
GlyphClass: 2
Flags: W
HStem: 635 222<399.354 555.286 1027.71 1183.65> 693 106<471.71 1111.29>
LayerCount: 2
Fore
SplineSet
419 857 m 1,0,1
 617 799 617 799 816.5 799 c 128,-1,2
 1016 799 1016 799 1292 857 c 1,3,-1
 1296 847 l 1,4,5
 1203 729 1203 729 1164 635 c 1,6,7
 966 693 966 693 766.5 693 c 128,-1,8
 567 693 567 693 291 635 c 1,9,-1
 287 645 l 1,10,11
 380 763 380 763 419 857 c 1,0,1
EndSplineSet
Validated: 1
EndChar

StartChar: uni2215
Encoding: 8725 8725 141
Width: 1018
GlyphClass: 2
Flags: W
HStem: 0 21G<155.5 211> 1490 20G<1128 1183.5>
LayerCount: 2
Fore
SplineSet
211 6 m 1,0,-1
 200 0 l 1,1,2
 111 58 111 58 27 82 c 1,3,4
 306 390 306 390 648 830 c 0,5,6
 904 1160 904 1160 1128 1504 c 1,7,-1
 1139 1510 l 1,8,9
 1228 1452 1228 1452 1312 1428 c 1,10,11
 973 1063 973 1063 746 772 c 0,12,13
 402 331 402 331 211 6 c 1,0,-1
EndSplineSet
Validated: 1
EndChar

StartChar: uni2219
Encoding: 8729 8729 142
Width: 358
GlyphClass: 2
Flags: W
HStem: 607 297
VStem: 208 264<681.02 832.125>
LayerCount: 2
Fore
SplineSet
374 904 m 1,0,1
 418 888 418 888 445 854 c 0,2,3
 472 822 472 822 472 783 c 0,4,5
 472 770 472 770 469 756 c 0,6,7
 456 697 456 697 394 651 c 0,8,9
 356 624 356 624 311 607 c 1,10,-1
 305 607 l 1,11,12
 267 624 267 624 240 651 c 0,13,14
 208 685 208 685 208 728 c 0,15,16
 208 741 208 741 211 756 c 0,17,18
 223 812 223 812 277 854 c 0,19,20
 318 888 318 888 368 904 c 1,21,-1
 374 904 l 1,0,1
EndSplineSet
Validated: 1
EndChar

StartChar: radical
Encoding: 8730 8730 143
Width: 1232
GlyphClass: 2
Flags: W
HStem: 0 21G<386 465> 1490 20G<1389.5 1452>
VStem: 388 91<322.319 510.175>
LayerCount: 2
Fore
SplineSet
395 0 m 1,0,-1
 386 6 l 1,1,2
 388 57 388 57 388 107 c 0,3,4
 388 467 388 467 261 758 c 1,5,6
 321 772 321 772 477 845 c 1,7,-1
 485 839 l 1,8,9
 479 758 479 758 479 684 c 0,10,11
 479 392 479 392 567 199 c 1,12,13
 1002 856 1002 856 1230 1427 c 1,14,15
 1336 1453 1336 1453 1443 1510 c 1,16,-1
 1452 1504 l 1,17,18
 970 819 970 819 643 92 c 1,19,20
 535 73 535 73 395 0 c 1,0,-1
EndSplineSet
Validated: 1
EndChar

StartChar: infinity
Encoding: 8734 8734 144
Width: 1374
GlyphClass: 2
Flags: W
HStem: 417 663
VStem: 302 95<662.344 844.916> 1298 92<652.444 836.531>
LayerCount: 2
Fore
SplineSet
650 1080 m 1,0,1
 660 1080 l 1,2,3
 748 1046 748 1046 817 981 c 0,4,5
 892 910 892 910 920 775 c 0,6,7
 944 657 944 657 1021 605 c 0,8,9
 1100 552 1100 552 1213 539 c 1,10,11
 1274 591 1274 591 1294 686 c 0,12,13
 1298 705 1298 705 1298 723 c 0,14,15
 1298 822 1298 822 1183 896 c 0,16,17
 1090 955 1090 955 958 970 c 1,18,19
 1034 1032 1034 1032 1149 1080 c 1,20,-1
 1159 1080 l 1,21,22
 1248 1046 1248 1046 1316 981 c 0,23,24
 1390 910 1390 910 1390 812 c 0,25,26
 1390 782 1390 782 1383 748 c 0,27,28
 1357 626 1357 626 1236 529 c 0,29,30
 1157 466 1157 466 1043 417 c 1,31,-1
 1033 417 l 1,32,33
 944 451 944 451 875 517 c 0,34,35
 804 584 804 584 775 724 c 0,36,37
 751 840 751 840 668 895 c 0,38,39
 590 947 590 947 482 960 c 1,40,41
 421 908 421 908 401 813 c 0,42,43
 397 794 397 794 397 776 c 0,44,45
 397 677 397 677 512 603 c 0,46,47
 605 544 605 544 737 529 c 1,48,49
 658 466 658 466 544 417 c 1,50,-1
 534 417 l 1,51,52
 445 451 445 451 377 516 c 0,53,54
 302 588 302 588 302 687 c 0,55,56
 302 717 302 717 309 749 c 0,57,58
 336 874 336 874 456 968 c 0,59,60
 536 1031 536 1031 650 1080 c 1,0,1
EndSplineSet
Validated: 1
EndChar

StartChar: approxequal
Encoding: 8776 8776 145
Width: 1236
GlyphClass: 2
Flags: W
HStem: 429 173<817.534 1071.99> 592 173<418.141 672.466> 743 173<884.27 1138.37> 906 173<484.997 738.966>
LayerCount: 2
Fore
SplineSet
556 765 m 0,0,1
 646 765 646 765 700 690 c 0,2,3
 764 602 764 602 891 602 c 0,4,5
 1062 602 1062 602 1241 756 c 1,6,-1
 1245 746 l 1,7,8
 1141 602 1141 602 1101 492 c 1,9,10
 1016 429 1016 429 934 429 c 0,11,12
 844 429 844 429 790 504 c 0,13,14
 726 592 726 592 599 592 c 0,15,16
 428 592 428 592 249 438 c 1,17,-1
 245 448 l 1,18,19
 349 592 349 592 389 702 c 1,20,21
 475 765 475 765 556 765 c 0,0,1
622 1079 m 0,22,23
 712 1079 712 1079 766 1004 c 0,24,25
 830 916 830 916 958 916 c 0,26,27
 1129 916 1129 916 1307 1070 c 1,28,-1
 1311 1060 l 1,29,30
 1207 916 1207 916 1167 806 c 1,31,32
 1082 743 1082 743 1001 743 c 0,33,34
 911 743 911 743 857 818 c 0,35,36
 793 906 793 906 666 906 c 0,37,38
 495 906 495 906 316 752 c 1,39,-1
 312 762 l 1,40,41
 416 906 416 906 456 1016 c 1,42,43
 541 1079 541 1079 622 1079 c 0,22,23
EndSplineSet
Validated: 1
EndChar

StartChar: notequal
Encoding: 8800 8800 146
Width: 1266
GlyphClass: 2
Flags: W
HStem: 460 222<362.354 512.821 982.307 1146.65> 518 106<764 1074.71> 810 222<436.354 601.339 1067.99 1220.65> 868 106<508.759 823>
DStem2: 684 626 764 624 0.500754 0.865589<38.3292 279.077>
LayerCount: 2
Fore
SplineSet
593 263 m 1,0,1
 526 263 526 263 440 248 c 1,2,-1
 435 257 l 1,3,4
 529 382 529 382 614 515 c 1,5,6
 463 504 463 504 254 460 c 1,7,-1
 250 470 l 1,8,9
 343 588 343 588 382 682 c 1,10,11
 540 636 540 636 684 626 c 1,12,13
 719 684 719 684 754 744 c 0,14,15
 791 808 791 808 823 868 c 1,16,17
 599 867 599 867 328 810 c 1,18,-1
 324 820 l 1,19,20
 417 938 417 938 456 1032 c 1,21,22
 653 974 653 974 879 974 c 1,23,24
 943 1102 943 1102 987 1215 c 1,25,26
 1055 1215 1055 1215 1140 1230 c 1,27,-1
 1146 1221 l 1,28,29
 1058 1104 1058 1104 975 978 c 1,30,31
 1123 989 1123 989 1329 1032 c 1,32,-1
 1333 1022 l 1,33,34
 1240 904 1240 904 1201 810 c 1,35,36
 1044 856 1044 856 904 866 c 1,37,38
 864 801 864 801 825 733 c 0,39,40
 793 678 793 678 764 624 c 1,41,42
 984 625 984 625 1255 682 c 1,43,-1
 1259 672 l 1,44,45
 1166 554 1166 554 1127 460 c 1,46,47
 930 518 930 518 709 518 c 1,48,49
 642 386 642 386 593 263 c 1,0,1
EndSplineSet
Validated: 1
EndChar

StartChar: lessequal
Encoding: 8804 8804 147
Width: 1316
GlyphClass: 2
Flags: W
HStem: 84 222<282.354 438.286 910.714 1066.65> 142 106<354.71 994.29>
LayerCount: 2
Fore
SplineSet
1406 1390 m 1,0,-1
 1409 1380 l 1,1,2
 1349 1305 1349 1305 1304 1224 c 1,3,4
 893 1097 893 1097 522 900 c 1,5,6
 776 667 776 667 1237 580 c 1,7,-1
 1240 570 l 1,8,9
 1132 443 1132 443 1108 373 c 1,10,11
 777 654 777 654 320 771 c 1,12,-1
 316 781 l 1,13,14
 409 899 409 899 448 993 c 1,15,16
 912 1117 912 1117 1406 1390 c 1,0,-1
302 306 m 1,17,18
 500 248 500 248 699.5 248 c 128,-1,19
 899 248 899 248 1175 306 c 1,20,-1
 1179 296 l 1,21,22
 1086 178 1086 178 1047 84 c 1,23,24
 849 142 849 142 649.5 142 c 128,-1,25
 450 142 450 142 174 84 c 1,26,-1
 170 94 l 1,27,28
 263 212 263 212 302 306 c 1,17,18
EndSplineSet
Validated: 1
EndChar

StartChar: greaterequal
Encoding: 8805 8805 148
Width: 1316
GlyphClass: 2
Flags: W
HStem: 84 222<332.354 488.286 960.714 1116.65> 142 106<404.71 1044.29>
LayerCount: 2
Fore
SplineSet
582 1390 m 1,0,1
 913 1109 913 1109 1370 992 c 1,2,-1
 1374 982 l 1,3,4
 1281 864 1281 864 1242 770 c 1,5,6
 778 646 778 646 284 373 c 1,7,-1
 281 383 l 1,8,9
 341 458 341 458 386 539 c 1,10,11
 797 666 797 666 1168 863 c 1,12,13
 914 1096 914 1096 453 1183 c 1,14,-1
 450 1193 l 1,15,16
 558 1320 558 1320 582 1390 c 1,0,1
352 306 m 1,17,18
 550 248 550 248 749.5 248 c 128,-1,19
 949 248 949 248 1225 306 c 1,20,-1
 1229 296 l 1,21,22
 1136 178 1136 178 1097 84 c 1,23,24
 899 142 899 142 699.5 142 c 128,-1,25
 500 142 500 142 224 84 c 1,26,-1
 220 94 l 1,27,28
 313 212 313 212 352 306 c 1,17,18
EndSplineSet
Validated: 1
EndChar

StartChar: lozenge
Encoding: 9674 9674 149
Width: 1134
GlyphClass: 2
Flags: W
DStem2: 257 738 425 803 0.625536 0.780196<155.803 746.296> 425 803 257 738 0.374342 -0.927291<0 615.939> 651 230 563 -20 0.637091 0.770789<0 582.343> 892 1530 794 1264 0.355404 -0.934713<213.804 836.127>
LayerCount: 2
Fore
SplineSet
651 230 m 1,0,-1
 1017 683 l 1,1,-1
 794 1264 l 1,2,-1
 425 803 l 1,3,-1
 651 230 l 1,0,-1
563 -20 m 1,4,-1
 257 738 l 1,5,-1
 892 1530 l 1,6,-1
 1192 741 l 1,7,-1
 563 -20 l 1,4,-1
EndSplineSet
Validated: 1
EndChar

StartChar: Y
Encoding: 89 89 150
Width: 1175
Flags: W
HStem: 0 21G<465 550.5> 1490 20G<476 562 1427.5 1490>
LayerCount: 2
Fore
SplineSet
474 0 m 1,0,-1
 465 6 l 1,1,2
 552 240 552 240 594 436 c 1,3,4
 514 938 514 938 306 1418 c 1,5,6
 399 1431 399 1431 553 1510 c 1,7,-1
 562 1504 l 1,8,9
 591 979 591 979 755 581 c 1,10,11
 1074 1016 1074 1016 1268 1427 c 1,12,13
 1374 1453 1374 1453 1481 1510 c 1,14,-1
 1490 1504 l 1,15,16
 1080 994 1080 994 782 466 c 1,17,18
 742 278 742 278 736 92 c 1,19,20
 627 79 627 79 474 0 c 1,0,-1
EndSplineSet
Validated: 1
EndChar

StartChar: X
Encoding: 88 88 151
Width: 1185
Flags: W
HStem: 0 21G<31 115.5 924 1010> 1490 20G<496 582 1388.5 1473>
LayerCount: 2
Fore
SplineSet
40 0 m 1,0,-1
 31 6 l 1,1,2
 422 384 422 384 687 710 c 1,3,4
 539 1070 539 1070 331 1418 c 1,5,6
 419 1431 419 1431 573 1510 c 1,7,-1
 582 1504 l 1,8,9
 664 1172 664 1172 797 843 c 1,10,11
 1019 1102 1019 1102 1218 1420 c 1,12,13
 1313 1433 1313 1433 1464 1510 c 1,14,-1
 1473 1504 l 1,15,16
 1063 1077 1063 1077 826 778 c 1,17,18
 973 426 973 426 1175 92 c 1,19,20
 1087 80 1087 80 933 0 c 1,21,-1
 924 6 l 1,22,23
 839 338 839 338 712 643 c 1,24,25
 468 359 468 359 286 90 c 1,26,27
 191 77 191 77 40 0 c 1,0,-1
EndSplineSet
Validated: 19457
EndChar

StartChar: Z
Encoding: 90 90 152
Width: 1168
Flags: W
HStem: 0 21G<81 209 891 1016.5> 45 71<442.726 876.75> 1394 71<621.688 1042.99> 1490 20G<507.5 621.5 1258 1388>
LayerCount: 2
Fore
SplineSet
90 0 m 1,0,-1
 81 6 l 1,1,2
 684 743 684 743 1046 1380 c 1,3,4
 950 1394 950 1394 831 1394 c 0,5,6
 632 1394 632 1394 388 1258 c 1,7,-1
 385 1268 l 1,8,9
 487 1394 487 1394 528 1510 c 1,10,11
 715 1465 715 1465 905 1465 c 0,12,13
 1137 1465 1137 1465 1379 1510 c 1,14,-1
 1388 1504 l 1,15,16
 766 726 766 726 440 135 c 1,17,18
 527 116 527 116 643 116 c 0,19,20
 864 116 864 116 1136 252 c 1,21,-1
 1139 242 l 1,22,23
 1037 116 1037 116 996 0 c 1,24,25
 786 45 786 45 568 45 c 0,26,27
 328 45 328 45 90 0 c 1,0,-1
EndSplineSet
Validated: 1
EndChar

StartChar: J
Encoding: 74 74 153
Width: 615
Flags: W
HStem: -380 21G<-34 56> 1490 20G<669 755>
LayerCount: 2
Fore
SplineSet
-27 -380 m 1,0,1
 -34 -374 l 1,2,3
 127 -169 127 -169 204 61 c 24,4,5
 293 323 293 323 379 730 c 0,6,7
 450 1063 450 1063 484 1418 c 1,8,9
 592 1431 592 1431 746 1510 c 1,10,-1
 755 1504 l 1,11,12
 637 1154 637 1154 556 782 c 0,13,14
 481 429 481 429 452 92 c 1,15,16
 372 -37 372 -37 251 -154 c 0,17,18
 139 -264 139 -264 -27 -380 c 1,0,1
EndSplineSet
Validated: 1
EndChar

StartChar: U
Encoding: 85 85 154
Width: 1409
VWidth: 0
Flags: W
HStem: 0 165<652.371 790.378> 1490 20G<664.5 752 1463 1549>
VStem: 325 192<295.265 700.734>
LayerCount: 2
Fore
SplineSet
984 0 m 1,0,-1
 975 6 l 1,1,2
 1007 100 1007 100 1035 195 c 1,3,4
 881 67 881 67 682 0 c 1,5,-1
 672 0 l 1,6,7
 513 46 513 46 417 146 c 0,8,9
 325 242 325 242 325 411 c 0,10,11
 325 490 325 490 345 585 c 2,12,-1
 398 832 l 2,13,14
 452 1087 452 1087 481 1418 c 1,15,16
 586 1430 586 1430 743 1510 c 1,17,-1
 752 1504 l 1,18,19
 632 1153 632 1153 553 782 c 0,20,21
 517 613 517 613 517 495 c 0,22,23
 517 364 517 364 561 296 c 0,24,25
 646 165 646 165 831 165 c 0,26,27
 943 165 943 165 1048 235 c 1,28,29
 1120 481 1120 481 1173 730 c 0,30,31
 1244 1063 1244 1063 1278 1418 c 1,32,33
 1386 1431 1386 1431 1540 1510 c 1,34,-1
 1549 1504 l 1,35,36
 1431 1154 1431 1154 1350 782 c 0,37,38
 1275 429 1275 429 1246 92 c 1,39,40
 1132 77 1132 77 984 0 c 1,0,-1
EndSplineSet
Validated: 1
EndChar

StartChar: K
Encoding: 75 75 155
Width: 1252
Flags: W
HStem: 0 21G<181 264 916 991.5> 1490 20G<672.5 755 1387.5 1470>
LayerCount: 2
Fore
SplineSet
190 0 m 1,0,-1
 181 6 l 1,1,2
 301 364 301 364 379 730 c 0,3,4
 451 1068 451 1068 485 1422 c 1,5,6
 599 1434 599 1434 746 1510 c 1,7,-1
 755 1504 l 1,8,9
 622 1093 622 1093 556 782 c 0,10,11
 520 611 520 611 509 551 c 1,12,13
 916 964 916 964 1200 1422 c 1,14,15
 1314 1434 1314 1434 1461 1510 c 1,16,-1
 1470 1504 l 1,17,18
 1113 1147 1113 1147 936 921 c 1,19,20
 994 450 994 450 1171 89 c 1,21,22
 1059 71 1059 71 924 0 c 1,23,-1
 916 6 l 1,24,25
 900 419 900 419 762 725 c 1,26,27
 602 557 602 557 485 385 c 1,28,29
 463 230 463 230 452 92 c 1,30,31
 338 77 338 77 190 0 c 1,0,-1
EndSplineSet
Validated: 1
EndChar

StartChar: Q
Encoding: 81 81 156
Width: 1354
VWidth: 0
Flags: W
HStem: 0 21G<567 754 991 1053.5> 1490 20G<869.5 1107>
VStem: 260 185<466.301 840.573> 1230 185<669.962 1043.7>
LayerCount: 2
Fore
SplineSet
672 0 m 1,0,1
 462 90 462 90 353 260 c 0,2,3
 260 404 260 404 260 583 c 0,4,5
 260 663 260 663 279 750 c 0,6,7
 337 1021 337 1021 575 1257 c 0,8,9
 746 1427 746 1427 993 1510 c 1,10,-1
 1003 1510 l 1,11,12
 1211 1422 1211 1422 1322 1250 c 0,13,14
 1415 1106 1415 1106 1415 927 c 0,15,16
 1415 847 1415 847 1396 760 c 0,17,18
 1339 491 1339 491 1100 253 c 0,19,20
 1087 241 1087 241 1074 228 c 1,21,22
 1126 147 1126 147 1203 80 c 1,23,24
 1107 57 1107 57 1000 0 c 1,25,-1
 991 6 l 1,26,27
 972 66 972 66 942 125 c 1,28,29
 826 49 826 49 682 0 c 1,30,-1
 672 0 l 1,0,1
775 367 m 1,31,32
 873 391 873 391 978 447 c 1,33,-1
 987 441 l 1,34,35
 1005 357 1005 357 1043 283 c 1,36,37
 1167 478 1167 478 1215 699 c 0,38,39
 1230 769 1230 769 1230 835 c 0,40,41
 1230 1026 1230 1026 1102 1174 c 0,42,43
 971 1326 971 1326 733 1365 c 1,44,45
 524 1111 524 1111 460 811 c 0,46,47
 445 741 445 741 445 675 c 0,48,49
 445 484 445 484 573 336 c 128,-1,50
 701 188 701 188 931 147 c 1,51,52
 871 258 871 258 775 367 c 1,31,32
EndSplineSet
Validated: 1
EndChar

StartChar: P
Encoding: 80 80 157
Width: 1331
VWidth: 0
Flags: W
HStem: 0 21G<227 310> 388 84<560.733 937.678> 1110 20G<634 717> 1321 189<637.215 1069.49>
VStem: 1234 188<817.28 1166.84>
LayerCount: 2
Fore
SplineSet
236 0 m 1,0,-1
 227 6 l 1,1,2
 336 339 336 339 384 565 c 0,3,4
 434 799 434 799 447 1038 c 1,5,6
 560 1053 560 1053 708 1130 c 1,7,-1
 717 1124 l 1,8,9
 608 838 608 838 563 627 c 0,10,11
 552 575 552 575 543 523 c 1,12,13
 632 472 632 472 750 472 c 0,14,15
 953 472 953 472 1097 636 c 0,16,17
 1189 741 1189 741 1221 888 c 0,18,19
 1234 947 1234 947 1234 999 c 0,20,21
 1234 1115 1234 1115 1170 1195 c 0,22,23
 1071 1321 1071 1321 857 1321 c 0,24,25
 614 1321 614 1321 373 1163 c 1,26,-1
 369 1173 l 1,27,28
 474 1305 474 1305 513 1415 c 1,29,30
 711 1510 711 1510 914 1510 c 0,31,32
 1167 1510 1167 1510 1312 1357 c 0,33,34
 1422 1241 1422 1241 1422 1061 c 0,35,36
 1422 1004 1422 1004 1411 940 c 0,37,38
 1369 698 1369 698 1171 541 c 0,39,40
 978 388 978 388 732 388 c 0,41,42
 627 388 627 388 527 430 c 1,43,44
 501 258 501 258 498 92 c 1,45,46
 384 77 384 77 236 0 c 1,0,-1
EndSplineSet
Validated: 1
EndChar

StartChar: D
Encoding: 68 68 158
Width: 1428
VWidth: 0
Flags: W
HStem: 0 76<524.061 874.609> 1110 20G<634 717> 1321 189<637.206 1070.96>
VStem: 1283 211<672.315 1098.3>
LayerCount: 2
Fore
SplineSet
236 0 m 1,0,-1
 227 6 l 1,1,2
 336 339 336 339 384 565 c 0,3,4
 434 799 434 799 447 1038 c 1,5,6
 560 1053 560 1053 708 1130 c 1,7,-1
 717 1124 l 1,8,9
 608 838 608 838 563 627 c 0,10,11
 507 362 507 362 496 124 c 1,12,13
 611 76 611 76 713 76 c 0,14,15
 942 76 942 76 1108 328 c 0,16,17
 1221 500 1221 500 1263 702 c 0,18,19
 1283 796 1283 796 1283 879 c 0,20,21
 1283 1040 1283 1040 1207 1158 c 0,22,23
 1101 1321 1101 1321 860 1321 c 0,24,25
 630 1321 630 1321 373 1163 c 1,26,-1
 369 1173 l 1,27,28
 474 1305 474 1305 513 1415 c 1,29,30
 706 1510 706 1510 923 1510 c 0,31,32
 1216 1510 1216 1510 1376 1318 c 0,33,34
 1494 1174 1494 1174 1494 954 c 0,35,36
 1494 861 1494 861 1471 755 c 0,37,38
 1414 492 1414 492 1246 278 c 0,39,40
 1027 0 1027 0 696 0 c 0,41,42
 634 0 634 0 538 18 c 0,43,44
 444 35 444 35 393 35 c 0,45,46
 313 35 313 35 236 0 c 1,0,-1
EndSplineSet
Validated: 1
EndChar

StartChar: R
Encoding: 82 82 159
Width: 1342
VWidth: 0
Flags: W
HStem: 0 21G<227 310 1006 1085.5> 388 84<561.523 833.901> 1110 20G<634 717> 1321 189<637.215 1069.49>
VStem: 1234 188<816.5 1166.84>
LayerCount: 2
Fore
SplineSet
236 0 m 1,0,1
 227 6 l 1,2,3
 336 339 336 339 384 565 c 0,4,5
 434 799 434 799 447 1038 c 1,6,7
 560 1053 560 1053 708 1130 c 1,8,-1
 717 1124 l 1,9,10
 608 838 608 838 563 627 c 0,11,12
 552 575 552 575 543 523 c 1,13,14
 632 472 632 472 750 472 c 0,15,16
 953 472 953 472 1097 636 c 0,17,18
 1189 741 1189 741 1221 888 c 0,19,20
 1234 947 1234 947 1234 999 c 0,21,22
 1234 1115 1234 1115 1170 1195 c 0,23,24
 1071 1321 1071 1321 857 1321 c 0,25,26
 614 1321 614 1321 373 1163 c 1,27,-1
 369 1173 l 1,28,29
 474 1305 474 1305 513 1415 c 1,30,31
 711 1510 711 1510 914 1510 c 0,32,33
 1167 1510 1167 1510 1312 1357 c 0,34,35
 1422 1241 1422 1241 1422 1061 c 0,36,37
 1422 1004 1422 1004 1411 940 c 0,38,39
 1368 694 1368 694 1171 541 c 0,40,41
 1096 482 1096 482 1007 447 c 1,42,43
 1071 267 1071 267 1262 92 c 1,44,45
 1156 74 1156 74 1015 0 c 1,46,-1
 1006 6 l 1,47,48
 941 206 941 206 805 390 c 1,49,50
 777 388 777 388 732 388 c 0,51,52
 627 388 627 388 527 430 c 1,53,54
 501 258 501 258 498 92 c 1,55,56
 384 77 384 77 236 0 c 1,0,1
EndSplineSet
Validated: 1
EndChar

StartChar: S
Encoding: 83 83 160
Width: 1124
VWidth: 0
Flags: W
HStem: 0 21G<440.5 682.5> 1490 20G<787 932>
VStem: 407 158<1052.86 1209.52> 954 186<411.227 620.306 1235 1258.19>
DStem2: 675 1002 591 819 0.871576 -0.490261<-141.543 441.613>
LayerCount: 2
Fore
SplineSet
547 0 m 1,0,1
 334 91 334 91 228 260 c 0,2,3
 196 311 196 311 177 360 c 1,4,-1
 183 371 l 1,5,6
 302 382 302 382 384 427 c 1,7,8
 410 383 410 383 448 336 c 0,9,10
 574 183 574 183 817 145 c 1,11,12
 903 270 903 270 939 396 c 0,13,14
 954 448 954 448 954 501 c 0,15,16
 954 612 954 612 835 680 c 2,17,-1
 591 819 l 2,18,19
 407 924 407 924 407 1065 c 0,20,21
 407 1084 407 1084 410 1099 c 0,22,23
 434 1231 434 1231 562 1337 c 0,24,25
 706 1456 706 1456 868 1510 c 1,26,-1
 878 1510 l 1,27,28
 986 1471 986 1471 1076 1381 c 0,29,30
 1138 1319 1138 1319 1149 1247 c 1,31,-1
 1144 1235 l 1,32,33
 1038 1219 1038 1219 960 1172 c 1,34,35
 945 1233 945 1233 885 1281 c 0,36,37
 779 1365 779 1365 660 1387 c 1,38,39
 589 1295 589 1295 569 1196 c 0,40,41
 565 1176 565 1176 565 1157 c 0,42,43
 565 1064 565 1064 675 1002 c 2,44,-1
 947 849 l 2,45,46
 1140 740 1140 740 1140 575 c 0,47,48
 1140 545 1140 545 1133 514 c 0,49,50
 1105 383 1105 383 975 253 c 0,51,52
 808 87 808 87 557 0 c 1,53,-1
 547 0 l 1,0,1
EndSplineSet
Validated: 1
EndChar

StartChar: two
Encoding: 50 50 161
Width: 1210
VWidth: 0
Flags: W
HStem: 60 142<358.935 964.688> 1490 20G<782.5 1030.5>
VStem: 361 170<957.107 1148.4> 1088 212<926.312 1180.91>
LayerCount: 2
Fore
SplineSet
163 10 m 1,0,1
 146 33 146 33 146 62 c 0,2,3
 146 73 146 73 148 84 c 0,4,5
 185 258 185 258 645 570 c 2,6,-1
 882 731 l 2,7,8
 1049 844 1049 844 1082 997 c 0,9,10
 1088 1025 1088 1025 1088 1051 c 0,11,12
 1088 1150 1088 1150 1004 1225 c 0,13,14
 886 1332 886 1332 664 1365 c 1,15,16
 562 1266 562 1266 536 1141 c 0,17,18
 531 1120 531 1120 531 1101 c 0,19,20
 531 1011 531 1011 633 974 c 1,21,22
 536 957 536 957 389 883 c 1,23,-1
 380 889 l 1,24,25
 361 934 361 934 361 986 c 0,26,27
 361 1018 361 1018 368 1052 c 0,28,29
 392 1165 392 1165 499 1263 c 0,30,31
 665 1413 665 1413 900 1510 c 1,32,-1
 910 1510 l 1,33,34
 1151 1423 1151 1423 1257 1257 c 0,35,36
 1300 1189 1300 1189 1300 1105 c 0,37,38
 1300 1068 1300 1068 1292 1028 c 0,39,40
 1247 816 1247 816 1009 673 c 2,41,-1
 681 476 l 2,42,43
 481 356 481 356 354 238 c 1,44,45
 512 202 512 202 660 202 c 0,46,47
 871 202 871 202 1136 292 c 1,48,-1
 1140 282 l 1,49,50
 1037 154 1037 154 989 10 c 1,51,52
 795 60 795 60 585 60 c 0,53,54
 368 60 368 60 163 10 c 1,0,1
EndSplineSet
Validated: 1
EndChar

StartChar: three
Encoding: 51 51 162
Width: 1188
Flags: W
HStem: 0 21G<460.5 697.5> 1490 20G<799.5 950.5>
VStem: 431 170<1081 1217.08> 983 188<1078.81 1247.81> 994 192<451.504 664.765>
LayerCount: 2
Fore
SplineSet
567 0 m 1,0,1
 354 91 354 91 248 260 c 0,2,3
 216 311 216 311 197 360 c 1,4,-1
 203 371 l 1,5,6
 322 382 322 382 404 427 c 1,7,8
 430 383 430 383 468 336 c 0,9,10
 594 183 594 183 837 145 c 1,11,12
 953 300 953 300 986 456 c 0,13,14
 994 494 994 494 994 527 c 0,15,16
 994 623 994 623 929 691 c 0,17,18
 831 792 831 792 624 800 c 1,19,-1
 626 810 l 1,20,21
 944 931 944 931 979 1094 c 0,22,23
 983 1115 983 1115 983 1134 c 0,24,25
 983 1217 983 1217 905 1281 c 0,26,27
 822 1350 822 1350 680 1387 c 1,28,29
 623 1316 623 1316 605 1233 c 0,30,31
 601 1212 601 1212 601 1193 c 0,32,33
 601 1118 601 1118 670 1069 c 1,34,35
 577 1048 577 1048 462 986 c 1,36,-1
 453 992 l 1,37,38
 431 1034 431 1034 431 1081 c 0,39,40
 431 1103 431 1103 436 1126 c 0,41,42
 458 1229 458 1229 582 1337 c 0,43,44
 711 1448 711 1448 888 1510 c 1,45,-1
 898 1510 l 1,46,47
 1003 1472 1003 1472 1096 1381 c 0,48,49
 1171 1307 1171 1307 1171 1218 c 0,50,51
 1171 1195 1171 1195 1166 1170 c 0,52,53
 1142 1055 1142 1055 1021 970 c 0,54,55
 980 941 980 941 925 921 c 1,56,57
 1032 904 1032 904 1103 838 c 0,58,59
 1186 761 1186 761 1186 643 c 0,60,61
 1186 610 1186 610 1180 574 c 0,62,63
 1150 398 1150 398 995 253 c 0,64,65
 818 83 818 83 577 0 c 1,66,-1
 567 0 l 1,0,1
EndSplineSet
Validated: 1
EndChar

StartChar: five
Encoding: 53 53 163
Width: 1178
Flags: W
HStem: 0 21G<460.5 693.5> 814 132<621.857 873.103> 1490 20G<694 828.5 1237.5 1325>
VStem: 509 103<1087.47 1231.33> 996 190<451.125 692.688>
LayerCount: 2
Fore
SplineSet
567 0 m 1,0,1
 354 91 354 91 248 260 c 0,2,3
 216 311 216 311 197 360 c 1,4,-1
 203 371 l 1,5,6
 322 382 322 382 404 427 c 1,7,8
 430 383 430 383 468 336 c 0,9,10
 594 183 594 183 837 145 c 1,11,12
 953 300 953 300 986 456 c 0,13,14
 996 501 996 501 996 541 c 0,15,16
 996 632 996 632 947 701 c 0,17,18
 869 814 869 814 693 814 c 0,19,20
 534 814 534 814 374 752 c 1,21,-1
 370 760 l 1,22,23
 429 913 429 913 477 1144 c 0,24,25
 504 1271 504 1271 509 1418 c 1,26,27
 617 1431 617 1431 771 1510 c 1,28,29
 886 1443 886 1443 1024 1443 c 0,30,31
 1154 1443 1154 1443 1321 1510 c 1,32,-1
 1325 1500 l 1,33,34
 1220 1368 1220 1368 1181 1258 c 1,35,36
 1038 1267 1038 1267 936 1321 c 0,37,38
 835 1373 835 1373 771 1478 c 1,39,40
 668 1310 668 1310 631 1132 c 0,41,42
 612 1045 612 1045 612 969 c 0,43,44
 612 931 612 931 617 895 c 1,45,46
 723 946 723 946 836 946 c 0,47,48
 1002 946 1002 946 1099 856 c 0,49,50
 1186 775 1186 775 1186 646 c 0,51,52
 1186 612 1186 612 1180 574 c 0,53,54
 1151 396 1151 396 995 253 c 0,55,56
 810 81 810 81 577 0 c 1,57,-1
 567 0 l 1,0,1
EndSplineSet
Validated: 1
EndChar

StartChar: paragraph
Encoding: 182 182 164
Width: 1047
Flags: W
HStem: 0 21G<643 672.5> 714 796<618.718 816.828>
VStem: 643 103<22.043 104.44>
DStem2: 691.66 0 738.16 0 0.207912 0.978148<344.078 797.539>
LayerCount: 2
Fore
SplineSet
652 0 m 1,0,-1
 643 6 l 1,1,2
 769 364 769 364 843 712 c 0,3,4
 850 746 850 746 858 780 c 1,5,6
 750 714 750 714 634 714 c 0,7,8
 469 714 469 714 389 831 c 0,9,10
 327 922 327 922 327 1028 c 0,11,12
 327 1068 327 1068 336 1110 c 0,13,14
 374 1283 374 1283 512 1397 c 0,15,16
 649 1510 649 1510 801 1510 c 0,17,18
 929 1510 929 1510 1013 1431 c 1,19,20
 1099 1454 1099 1454 1208 1510 c 1,21,-1
 1217 1504 l 1,22,23
 1099 1154 1099 1154 1018 782 c 0,24,25
 943 429 943 429 914 92 c 1,26,27
 857 78 857 78 811 59 c 1,28,-1
 1090 1373 l 1,29,-1
 1030 1373 l 1,30,-1
 746 37 l 1,31,32
 693 21 693 21 652 0 c 1,0,-1
EndSplineSet
Validated: 1
EndChar

StartChar: uni00B5
Encoding: 181 181 165
Width: 1191
Flags: W
HStem: -380 21G<73 147.5> 0 156<558.729 696.891> 1110 20G<541 616 1204.5 1280>
LayerCount: 2
Fore
SplineSet
826 0 m 1,0,1
 817 6 l 1,2,3
 845 81 845 81 869 154 c 1,4,5
 736 49 736 49 588 0 c 1,6,-1
 578 0 l 1,7,8
 449 47 449 47 369 146 c 1,9,10
 331 -78 331 -78 312 -293 c 1,11,12
 214 -312 214 -312 81 -380 c 1,13,-1
 73 -374 l 1,14,15
 185 -40 185 -40 289 452 c 0,16,17
 364 805 364 805 372 1043 c 1,18,19
 475 1061 475 1061 607 1130 c 1,20,-1
 616 1124 l 1,21,22
 517 861 517 861 466 619 c 0,23,24
 448 532 448 532 448 460 c 0,25,26
 448 336 448 336 502 258 c 0,27,28
 573 156 573 156 711 156 c 0,29,30
 809 156 809 156 882 191 c 1,31,32
 941 374 941 374 975 538 c 0,33,34
 1033 811 1033 811 1041 1043 c 1,35,36
 1138 1061 1138 1061 1271 1130 c 1,37,-1
 1280 1124 l 1,38,39
 1180 861 1180 861 1122 590 c 0,40,41
 1066 327 1066 327 1056 87 c 1,42,43
 960 69 960 69 826 0 c 1,0,1
EndSplineSet
Validated: 1
EndChar

StartChar: M
Encoding: 77 77 166
Width: 1705
Flags: W
HStem: 0 21G<51 106 675 751.5 1419 1499> 1490 20G<644 730 1671.5 1756>
VStem: 1526 136<653.859 909.846>
LayerCount: 2
Fore
SplineSet
60 0 m 1,0,-1
 51 6 l 1,1,2
 353 679 353 679 519 1255 c 1,3,4
 495 1340 495 1340 459 1418 c 1,5,6
 567 1431 567 1431 721 1510 c 1,7,-1
 730 1504 l 1,8,9
 740 745 740 745 876 250 c 1,10,11
 1200 726 1200 726 1505 1352 c 1,12,13
 1498 1392 1498 1392 1485 1418 c 1,14,15
 1596 1432 1596 1432 1747 1510 c 1,16,-1
 1756 1504 l 1,17,18
 1662 943 1662 943 1662 447 c 0,19,20
 1662 265 1662 265 1675 92 c 1,21,22
 1570 75 1570 75 1428 0 c 1,23,-1
 1419 6 l 1,24,25
 1526 601 1526 601 1526 1128 c 0,26,27
 1526 1152 1526 1152 1526 1175 c 1,28,29
 1207 705 1207 705 946 92 c 1,30,31
 819 72 819 72 684 0 c 1,32,-1
 675 6 l 1,33,34
 649 600 649 600 563 1066 c 1,35,36
 355 598 355 598 227 71 c 1,37,38
 152 47 152 47 60 0 c 1,0,-1
EndSplineSet
Validated: 1
EndChar

StartChar: B
Encoding: 66 66 167
Width: 1335
VWidth: 0
Flags: W
HStem: 0 76<524.061 885.739> 1110 20G<634 717> 1332 178<630.256 1059.55>
VStem: 1132 160<1063.14 1265.85> 1153 180<380.318 656.755>
LayerCount: 2
Fore
SplineSet
236 0 m 1,0,-1
 227 6 l 1,1,2
 336 339 336 339 384 565 c 0,3,4
 434 799 434 799 447 1038 c 1,5,6
 560 1053 560 1053 708 1130 c 1,7,-1
 717 1124 l 1,8,9
 608 838 608 838 563 627 c 0,10,11
 507 362 507 362 496 124 c 1,12,13
 611 76 611 76 713 76 c 0,14,15
 894 76 894 76 1023 213 c 0,16,17
 1113 309 1113 309 1144 447 c 0,18,19
 1153 487 1153 487 1153 522 c 0,20,21
 1153 609 1153 609 1100 667 c 0,22,23
 1041 732 1041 732 918 732 c 0,24,25
 846 732 846 732 772 710 c 1,26,-1
 768 719 l 1,27,28
 1086 922 1086 922 1126 1103 c 0,29,30
 1132 1130 1132 1130 1132 1154 c 0,31,32
 1132 1215 1132 1215 1096 1257 c 0,33,34
 1031 1332 1031 1332 860 1332 c 0,35,36
 630 1332 630 1332 373 1163 c 1,37,-1
 369 1173 l 1,38,39
 474 1305 474 1305 513 1415 c 1,40,41
 697 1510 697 1510 898 1510 c 0,42,43
 1111 1510 1111 1510 1221 1397 c 0,44,45
 1292 1324 1292 1324 1292 1223 c 0,46,47
 1292 1186 1292 1186 1284 1150 c 0,48,49
 1263 1063 1263 1063 1198 994 c 0,50,51
 1147 941 1147 941 1056 891 c 1,52,53
 1184 881 1184 881 1255 805 c 0,54,55
 1333 722 1333 722 1333 595 c 0,56,57
 1333 534 1333 534 1322 486 c 0,58,59
 1274 276 1274 276 1112 145 c 0,60,61
 933 0 933 0 696 0 c 0,62,63
 634 0 634 0 538 18 c 0,64,65
 444 35 444 35 393 35 c 0,66,67
 313 35 313 35 236 0 c 1,0,-1
EndSplineSet
Validated: 1
EndChar

StartChar: F
Encoding: 70 70 168
Width: 1031
Flags: W
HStem: 0 21G<181 264> 700 73<554 811.075> 1490 20G<669 803.5 1212.5 1300>
LayerCount: 2
Fore
SplineSet
190 0 m 1,0,1
 181 6 l 1,2,3
 301 364 301 364 379 730 c 0,4,5
 450 1063 450 1063 484 1418 c 1,6,7
 592 1431 592 1431 746 1510 c 1,8,9
 861 1443 861 1443 999 1443 c 0,10,11
 1129 1443 1129 1443 1296 1510 c 1,12,-1
 1300 1500 l 1,13,14
 1195 1368 1195 1368 1156 1258 c 1,15,16
 1013 1267 1013 1267 911 1321 c 0,17,18
 810 1373 810 1373 746 1478 c 1,19,20
 631 1133 631 1133 554 773 c 1,21,22
 784 773 784 773 1059 898 c 1,23,-1
 1063 888 l 1,24,25
 958 756 958 756 919 646 c 1,26,27
 733 700 733 700 540 700 c 1,28,29
 477 385 477 385 452 92 c 1,30,31
 338 77 338 77 190 0 c 1,0,1
EndSplineSet
Validated: 1
EndChar

StartChar: AE
Encoding: 198 198 169
Width: 1701
Flags: W
HStem: 0 21G<6 77 783 900.5 1477.5 1578> 45 71<1060.91 1445.75> 700 73<591.851 975 1156 1413.08> 1490 20G<1215 1405.5 1814.5 1902>
LayerCount: 2
Fore
SplineSet
15 0 m 1,0,1
 6 6 l 1,2,3
 488 691 488 691 815 1418 c 1,4,5
 1082 1434 1082 1434 1348 1510 c 1,6,7
 1463 1443 1463 1443 1601 1443 c 0,8,9
 1731 1443 1731 1443 1898 1510 c 1,10,-1
 1902 1500 l 1,11,12
 1797 1368 1797 1368 1758 1258 c 1,13,14
 1615 1267 1615 1267 1513 1321 c 0,15,16
 1412 1373 1412 1373 1348 1478 c 1,17,18
 1233 1133 1233 1133 1156 773 c 1,19,20
 1386 773 1386 773 1661 898 c 1,21,-1
 1665 888 l 1,22,23
 1560 756 1560 756 1521 646 c 1,24,25
 1335 700 1335 700 1142 700 c 1,26,27
 1082 401 1082 401 1057 135 c 1,28,29
 1137 116 1137 116 1230 116 c 0,30,31
 1427 116 1427 116 1699 252 c 1,32,-1
 1702 242 l 1,33,34
 1597 110 1597 110 1559 0 c 1,35,36
 1396 45 1396 45 1220 45 c 0,37,38
 1009 45 1009 45 792 0 c 1,39,-1
 783 6 l 1,40,41
 898 349 898 349 975 700 c 1,42,43
 750 700 750 700 509 662 c 1,44,45
 355 390 355 390 229 88 c 1,46,47
 139 67 139 67 15 0 c 1,0,1
990 773 m 1,48,49
 1051 1075 1051 1075 1086 1416 c 1,50,51
 922 1350 922 1350 586 808 c 1,52,53
 773 773 773 773 990 773 c 1,48,49
EndSplineSet
Validated: 1
EndChar

StartChar: Eth
Encoding: 208 208 170
Width: 1428
VWidth: 0
Flags: W
HStem: 0 76<524.061 874.609> 599 146<295.65 393.592 586.658 887.35> 636 72<581 850.619> 1110 20G<634 717> 1321 189<637.206 1070.96>
VStem: 1283 211<672.315 1098.3>
LayerCount: 2
Fore
SplineSet
236 0 m 1,0,-1
 227 6 l 1,1,2
 336 339 336 339 384 565 c 0,3,4
 390 595 390 595 396 625 c 1,5,6
 319 616 319 616 233 599 c 1,7,-1
 229 609 l 1,8,9
 287 681 287 681 323 745 c 1,10,11
 369 733 369 733 414 725 c 1,12,13
 438 881 438 881 447 1038 c 1,14,15
 560 1053 560 1053 708 1130 c 1,16,-1
 717 1124 l 1,17,18
 627 887 627 887 581 708 c 1,19,20
 762 708 762 708 950 745 c 1,21,-1
 954 735 l 1,22,23
 896 663 896 663 860 599 c 1,24,25
 720 636 720 636 565 636 c 1,26,27
 507 362 507 362 496 124 c 1,28,29
 611 76 611 76 713 76 c 0,30,31
 942 76 942 76 1108 328 c 0,32,33
 1221 500 1221 500 1263 702 c 0,34,35
 1283 796 1283 796 1283 879 c 0,36,37
 1283 1040 1283 1040 1207 1158 c 0,38,39
 1101 1321 1101 1321 860 1321 c 0,40,41
 630 1321 630 1321 373 1163 c 1,42,-1
 369 1173 l 1,43,44
 474 1305 474 1305 513 1415 c 1,45,46
 706 1510 706 1510 923 1510 c 0,47,48
 1216 1510 1216 1510 1376 1318 c 0,49,50
 1494 1174 1494 1174 1494 954 c 0,51,52
 1494 861 1494 861 1471 755 c 0,53,54
 1414 492 1414 492 1246 278 c 0,55,56
 1027 0 1027 0 696 0 c 0,57,58
 634 0 634 0 538 18 c 0,59,60
 444 35 444 35 393 35 c 0,61,62
 313 35 313 35 236 0 c 1,0,-1
EndSplineSet
Validated: 1
EndChar

StartChar: Dcroat
Encoding: 272 272 171
Width: 1428
VWidth: 0
Flags: W
HStem: 0 76<524.061 874.609> 599 146<295.65 393.592 586.658 887.35> 636 72<581 850.619> 1110 20G<634 717> 1321 189<637.206 1070.96>
VStem: 1283 211<672.315 1098.3>
LayerCount: 2
Fore
SplineSet
236 0 m 1,0,-1
 227 6 l 1,1,2
 336 339 336 339 384 565 c 0,3,4
 390 595 390 595 396 625 c 1,5,6
 319 616 319 616 233 599 c 1,7,-1
 229 609 l 1,8,9
 287 681 287 681 323 745 c 1,10,11
 369 733 369 733 414 725 c 1,12,13
 438 881 438 881 447 1038 c 1,14,15
 560 1053 560 1053 708 1130 c 1,16,-1
 717 1124 l 1,17,18
 627 887 627 887 581 708 c 1,19,20
 762 708 762 708 950 745 c 1,21,-1
 954 735 l 1,22,23
 896 663 896 663 860 599 c 1,24,25
 720 636 720 636 565 636 c 1,26,27
 507 362 507 362 496 124 c 1,28,29
 611 76 611 76 713 76 c 0,30,31
 942 76 942 76 1108 328 c 0,32,33
 1221 500 1221 500 1263 702 c 0,34,35
 1283 796 1283 796 1283 879 c 0,36,37
 1283 1040 1283 1040 1207 1158 c 0,38,39
 1101 1321 1101 1321 860 1321 c 0,40,41
 630 1321 630 1321 373 1163 c 1,42,-1
 369 1173 l 1,43,44
 474 1305 474 1305 513 1415 c 1,45,46
 706 1510 706 1510 923 1510 c 0,47,48
 1216 1510 1216 1510 1376 1318 c 0,49,50
 1494 1174 1494 1174 1494 954 c 0,51,52
 1494 861 1494 861 1471 755 c 0,53,54
 1414 492 1414 492 1246 278 c 0,55,56
 1027 0 1027 0 696 0 c 0,57,58
 634 0 634 0 538 18 c 0,59,60
 444 35 444 35 393 35 c 0,61,62
 313 35 313 35 236 0 c 1,0,-1
EndSplineSet
Validated: 1
EndChar

StartChar: Hbar
Encoding: 294 294 172
Width: 1374
Flags: W
HStem: 0 21G<181 264 940 1023.5> 721 73<567.409 1128.37> 1210 146<375.65 459.749 1463.19 1542.35> 1247 72<698 1226> 1490 20G<669 755 1428 1514>
LayerCount: 2
Fore
SplineSet
190 0 m 1,0,-1
 181 6 l 1,1,2
 301 364 301 364 379 730 c 0,3,4
 430 971 430 971 462 1224 c 1,5,6
 390 1218 390 1218 313 1210 c 1,7,-1
 309 1220 l 1,8,9
 367 1292 367 1292 403 1356 c 1,10,11
 440 1351 440 1351 477 1347 c 1,12,13
 481 1383 481 1383 484 1418 c 1,14,15
 592 1431 592 1431 746 1510 c 1,16,-1
 755 1504 l 1,17,18
 725 1414 725 1414 698 1327 c 1,19,20
 835 1319 835 1319 980 1319 c 0,21,22
 1101 1319 1101 1319 1235 1326 c 1,23,24
 1240 1372 1240 1372 1243 1418 c 1,25,26
 1351 1431 1351 1431 1505 1510 c 1,27,-1
 1514 1504 l 1,28,29
 1487 1424 1487 1424 1461 1342 c 1,30,31
 1531 1348 1531 1348 1605 1356 c 1,32,-1
 1609 1346 l 1,33,34
 1551 1274 1551 1274 1515 1210 c 1,35,36
 1470 1216 1470 1216 1426 1221 c 1,37,38
 1364 1006 1364 1006 1315 782 c 0,39,40
 1240 429 1240 429 1211 92 c 1,41,42
 1098 77 1098 77 949 0 c 1,43,-1
 940 6 l 1,44,45
 1059 357 1059 357 1133 704 c 1,46,47
 985 721 985 721 832.5 721 c 128,-1,48
 680 721 680 721 539 700 c 1,49,50
 474 396 474 396 452 92 c 1,51,52
 338 77 338 77 190 0 c 1,0,-1
1226 1238 m 1,53,54
 1087 1247 1087 1247 950 1247 c 0,55,56
 821 1247 821 1247 672 1239 c 1,57,58
 606 1014 606 1014 563 810 c 1,59,60
 704 794 704 794 856.5 794 c 128,-1,61
 1009 794 1009 794 1156 815 c 1,62,63
 1201 1025 1201 1025 1226 1238 c 1,53,54
EndSplineSet
Validated: 1
EndChar

StartChar: Lslash
Encoding: 321 321 173
Width: 1064
Flags: W
HStem: 0 21G<191 308.5 885.5 986> 45 71<468.906 853.75> 1490 20G<679 765>
LayerCount: 2
Fore
SplineSet
200 0 m 1,0,1
 191 6 l 1,2,3
 287 292 287 292 356 583 c 1,4,5
 302 547 302 547 249 507 c 1,6,-1
 240 512 l 1,7,8
 257 594 257 594 260 662 c 1,9,10
 323 679 323 679 383 701 c 1,11,12
 460 1064 460 1064 494 1418 c 1,13,14
 602 1431 602 1431 756 1510 c 1,15,-1
 765 1504 l 1,16,17
 644 1146 644 1146 566 782 c 1,18,19
 729 866 729 866 892 987 c 1,20,21
 901 982 l 1,22,23
 883 898 883 898 881 832 c 1,24,25
 703 784 703 784 574 712 c 0,26,27
 562 705 562 705 550 699 c 1,28,29
 492 406 492 406 465 135 c 1,30,31
 545 116 545 116 638 116 c 0,32,33
 835 116 835 116 1107 252 c 1,34,-1
 1110 242 l 1,35,36
 1005 110 1005 110 967 0 c 1,37,38
 804 45 804 45 628 45 c 0,39,40
 417 45 417 45 200 0 c 1,0,1
EndSplineSet
Validated: 1
EndChar

StartChar: Eng
Encoding: 330 330 174
Width: 1410
VWidth: 0
Flags: W
HStem: -380 21G<764 854> 0 21G<181 267> 1345 165<939.622 1067.87>
VStem: 1206 199<811.109 1201.12>
LayerCount: 2
Fore
SplineSet
190 0 m 1,0,1
 181 6 l 1,2,3
 304 372 304 372 380 728 c 0,4,5
 455 1081 455 1081 484 1418 c 1,6,7
 597 1433 597 1433 746 1510 c 1,8,-1
 755 1504 l 1,9,10
 723 1410 723 1410 695 1315 c 1,11,12
 849 1443 849 1443 1048 1510 c 1,13,-1
 1058 1510 l 1,14,15
 1217 1463 1217 1463 1310 1360 c 0,16,17
 1405 1254 1405 1254 1405 1093 c 0,18,19
 1405 1018 1405 1018 1385 925 c 2,20,-1
 1332 678 l 2,21,22
 1271 394 1271 394 1250 92 c 1,23,24
 1170 -36 1170 -36 1049 -154 c 0,25,26
 937 -264 937 -264 771 -380 c 1,27,-1
 764 -374 l 1,28,29
 923 -172 923 -172 1002 61 c 0,30,31
 1091 323 1091 323 1169 690 c 0,32,33
 1206 863 1206 863 1206 988 c 0,34,35
 1206 1120 1206 1120 1165 1196 c 0,36,37
 1085 1345 1085 1345 899 1345 c 0,38,39
 787 1345 787 1345 682 1275 c 1,40,41
 610 1029 610 1029 557 780 c 0,42,43
 486 447 486 447 452 92 c 1,44,45
 344 79 344 79 190 0 c 1,0,1
EndSplineSet
Validated: 1
EndChar

StartChar: Oslash
Encoding: 216 216 175
Width: 1354
VWidth: 0
Flags: W
HStem: 0 21G<630 807.5> 1490 20G<869.5 1045>
VStem: 260 185<465.083 840.573> 1230 185<669.712 1044.92>
LayerCount: 2
Fore
SplineSet
672 0 m 1,0,1
 588 36 588 36 519 86 c 1,2,3
 493 32 493 32 467 -22 c 1,4,5
 399 -22 399 -22 314 -36 c 1,6,-1
 309 -27 l 1,7,8
 372 68 372 68 433 160 c 1,9,10
 388 206 388 206 353 260 c 0,11,12
 260 404 260 404 260 583 c 0,13,14
 260 663 260 663 279 750 c 0,15,16
 337 1021 337 1021 575 1257 c 0,17,18
 746 1427 746 1427 993 1510 c 1,19,-1
 1003 1510 l 1,20,21
 1087 1474 1087 1474 1156 1425 c 1,22,23
 1182 1478 1182 1478 1208 1532 c 1,24,25
 1276 1532 1276 1532 1361 1546 c 1,26,-1
 1366 1537 l 1,27,28
 1303 1443 1303 1443 1242 1350 c 1,29,30
 1286 1304 1286 1304 1322 1250 c 0,31,32
 1415 1106 1415 1106 1415 927 c 0,33,34
 1415 847 1415 847 1396 760 c 0,35,36
 1339 491 1339 491 1100 253 c 0,37,38
 933 86 933 86 682 0 c 1,39,-1
 672 0 l 1,0,1
942 145 m 1,40,41
 1151 399 1151 399 1215 699 c 0,42,43
 1230 769 1230 769 1230 835 c 0,44,45
 1230 1014 1230 1014 1118 1155 c 1,46,47
 988 949 988 949 872 749 c 0,48,49
 742 524 742 524 621 288 c 1,50,51
 745 177 745 177 942 145 c 1,40,41
557 355 m 1,52,53
 687 563 687 563 802 760 c 0,54,55
 931 984 931 984 1054 1223 c 1,56,57
 930 1333 930 1333 733 1365 c 1,58,59
 524 1111 524 1111 460 811 c 0,60,61
 445 741 445 741 445 675 c 0,62,63
 445 496 445 496 557 355 c 1,52,53
EndSplineSet
Validated: 1
EndChar

StartChar: OE
Encoding: 338 338 176
Width: 1779
VWidth: 0
Flags: W
HStem: 0 21G<567 738.5 861 978.5 1555.5 1656> 45 71<1138.91 1523.75> 1490 20G<869.5 1048 1349 1483.5 1892.5 1980>
VStem: 260 185<466.301 840.573> 1230 184<789.152 1043.19>
LayerCount: 2
Fore
SplineSet
942 145 m 1,0,1
 1151 399 1151 399 1215 699 c 0,2,3
 1230 769 1230 769 1230 835 c 0,4,5
 1230 1026 1230 1026 1102 1174 c 0,6,7
 971 1326 971 1326 733 1365 c 1,8,9
 524 1111 524 1111 460 811 c 0,10,11
 445 741 445 741 445 675 c 0,12,13
 445 484 445 484 573 336 c 8,14,15
 704 184 704 184 942 145 c 1,0,1
672 0 m 1,16,17
 462 90 462 90 353 260 c 0,18,19
 260 404 260 404 260 583 c 0,20,21
 260 663 260 663 279 750 c 0,22,23
 337 1021 337 1021 575 1257 c 0,24,25
 746 1427 746 1427 993 1510 c 1,26,-1
 1003 1510 l 1,27,28
 1093 1472 1093 1472 1165 1418 c 1,29,30
 1272 1431 1272 1431 1426 1510 c 1,31,32
 1541 1443 1541 1443 1679 1443 c 0,33,34
 1809 1443 1809 1443 1976 1510 c 1,35,-1
 1980 1500 l 1,36,37
 1875 1368 1875 1368 1836 1258 c 1,38,39
 1696 1267 1696 1267 1591 1321 c 0,40,41
 1490 1373 1490 1373 1426 1478 c 1,42,43
 1382 1346 1382 1346 1344 1213 c 1,44,45
 1414 1083 1414 1083 1414 927 c 0,46,47
 1414 860 1414 860 1401 788 c 1,48,49
 1560 817 1560 817 1739 898 c 1,50,-1
 1743 888 l 1,51,52
 1638 756 1638 756 1599 646 c 1,53,54
 1490 678 1490 678 1378 691 c 1,55,56
 1318 492 1318 492 1155 311 c 1,57,58
 1143 221 1143 221 1135 135 c 1,59,60
 1215 116 1215 116 1308 116 c 0,61,62
 1505 116 1505 116 1777 252 c 1,63,-1
 1780 242 l 1,64,65
 1675 110 1675 110 1637 0 c 1,66,67
 1474 45 1474 45 1298 45 c 0,68,69
 1087 45 1087 45 870 0 c 1,70,-1
 861 6 l 1,71,72
 875 50 875 50 890 93 c 1,73,74
 795 39 795 39 682 0 c 1,75,-1
 672 0 l 1,16,17
EndSplineSet
Validated: 1
EndChar

StartChar: Scommaaccent
Encoding: 536 536 177
Width: 1124
VWidth: 0
Flags: W
HStem: 0 21G<440.5 682.5> 1490 20G<787 932>
VStem: 363 51<-386.642 -368.522> 407 158<1052.86 1209.52> 954 186<411.227 620.306 1235 1258.19>
DStem2: 675 1002 591 819 0.871576 -0.490261<-141.543 441.613>
LayerCount: 2
Fore
SplineSet
547 0 m 1,0,1
 334 91 334 91 228 260 c 0,2,3
 196 311 196 311 177 360 c 1,4,-1
 183 371 l 1,5,6
 302 382 302 382 384 427 c 1,7,8
 410 383 410 383 448 336 c 0,9,10
 574 183 574 183 817 145 c 1,11,12
 903 270 903 270 939 396 c 0,13,14
 954 448 954 448 954 501 c 0,15,16
 954 612 954 612 835 680 c 2,17,-1
 591 819 l 2,18,19
 407 924 407 924 407 1065 c 0,20,21
 407 1084 407 1084 410 1099 c 0,22,23
 434 1231 434 1231 562 1337 c 0,24,25
 706 1456 706 1456 868 1510 c 1,26,-1
 878 1510 l 1,27,28
 986 1471 986 1471 1076 1381 c 0,29,30
 1138 1319 1138 1319 1149 1247 c 1,31,-1
 1144 1235 l 1,32,33
 1038 1219 1038 1219 960 1172 c 1,34,35
 945 1233 945 1233 885 1281 c 0,36,37
 779 1365 779 1365 660 1387 c 1,38,39
 589 1295 589 1295 569 1196 c 0,40,41
 565 1176 565 1176 565 1157 c 0,42,43
 565 1064 565 1064 675 1002 c 2,44,-1
 947 849 l 2,45,46
 1140 740 1140 740 1140 575 c 0,47,48
 1140 545 1140 545 1133 514 c 0,49,50
 1105 383 1105 383 975 253 c 0,51,52
 808 87 808 87 557 0 c 1,53,-1
 547 0 l 1,0,1
545 -50 m 1,54,55
 638 -128 638 -128 741 -142 c 1,56,-1
 744 -152 l 1,57,58
 541 -220 541 -220 414 -400 c 1,59,-1
 404 -400 l 1,60,61
 391 -385 391 -385 363 -375 c 1,62,63
 400 -167 400 -167 545 -50 c 1,54,55
EndSplineSet
Validated: 1
EndChar

StartChar: Tbar
Encoding: 358 358 178
Width: 1123
Flags: W
HStem: 0 21G<432 516.5> 658 146<409.65 617.872 808.191 1024.35> 1384 73<514.116 733 956.336 1121.76> 1490 20G<397.5 536.5 1292 1437>
LayerCount: 2
Fore
SplineSet
441 0 m 1,0,-1
 432 6 l 1,1,2
 546 346 546 346 622 693 c 1,3,4
 490 686 490 686 347 658 c 1,5,-1
 343 668 l 1,6,7
 401 740 401 740 437 804 c 1,8,9
 535 778 535 778 639 771 c 1,10,11
 706 1095 706 1095 733 1384 c 1,12,13
 508 1374 508 1374 278 1258 c 1,14,-1
 275 1268 l 1,15,16
 377 1396 377 1396 418 1510 c 1,17,18
 655 1457 655 1457 888 1457 c 0,19,20
 1151 1457 1151 1457 1433 1510 c 1,21,-1
 1437 1500 l 1,22,23
 1332 1367 1332 1367 1293 1258 c 1,24,25
 1152 1364 1152 1364 965 1384 c 1,26,27
 872 1086 872 1086 804 769 c 1,28,29
 938 775 938 775 1087 804 c 1,30,-1
 1091 794 l 1,31,32
 1033 722 1033 722 997 658 c 1,33,34
 897 684 897 684 789 692 c 1,35,36
 731 399 731 399 703 92 c 1,37,38
 592 77 592 77 441 0 c 1,0,-1
EndSplineSet
Validated: 1
EndChar

StartChar: uni021A
Encoding: 538 538 179
Width: 1123
Flags: W
HStem: 0 21G<432 516.5> 1384 73<514.116 733 956.343 1121.76> 1490 20G<397.5 536.5 1292 1437>
VStem: 367 51<-386.642 -368.522>
LayerCount: 2
Fore
SplineSet
549 -50 m 1,0,1
 642 -128 642 -128 745 -142 c 1,2,-1
 748 -152 l 1,3,4
 545 -220 545 -220 418 -400 c 1,5,6
 408 -400 l 1,7,8
 395 -385 395 -385 367 -375 c 1,9,10
 404 -167 404 -167 549 -50 c 1,0,1
441 0 m 1,11,-1
 432 6 l 1,12,13
 552 364 552 364 630 730 c 0,14,15
 704 1077 704 1077 733 1384 c 1,16,17
 508 1374 508 1374 278 1258 c 1,18,-1
 275 1268 l 1,19,20
 377 1396 377 1396 418 1510 c 1,21,22
 655 1457 655 1457 888 1457 c 0,23,24
 1151 1457 1151 1457 1433 1510 c 1,25,-1
 1437 1500 l 1,26,27
 1332 1367 1332 1367 1293 1258 c 1,28,29
 1152 1364 1152 1364 965 1384 c 1,30,31
 872 1086 872 1086 807 782 c 0,32,33
 734 439 734 439 703 92 c 1,34,35
 592 77 592 77 441 0 c 1,11,-1
EndSplineSet
Validated: 1
EndChar

StartChar: tbar
Encoding: 359 359 180
Width: 731
Flags: W
HStem: 0 21G<259 337> 528 146<240.65 416.28 569.381 745.35> 984 146<287.65 507.716 674.253 892.35> 1490 20G<714.5 793>
DStem2: 300.751 0 430.176 0 0.207912 0.978148<138.56 575.49 680.185 1040.65>
LayerCount: 2
Fore
SplineSet
268 0 m 1,0,-1
 259 6 l 1,1,2
 352 282 352 282 420 563 c 1,3,4
 301 556 301 556 178 528 c 1,5,-1
 174 538 l 1,6,7
 232 610 232 610 268 674 c 1,8,9
 351 649 351 649 437 641 c 1,10,11
 448 686 448 686 457 730 c 0,12,13
 487 873 487 873 512 1019 c 1,14,15
 375 1013 375 1013 225 984 c 1,16,-1
 221 994 l 1,17,18
 279 1066 279 1066 315 1130 c 1,19,20
 416 1104 416 1104 523 1096 c 1,21,22
 547 1257 547 1257 563 1423 c 1,23,24
 645 1439 645 1439 784 1510 c 1,25,-1
 793 1504 l 1,26,27
 725 1303 725 1303 670 1095 c 1,28,29
 806 1101 806 1101 955 1130 c 1,30,-1
 959 1120 l 1,31,32
 901 1048 901 1048 865 984 c 1,33,34
 761 1011 761 1011 650 1019 c 1,35,36
 620 902 620 902 594 782 c 0,37,38
 579 710 579 710 566 639 c 1,39,40
 674 645 674 645 808 674 c 1,41,-1
 812 664 l 1,42,43
 754 592 754 592 718 528 c 1,44,45
 631 554 631 554 551 562 c 1,46,47
 509 320 509 320 488 87 c 1,48,49
 406 71 406 71 268 0 c 1,0,-1
EndSplineSet
Validated: 1
EndChar

StartChar: uni021B
Encoding: 539 539 181
Width: 731
Flags: W
HStem: 0 21G<259 337> 984 146<287.65 507.716 674.253 892.35> 1490 20G<714.5 793>
VStem: 171 51<-386.642 -368.522>
LayerCount: 2
Fore
SplineSet
353 -50 m 1,0,1
 446 -128 446 -128 549 -142 c 1,2,-1
 552 -152 l 1,3,4
 349 -220 349 -220 222 -400 c 1,5,6
 212 -400 l 1,7,8
 199 -385 199 -385 171 -375 c 1,9,10
 208 -167 208 -167 353 -50 c 1,0,1
268 0 m 1,11,-1
 259 6 l 1,12,13
 379 364 379 364 457 730 c 0,14,15
 487 873 487 873 512 1019 c 1,16,17
 375 1013 375 1013 225 984 c 1,18,-1
 221 994 l 1,19,20
 279 1066 279 1066 315 1130 c 1,21,22
 416 1104 416 1104 523 1096 c 1,23,24
 547 1257 547 1257 563 1423 c 1,25,26
 645 1439 645 1439 784 1510 c 1,27,-1
 793 1504 l 1,28,29
 725 1303 725 1303 670 1095 c 1,30,31
 806 1101 806 1101 955 1130 c 1,32,-1
 959 1120 l 1,33,34
 901 1048 901 1048 865 984 c 1,35,36
 761 1011 761 1011 650 1019 c 1,37,38
 620 902 620 902 594 782 c 0,39,40
 518 424 518 424 488 87 c 1,41,42
 406 71 406 71 268 0 c 1,11,-1
EndSplineSet
Validated: 1
EndChar

StartChar: scommaaccent
Encoding: 537 537 182
Width: 894
VWidth: 0
Flags: W
HStem: 0 21G<378 564> 1110 20G<627.5 772.5>
VStem: 260 51<-386.642 -368.522> 313 121<781.557 913.205> 745 152<269.896 452.811>
DStem2: 567 722 460 590 0.892366 -0.451312<-162.478 294.592>
LayerCount: 2
Fore
SplineSet
445 0 m 1,0,1
 311 50 311 50 211 170 c 0,2,3
 162 228 162 228 142 291 c 1,4,-1
 147 303 l 1,5,6
 257 319 257 319 314 356 c 1,7,8
 340 306 340 306 378 267 c 0,9,10
 481 160 481 160 656 114 c 1,11,12
 721 203 721 203 739 290 c 0,13,14
 745 319 745 319 745 344 c 0,15,16
 745 446 745 446 634 502 c 2,17,-1
 460 590 l 2,18,19
 313 664 313 664 313 785 c 0,20,21
 313 804 313 804 317 823 c 0,22,23
 341 934 341 934 481 1031 c 0,24,25
 570 1092 570 1092 685 1130 c 1,26,-1
 695 1130 l 1,27,28
 850 1092 850 1092 942 930 c 1,29,-1
 936 918 l 1,30,31
 830 901 830 901 764 862 c 1,32,33
 698 991 698 991 515 1029 c 1,34,35
 447 968 447 968 436 898 c 0,36,37
 434 885 434 885 434 873 c 0,38,39
 434 789 434 789 567 722 c 2,40,-1
 726 642 l 2,41,42
 897 556 897 556 897 413 c 0,43,44
 897 397 897 397 895 380 c 0,45,46
 881 283 881 283 787 189 c 0,47,48
 673 77 673 77 455 0 c 1,49,-1
 445 0 l 1,0,1
442 -50 m 1,50,51
 535 -128 535 -128 638 -142 c 1,52,-1
 641 -152 l 1,53,54
 438 -220 438 -220 311 -400 c 1,55,-1
 301 -400 l 1,56,57
 288 -385 288 -385 260 -375 c 1,58,59
 297 -167 297 -167 442 -50 c 1,50,51
EndSplineSet
Validated: 1
EndChar

StartChar: oslash
Encoding: 248 248 183
Width: 1080
Flags: W
HStem: 0 21G<507.5 648.5> 1110 20G<671 812.5>
VStem: 206 159<347.031 660.552> 956 158<465.893 782.969>
DStem2: 452 285 695 559 0.528623 0.848857<5.18191 690.544>
LayerCount: 2
Fore
SplineSet
535 0 m 1,0,1
 480 20 480 20 432 51 c 1,2,3
 412 9 412 9 393 -33 c 1,4,5
 325 -33 325 -33 240 -48 c 1,6,-1
 235 -39 l 1,7,8
 292 41 292 41 345 122 c 1,9,10
 323 145 323 145 301 170 c 0,11,12
 206 285 206 285 206 440 c 0,13,14
 206 499 206 499 220 565 c 0,15,16
 260 754 260 754 415 908 c 0,17,18
 567 1057 567 1057 775 1130 c 1,19,-1
 785 1130 l 1,20,21
 840 1110 840 1110 889 1078 c 1,22,23
 909 1120 909 1120 927 1163 c 1,24,25
 995 1163 995 1163 1080 1178 c 1,26,-1
 1085 1169 l 1,27,28
 1028 1089 1028 1089 975 1008 c 1,29,30
 997 986 997 986 1019 960 c 0,31,32
 1114 845 1114 845 1114 690 c 0,33,34
 1114 631 1114 631 1100 565 c 0,35,36
 1059 373 1059 373 905 222 c 0,37,38
 752 73 752 73 545 0 c 1,39,-1
 535 0 l 1,0,1
746 114 m 1,40,41
 897 287 897 287 945 511 c 0,42,43
 956 563 956 563 956 610 c 0,44,45
 956 744 956 744 869 845 c 1,46,47
 779 703 779 703 695 559 c 0,48,49
 600 394 600 394 515 224 c 1,50,51
 608 150 608 150 746 114 c 1,40,41
452 285 m 1,52,53
 542 427 542 427 624 570 c 0,54,55
 720 736 720 736 806 906 c 1,56,57
 713 980 713 980 574 1016 c 1,58,59
 423 843 423 843 376 619 c 0,60,61
 365 567 365 567 365 520 c 0,62,63
 365 386 365 386 452 285 c 1,52,53
EndSplineSet
Validated: 1
EndChar

StartChar: oe
Encoding: 339 339 184
Width: 1564
Flags: W
HStem: 0 176<1068.8 1194.58> 1110 20G<671 851 1234 1400.5>
VStem: 206 159<347.031 660.552> 956 158<469.448 784.031> 1468 157<631.859 830.337>
LayerCount: 2
Fore
SplineSet
545 0 m 1,0,-1
 535 0 l 1,1,2
 401 48 401 48 301 170 c 0,3,4
 206 285 206 285 206 440 c 0,5,6
 206 499 206 499 220 565 c 0,7,8
 260 754 260 754 415 908 c 0,9,10
 567 1057 567 1057 775 1130 c 1,11,-1
 785 1130 l 1,12,13
 917 1082 917 1082 1018 961 c 1,14,15
 1148 1070 1148 1070 1320 1130 c 1,16,-1
 1330 1130 l 1,17,18
 1471 1072 1471 1072 1564 960 c 0,19,20
 1625 886 1625 886 1625 789 c 0,21,22
 1625 766 1625 766 1622 742 c 0,23,24
 1606 631 1606 631 1502 546 c 0,25,26
 1396 459 1396 459 1227 459 c 1,27,-1
 1229 469 l 1,28,29
 1437 538 1437 538 1463 662 c 0,30,31
 1468 685 1468 685 1468 706 c 0,32,33
 1468 790 1468 790 1397 863 c 0,34,35
 1294 970 1294 970 1119 1016 c 1,36,37
 1079 971 1079 971 1047 922 c 1,38,39
 1114 821 1114 821 1114 690 c 0,40,41
 1114 630 1114 630 1100 565 c 0,42,43
 1070 425 1070 425 980 306 c 1,44,45
 986 297 986 297 993 289 c 0,46,47
 1086 176 1086 176 1222 176 c 0,48,49
 1376 176 1376 176 1514 310 c 1,50,-1
 1522 303 l 1,51,52
 1358 96 1358 96 1090 0 c 1,53,-1
 1080 0 l 1,54,55
 946 48 946 48 847 169 c 1,56,57
 715 59 715 59 545 0 c 1,0,-1
746 114 m 1,58,59
 897 287 897 287 945 511 c 0,60,61
 956 563 956 563 956 610 c 0,62,63
 956 756 956 756 852 863 c 0,64,65
 749 970 749 970 574 1016 c 1,66,67
 423 843 423 843 376 619 c 0,68,69
 365 567 365 567 365 519 c 0,70,71
 365 374 365 374 468 267 c 128,-1,72
 571 160 571 160 746 114 c 1,58,59
EndSplineSet
Validated: 1
EndChar

StartChar: eng
Encoding: 331 331 185
Width: 1171
Flags: W
HStem: -380 21G<600 684.5> 0 21G<151 227> 974 156<734.109 869.91>
VStem: 984 154<436.08 854.389>
LayerCount: 2
Fore
SplineSet
160 0 m 1,0,1
 151 6 l 1,2,3
 251 269 251 269 309 540 c 0,4,5
 365 803 365 803 375 1043 c 1,6,7
 472 1061 472 1061 605 1130 c 1,8,-1
 614 1124 l 1,9,10
 586 1049 586 1049 562 976 c 1,11,12
 695 1081 695 1081 843 1130 c 1,13,-1
 853 1130 l 1,14,15
 990 1080 990 1080 1072 971 c 0,16,17
 1138 883 1138 883 1138 740 c 0,18,19
 1138 661 1138 661 1118 565 c 0,20,21
 1067 325 1067 325 1059 87 c 1,22,23
 980 -36 980 -36 875 -152 c 0,24,25
 762 -276 762 -276 607 -380 c 1,26,-1
 600 -374 l 1,27,28
 761 -177 761 -177 852 78 c 24,29,30
 906 230 906 230 966 511 c 0,31,32
 984 597 984 597 984 669 c 0,33,34
 984 793 984 793 929 872 c 0,35,36
 858 974 858 974 720 974 c 0,37,38
 622 974 622 974 550 939 c 1,39,40
 491 756 491 756 456 592 c 0,41,42
 398 319 398 319 390 87 c 1,43,44
 294 69 294 69 160 0 c 1,0,1
EndSplineSet
Validated: 1
EndChar

StartChar: lslash
Encoding: 322 322 186
Width: 635
Flags: W
HStem: 0 21G<211 289> 1490 20G<666.5 745>
VStem: 151 651
LayerCount: 2
Fore
SplineSet
220 0 m 1,0,-1
 211 6 l 1,1,2
 320 331 320 331 395 662 c 1,3,4
 278 594 278 594 160 507 c 1,5,-1
 151 512 l 1,6,7
 168 594 168 594 171 662 c 1,8,9
 295 696 295 696 414 751 c 1,10,11
 482 1076 482 1076 515 1423 c 1,12,13
 597 1439 597 1439 736 1510 c 1,14,-1
 745 1504 l 1,15,16
 634 1177 634 1177 557 831 c 1,17,18
 674 899 674 899 793 987 c 1,19,-1
 802 982 l 1,20,21
 784 898 784 898 782 832 c 1,22,23
 658 799 658 799 538 743 c 1,24,25
 468 406 468 406 440 87 c 1,26,27
 358 71 358 71 220 0 c 1,0,-1
EndSplineSet
Validated: 1
EndChar

StartChar: kgreenlandic
Encoding: 312 312 187
Width: 1052
Flags: W
HStem: 0 21G<151 227 831 911> 1110 20G<538.5 614 921.5 1076>
LayerCount: 2
Fore
SplineSet
160 0 m 1,0,1
 151 6 l 1,2,3
 251 269 251 269 309 540 c 0,4,5
 365 803 365 803 375 1043 c 1,6,7
 472 1061 472 1061 605 1130 c 1,8,-1
 614 1124 l 1,9,10
 508 836 508 836 452 575 c 1,11,12
 777 803 777 803 1066 1130 c 1,13,-1
 1076 1129 l 1,14,15
 1122 1070 1122 1070 1175 1045 c 1,16,17
 932 889 932 889 759 732 c 1,18,19
 852 390 852 390 1060 87 c 1,20,21
 982 68 982 68 840 0 c 1,22,-1
 831 6 l 1,23,24
 769 383 769 383 617 610 c 1,25,26
 521 528 521 528 423 421 c 1,27,28
 395 245 395 245 390 87 c 1,29,30
 294 69 294 69 160 0 c 1,0,1
EndSplineSet
Validated: 1
EndChar

StartChar: hbar
Encoding: 295 295 188
Width: 1170
Flags: W
HStem: 0 21G<151 226 814 889> 974 156<733.634 869.91> 1247 72<635 859.186> 1490 20G<619.5 695>
VStem: 984 154<435.081 854.389>
DStem2: 349 730 496 782 0.232555 0.972583<-382.027 468.62>
LayerCount: 2
Fore
SplineSet
160 0 m 1,0,-1
 151 6 l 1,1,2
 271 364 271 364 349 730 c 0,3,4
 401 975 401 975 434 1233 c 1,5,6
 375 1224 375 1224 313 1210 c 1,7,-1
 309 1220 l 1,8,9
 367 1292 367 1292 403 1356 c 1,10,11
 426 1349 426 1349 448 1344 c 1,12,13
 453 1384 453 1384 455 1423 c 1,14,15
 553 1442 553 1442 686 1510 c 1,16,-1
 695 1504 l 1,17,18
 663 1412 663 1412 635 1319 c 1,19,20
 783 1319 783 1319 953 1356 c 1,21,-1
 957 1346 l 1,22,23
 899 1274 899 1274 863 1210 c 1,24,25
 741 1247 741 1247 614 1247 c 1,26,27
 572 1103 572 1103 536 955 c 1,28,29
 681 1077 681 1077 843 1130 c 1,30,-1
 853 1130 l 1,31,32
 990 1080 990 1080 1072 971 c 0,33,34
 1138 883 1138 883 1138 740 c 0,35,36
 1138 661 1138 661 1118 565 c 0,37,38
 1066 319 1066 319 1058 87 c 1,39,40
 955 69 955 69 823 0 c 1,41,-1
 814 6 l 1,42,43
 914 269 914 269 966 511 c 0,44,45
 984 597 984 597 984 669 c 0,46,47
 984 793 984 793 929 872 c 0,48,49
 858 974 858 974 720 974 c 0,50,51
 608 974 608 974 529 928 c 1,52,53
 512 856 512 856 496 782 c 0,54,55
 420 424 420 424 390 87 c 1,56,57
 292 68 292 68 160 0 c 1,0,-1
EndSplineSet
Validated: 1
EndChar

StartChar: longs
Encoding: 383 383 189
Width: 1011
Flags: W
HStem: 0 21G<243 318> 724 146<232.65 436.935> 1490 20G<936.5 1118.5>
LayerCount: 2
Fore
SplineSet
252 0 m 1,0,-1
 243 6 l 1,1,2
 359 343 359 343 412 595 c 0,3,4
 429 675 429 675 441 759 c 1,5,6
 311 752 311 752 170 724 c 1,7,-1
 166 734 l 1,8,9
 224 806 224 806 260 870 c 1,10,11
 353 846 353 846 451 837 c 1,12,13
 461 937 461 937 465 1043 c 1,14,15
 545 1165 545 1165 675 1282 c 0,16,17
 831 1421 831 1421 1042 1510 c 1,18,-1
 1052 1510 l 1,19,20
 1185 1462 1185 1462 1286 1340 c 1,21,-1
 1280 1328 l 1,22,23
 1174 1312 1174 1312 1097 1265 c 1,24,25
 999 1356 999 1356 841 1396 c 1,26,27
 744 1268 744 1268 705 1165 c 0,28,29
 625 953 625 953 561 652 c 0,30,31
 500 366 500 366 482 87 c 1,32,33
 384 68 384 68 252 0 c 1,0,-1
EndSplineSet
Validated: 1
EndChar

StartChar: florin
Encoding: 402 402 190
Width: 939
Flags: W
HStem: -380 21G<-49 35> 761 72<530 776.151> 1490 20G<864.5 1046.5>
LayerCount: 2
Fore
SplineSet
-42 -380 m 1,0,1
 -49 -374 l 1,2,3
 115 -174 115 -174 203 78 c 24,4,5
 274 278 274 278 340 595 c 0,6,7
 356 671 356 671 367 750 c 1,8,9
 302 741 302 741 230 724 c 1,10,-1
 226 734 l 1,11,12
 284 806 284 806 320 870 c 1,13,14
 351 860 351 860 380 853 c 1,15,16
 390 946 390 946 393 1043 c 1,17,18
 473 1165 473 1165 603 1282 c 0,19,20
 759 1421 759 1421 970 1510 c 1,21,-1
 980 1510 l 1,22,23
 1113 1462 1113 1462 1214 1340 c 1,24,25
 1208 1328 l 1,26,27
 1102 1312 1102 1312 1025 1265 c 1,28,29
 927 1356 927 1356 769 1396 c 1,30,31
 677 1275 677 1275 633 1165 c 0,32,33
 578 1030 578 1030 530 833 c 1,34,35
 700 833 700 833 870 870 c 1,36,-1
 874 860 l 1,37,38
 816 788 816 788 780 724 c 1,39,40
 657 761 657 761 513 761 c 1,41,42
 501 709 501 709 489 652 c 0,43,44
 432 383 432 383 410 87 c 1,45,46
 331 -36 331 -36 226 -152 c 0,47,48
 112 -276 112 -276 -42 -380 c 1,0,1
EndSplineSet
Validated: 1
EndChar

StartChar: dcroat
Encoding: 273 273 191
Width: 1165
Flags: W
HStem: 0 176<523.797 652.285> 1110 20G<669 843.5> 1247 72<860.595 1086> 1490 20G<1256.5 1335>
VStem: 206 159<347.031 660.552>
LayerCount: 2
Fore
SplineSet
535 0 m 1,0,1
 401 48 401 48 301 170 c 0,2,3
 206 285 206 285 206 440 c 0,4,5
 206 499 206 499 220 565 c 0,6,7
 260 754 260 754 415 908 c 0,8,9
 563 1056 563 1056 775 1130 c 1,10,-1
 785 1130 l 1,11,12
 902 1097 902 1097 970 1005 c 0,13,14
 1011 949 1011 949 1026 864 c 1,15,16
 1061 1054 1061 1054 1086 1247 c 1,17,18
 929 1247 929 1247 767 1210 c 1,19,-1
 763 1220 l 1,20,21
 821 1292 821 1292 857 1356 c 1,22,23
 972 1321 972 1321 1094 1319 c 1,24,25
 1100 1371 1100 1371 1105 1423 c 1,26,27
 1187 1439 1187 1439 1326 1510 c 1,28,-1
 1335 1504 l 1,29,30
 1306 1420 1306 1420 1280 1334 c 1,31,32
 1336 1343 1336 1343 1397 1356 c 1,33,-1
 1401 1346 l 1,34,35
 1343 1274 1343 1274 1307 1210 c 1,36,37
 1277 1219 1277 1219 1248 1226 c 1,38,39
 1186 1008 1186 1008 1136 782 c 0,40,41
 1060 424 1060 424 1030 87 c 1,42,43
 948 71 948 71 810 0 c 1,44,-1
 801 6 l 1,45,46
 829 91 829 91 856 177 c 1,47,48
 724 64 724 64 545 0 c 1,49,-1
 535 0 l 1,0,1
953 525 m 0,50,51
 964 578 964 578 964 626 c 0,52,53
 964 776 964 776 860 891 c 0,54,55
 767 994 767 994 574 1016 c 1,56,57
 423 843 423 843 376 619 c 0,58,59
 365 568 365 568 365 521 c 0,60,61
 365 391 365 391 448 289 c 0,62,63
 541 176 541 176 677 176 c 0,64,65
 779 176 779 176 874 234 c 1,66,67
 921 374 921 374 953 525 c 0,50,51
EndSplineSet
Validated: 1
EndChar

StartChar: ae
Encoding: 230 230 192
Width: 1651
Flags: W
HStem: 0 176<458.992 590.383 1155.8 1281.58> 935 9<462 466.692> 974 156<672.591 809.496>
VStem: 177 159<298.745 492.326> 923 154<435.383 833.059> 1555 157<631.859 830.337>
LayerCount: 2
Fore
SplineSet
484 0 m 1,0,-1
 474 0 l 1,1,2
 340 48 340 48 240 170 c 0,3,4
 177 246 177 246 177 334 c 0,5,6
 177 365 177 365 182 388 c 0,7,8
 207 511 207 511 300 584 c 0,9,10
 411 671 411 671 578 671 c 1,11,-1
 576 661 l 1,12,13
 368 592 368 592 341 468 c 0,14,15
 336 447 336 447 336 426 c 0,16,17
 336 351 336 351 396 278 c 0,18,19
 478 176 478 176 616 176 c 0,20,21
 731 176 731 176 837 251 c 1,22,23
 877 384 877 384 905 511 c 0,24,25
 923 597 923 597 923 669 c 0,26,27
 923 793 923 793 868 872 c 0,28,29
 797 974 797 974 659 974 c 0,30,31
 559 974 559 974 465 935 c 1,32,-1
 462 944 l 1,33,34
 612 1074 612 1074 782 1130 c 1,35,-1
 792 1130 l 1,36,37
 934 1078 934 1078 1011 971 c 0,38,39
 1032 942 1032 942 1047 908 c 1,40,41
 1195 1056 1195 1056 1407 1130 c 1,42,-1
 1417 1130 l 1,43,44
 1558 1072 1558 1072 1651 960 c 0,45,46
 1712 886 1712 886 1712 789 c 0,47,48
 1712 766 1712 766 1709 742 c 0,49,50
 1693 631 1693 631 1589 546 c 0,51,52
 1483 459 1483 459 1314 459 c 1,53,-1
 1316 469 l 1,54,55
 1524 538 1524 538 1550 662 c 0,56,57
 1555 685 1555 685 1555 706 c 0,58,59
 1555 790 1555 790 1484 863 c 0,60,61
 1381 970 1381 970 1206 1016 c 1,62,63
 1124 922 1124 922 1073 813 c 1,64,65
 1077 779 1077 779 1077 742 c 0,66,67
 1077 662 1077 662 1057 565 c 0,68,69
 1037 472 1037 472 1024 382 c 1,70,71
 1045 333 1045 333 1080 289 c 0,72,73
 1173 176 1173 176 1309 176 c 0,74,75
 1463 176 1463 176 1601 310 c 1,76,-1
 1609 303 l 1,77,78
 1445 96 1445 96 1177 0 c 1,79,-1
 1167 0 l 1,80,81
 1044 47 1044 47 987 152 c 1,82,83
 983 126 983 126 983 102 c 0,84,85
 983 93 983 93 984 84 c 1,86,87
 888 66 888 66 762 0 c 1,88,-1
 753 6 l 1,89,90
 791 105 791 105 822 200 c 1,91,92
 681 70 681 70 484 0 c 1,0,-1
EndSplineSet
Validated: 1
EndChar

StartChar: eth
Encoding: 240 240 193
Width: 1080
Flags: W
HStem: 0 21G<468 642.5> 1146 157<615.178 666.594> 1334 157<1101.39 1154.23> 1490 20G<811 891>
VStem: 206 159<347.031 662.937> 966 164<514.428 985.695>
LayerCount: 2
Fore
SplineSet
545 0 m 1,0,-1
 535 0 l 1,1,2
 401 48 401 48 301 170 c 0,3,4
 206 285 206 285 206 440 c 0,5,6
 206 499 206 499 220 565 c 0,7,8
 260 754 260 754 415 908 c 0,9,10
 491 984 491 984 584 1040 c 1,11,-1
 589 1034 l 1,12,13
 423 839 423 839 376 619 c 0,14,15
 365 567 365 567 365 519 c 0,16,17
 365 374 365 374 468 267 c 128,-1,18
 571 160 571 160 746 114 c 1,19,20
 897 290 897 290 945 511 c 0,21,22
 966 609 966 609 966 706 c 0,23,24
 966 840 966 840 926 972 c 0,25,26
 882 1121 882 1121 803 1252 c 1,27,28
 692 1207 692 1207 587 1146 c 1,29,-1
 579 1153 l 1,30,31
 610 1230 610 1230 626 1303 c 1,32,33
 693 1307 693 1307 759 1321 c 1,34,35
 722 1376 722 1376 678 1428 c 1,36,37
 766 1482 766 1482 856 1510 c 1,38,-1
 866 1510 l 1,39,40
 916 1449 916 1449 958 1381 c 1,41,42
 1062 1423 1062 1423 1182 1491 c 1,43,-1
 1189 1484 l 1,44,45
 1159 1410 1159 1410 1144 1334 c 1,46,47
 1066 1328 1066 1328 995 1314 c 1,48,49
 1065 1182 1065 1182 1104 1028 c 0,50,51
 1130 924 1130 924 1130 813 c 0,52,53
 1130 705 1130 705 1105 590 c 0,54,55
 1057 364 1057 364 905 222 c 0,56,57
 740 68 740 68 545 0 c 1,0,-1
EndSplineSet
Validated: 1
EndChar

StartChar: AEacute
Encoding: 508 508 194
Width: 1701
Flags: W
HStem: 0 21G<6 77 783 900.5 1477.5 1578> 45 71<1060.91 1445.75> 700 73<591.851 975 1156 1413.08> 1490 20G<1215 1405.5 1814.5 1902>
VStem: 1205 51<1573.36 1591.48>
LayerCount: 2
Fore
SplineSet
1387 1910 m 1,0,1
 1480 1832 1480 1832 1583 1818 c 1,2,-1
 1586 1808 l 1,3,4
 1383 1740 1383 1740 1256 1560 c 1,5,6
 1246 1560 l 1,7,8
 1233 1575 1233 1575 1205 1585 c 1,9,10
 1242 1793 1242 1793 1387 1910 c 1,0,1
15 0 m 1,11,-1
 6 6 l 1,12,13
 488 691 488 691 815 1418 c 1,14,15
 1082 1434 1082 1434 1348 1510 c 1,16,17
 1463 1443 1463 1443 1601 1443 c 0,18,19
 1731 1443 1731 1443 1898 1510 c 1,20,-1
 1902 1500 l 1,21,22
 1797 1368 1797 1368 1758 1258 c 1,23,24
 1615 1267 1615 1267 1513 1321 c 0,25,26
 1412 1373 1412 1373 1348 1478 c 1,27,28
 1233 1133 1233 1133 1156 773 c 1,29,30
 1386 773 1386 773 1661 898 c 1,31,-1
 1665 888 l 1,32,33
 1560 756 1560 756 1521 646 c 1,34,35
 1335 700 1335 700 1142 700 c 1,36,37
 1082 401 1082 401 1057 135 c 1,38,39
 1137 116 1137 116 1230 116 c 0,40,41
 1427 116 1427 116 1699 252 c 1,42,-1
 1702 242 l 1,43,44
 1597 110 1597 110 1559 0 c 1,45,46
 1396 45 1396 45 1220 45 c 0,47,48
 1009 45 1009 45 792 0 c 1,49,-1
 783 6 l 1,50,51
 898 349 898 349 975 700 c 1,52,53
 750 700 750 700 509 662 c 1,54,55
 355 390 355 390 229 88 c 1,56,57
 139 67 139 67 15 0 c 1,11,-1
990 773 m 1,58,59
 1051 1075 1051 1075 1086 1416 c 1,60,61
 922 1350 922 1350 586 808 c 1,62,63
 773 773 773 773 990 773 c 1,58,59
EndSplineSet
Validated: 1
EndChar

StartChar: aeacute
Encoding: 509 509 195
Width: 1651
Flags: W
HStem: 0 176<458.992 590.383 1155.8 1281.58> 935 9<462 466.692> 974 156<672.591 809.496>
VStem: 177 159<298.745 492.326> 923 154<435.383 833.059> 1077 51<1193.36 1211.48> 1555 157<631.859 830.337>
LayerCount: 2
Fore
SplineSet
1259 1530 m 1,0,1
 1352 1452 1352 1452 1455 1438 c 1,2,-1
 1458 1428 l 1,3,4
 1255 1360 1255 1360 1128 1180 c 1,5,6
 1118 1180 l 1,7,8
 1105 1195 1105 1195 1077 1205 c 1,9,10
 1114 1413 1114 1413 1259 1530 c 1,0,1
484 0 m 1,11,-1
 474 0 l 1,12,13
 340 48 340 48 240 170 c 0,14,15
 177 246 177 246 177 334 c 0,16,17
 177 365 177 365 182 388 c 0,18,19
 207 511 207 511 300 584 c 0,20,21
 411 671 411 671 578 671 c 1,22,-1
 576 661 l 1,23,24
 368 592 368 592 341 468 c 0,25,26
 336 447 336 447 336 426 c 0,27,28
 336 351 336 351 396 278 c 0,29,30
 478 176 478 176 616 176 c 0,31,32
 731 176 731 176 837 251 c 1,33,34
 877 384 877 384 905 511 c 0,35,36
 923 597 923 597 923 669 c 0,37,38
 923 793 923 793 868 872 c 0,39,40
 797 974 797 974 659 974 c 0,41,42
 559 974 559 974 465 935 c 1,43,-1
 462 944 l 1,44,45
 612 1074 612 1074 782 1130 c 1,46,-1
 792 1130 l 1,47,48
 934 1078 934 1078 1011 971 c 0,49,50
 1032 942 1032 942 1047 908 c 1,51,52
 1195 1056 1195 1056 1407 1130 c 1,53,-1
 1417 1130 l 1,54,55
 1558 1072 1558 1072 1651 960 c 0,56,57
 1712 886 1712 886 1712 789 c 0,58,59
 1712 766 1712 766 1709 742 c 0,60,61
 1693 631 1693 631 1589 546 c 0,62,63
 1483 459 1483 459 1314 459 c 1,64,-1
 1316 469 l 1,65,66
 1524 538 1524 538 1550 662 c 0,67,68
 1555 685 1555 685 1555 706 c 0,69,70
 1555 790 1555 790 1484 863 c 0,71,72
 1381 970 1381 970 1206 1016 c 1,73,74
 1124 922 1124 922 1073 813 c 1,75,76
 1077 779 1077 779 1077 742 c 0,77,78
 1077 662 1077 662 1057 565 c 0,79,80
 1037 472 1037 472 1024 382 c 1,81,82
 1045 333 1045 333 1080 289 c 0,83,84
 1173 176 1173 176 1309 176 c 0,85,86
 1463 176 1463 176 1601 310 c 1,87,-1
 1609 303 l 1,88,89
 1445 96 1445 96 1177 0 c 1,90,-1
 1167 0 l 1,91,92
 1044 47 1044 47 987 152 c 1,93,94
 983 126 983 126 983 102 c 0,95,96
 983 93 983 93 984 84 c 1,97,98
 888 66 888 66 762 0 c 1,99,-1
 753 6 l 1,100,101
 791 105 791 105 822 200 c 1,102,103
 681 70 681 70 484 0 c 1,11,-1
EndSplineSet
Validated: 1
EndChar

StartChar: thorn
Encoding: 254 254 196
Width: 1175
Flags: W
HStem: -380 21G<71 145.5> 0 21G<571.5 746> 954 176<767.344 891.203> 1490 20G<620.5 696>
VStem: 1051 158<469.448 781.814>
DStem2: 315 563 459 602 0.174835 0.984598<-464.46 -279.313 -33.3906 379.984>
LayerCount: 2
Fore
SplineSet
640 0 m 1,0,-1
 630 0 l 1,1,2
 513 33 513 33 446 125 c 0,3,4
 405 181 405 181 390 266 c 1,5,6
 338 -11 338 -11 310 -293 c 1,7,8
 212 -312 212 -312 79 -380 c 1,9,-1
 71 -374 l 1,10,11
 189 -24 189 -24 315 563 c 0,12,13
 422 1065 422 1065 456 1423 c 1,14,15
 554 1442 554 1442 687 1510 c 1,16,-1
 696 1504 l 1,17,18
 589 1212 589 1212 528 929 c 1,19,20
 683 1063 683 1063 870 1130 c 1,21,-1
 880 1130 l 1,22,23
 1014 1082 1014 1082 1114 960 c 0,24,25
 1209 845 1209 845 1209 690 c 0,26,27
 1209 631 1209 631 1195 565 c 0,28,29
 1155 376 1155 376 1000 222 c 0,30,31
 852 74 852 74 640 0 c 1,0,-1
841 114 m 1,32,33
 992 287 992 287 1040 511 c 0,34,35
 1051 562 1051 562 1051 609 c 0,36,37
 1051 740 1051 740 967 841 c 0,38,39
 874 954 874 954 738 954 c 0,40,41
 629 954 629 954 519 884 c 1,42,-1
 459 602 l 2,43,44
 448 551 448 551 448 504 c 0,45,46
 448 355 448 355 555 239 c 0,47,48
 649 136 649 136 841 114 c 1,32,33
EndSplineSet
Validated: 1
EndChar

StartChar: Thorn
Encoding: 222 222 197
Width: 1331
Flags: W
HStem: 0 21G<227 310> 194 84<525.171 896.678> 1127 189<738.183 1028.49> 1490 20G<715 801>
VStem: 1193 188<623.435 972.437>
LayerCount: 2
Fore
SplineSet
236 0 m 1,0,1
 227 6 l 1,2,3
 347 364 347 364 425 730 c 0,4,5
 459 889 459 889 485 1053 c 1,6,7
 409 1019 409 1019 332 969 c 1,8,-1
 328 979 l 1,9,10
 433 1111 433 1111 472 1221 c 1,11,12
 491 1230 491 1230 510 1239 c 1,13,14
 521 1328 521 1328 530 1418 c 1,15,16
 638 1431 638 1431 792 1510 c 1,17,-1
 801 1504 l 1,18,19
 768 1406 768 1406 737 1305 c 1,20,21
 804 1316 804 1316 873 1316 c 0,22,23
 1126 1316 1126 1316 1271 1163 c 0,24,25
 1381 1047 1381 1047 1381 867 c 0,26,27
 1381 810 1381 810 1370 746 c 0,28,29
 1328 504 1328 504 1130 347 c 24,30,31
 937 194 937 194 691 194 c 0,32,33
 599 194 599 194 511 226 c 1,34,35
 504 159 504 159 498 92 c 1,36,37
 384 77 384 77 236 0 c 1,0,1
523 318 m 1,38,39
 605 278 605 278 709 278 c 0,40,41
 912 278 912 278 1056 442 c 0,42,43
 1148 547 1148 547 1180 694 c 0,44,45
 1193 753 1193 753 1193 805 c 0,46,47
 1193 921 1193 921 1129 1001 c 0,48,49
 1030 1127 1030 1127 816 1127 c 0,50,51
 750 1127 750 1127 683 1115 c 1,52,53
 639 951 639 951 602 782 c 0,54,55
 552 546 552 546 523 318 c 1,38,39
EndSplineSet
Validated: 1
EndChar

